<?xml version="1.0" standalone="no"?>
<!DOCTYPE svg PUBLIC "-//W3C//DTD SVG 1.1//EN" "http://www.w3.org/Graphics/SVG/1.1/DTD/svg11.dtd" >
<svg xmlns="http://www.w3.org/2000/svg" xmlns:xlink="http://www.w3.org/1999/xlink" version="1.1">
<metadata>
Created by FontForge 20170731 at Sun Jun 28 20:30:28 2015
 By Aleksey,,,
Copyright 2015 Gabia. All rights reserved.
</metadata>
<defs>
<font id="NapjakBlock" horiz-adv-x="900" >
  <font-face 
    font-family="NapjakBlock"
    font-weight="400"
    font-stretch="normal"
    units-per-em="1000"
    panose-1="2 2 6 3 2 1 1 2 1 1"
    ascent="800"
    descent="-200"
    x-height="556"
    cap-height="799.5"
    bbox="3.21053 -495.429 1049.17 898"
    underline-thickness="25"
    underline-position="-236"
    unicode-range="U+0020-FFE6"
  />
<missing-glyph horiz-adv-x="300" 
 />
    <glyph glyph-name=".notdef" horiz-adv-x="300" 
 />
    <glyph glyph-name=".null" horiz-adv-x="0" 
 />
    <glyph glyph-name="nonmarkingreturn" horiz-adv-x="333" 
 />
    <glyph glyph-name="space" unicode=" " horiz-adv-x="300" 
 />
    <glyph glyph-name="exclam" unicode="!" horiz-adv-x="389" 
d="M223 730q18 13 29 7.5t11 -30.5v-400q0 -23 -12 -35q-9 -9 -30 -27.5t-41 -33.5q-13 -10 -25.5 -4.5t-12.5 24.5v364q0 12 -7 14q-6 2 -20 -8q-9 -7 -19 -7t-15 7q-6 8 -2.5 18t14.5 18zM218 114q4 -4 12.5 -10t17.5 -12.5t18 -12.5l15 -10q14 -9 13 -25q-1 -6 -5 -10.5
t-13 -11.5q-6 -4 -14.5 -11t-18 -14.5t-18 -15t-13.5 -12.5q-6 -7 -16.5 -6.5t-23.5 9.5l-63 46q-16 10 -13 27q0 8 7.5 12.5t13.5 8.5q14 9 32 23t28 25q18 18 41 0z" />
    <glyph glyph-name="quotedbl" unicode="&#x22;" horiz-adv-x="481" 
d="M154 763q4 -4 12.5 -10t17.5 -12.5t18 -12.5l15 -10q16 -10 15 -25q-1 -11 -20 -22q-14 -8 -28.5 -21t-23.5 -24q-11 -13 -4 -31t37 -44q5 -5 7.5 -10.5t-0.5 -10.5q-5 -8 -11.5 -7.5t-14.5 6.5q-10 8 -28 24t-36.5 34t-35.5 36.5t-25 30.5q-11 17 -7 29.5t18 27.5
q11 12 26.5 27.5t26.5 24.5q11 8 20.5 8.5t20.5 -8.5zM370 763q4 -4 12.5 -10t17.5 -12.5t18 -12.5l15 -10q16 -10 15 -25q-1 -11 -20 -22q-14 -8 -28.5 -21t-23.5 -24q-11 -13 -4 -31t37 -44q5 -5 7.5 -10.5t-0.5 -10.5q-5 -8 -11.5 -7.5t-14.5 6.5q-10 8 -28 24t-36.5 34
t-35.5 36.5t-25 30.5q-11 17 -7 29.5t18 27.5q11 12 26.5 27.5t26.5 24.5q11 8 20.5 8.5t20.5 -8.5z" />
    <glyph glyph-name="numbersign" unicode="#" horiz-adv-x="580" 
d="M293 178h-71l-18 -128q-2 -13 -7 -20.5t-10 -12.5q-10 -8 -27 -19t-39 -23q-14 -7 -25 0t-9 26l26 177h-75q-9 0 -15 3t-6 8t8 10.5t16 10.5t20 15t23 20q14 14 41 17l31 210h-78q-9 0 -15 3t-6 8t8 10.5t16 10.5t20 15t23 20q17 16 44 17l14 93q2 13 7 20.5t10 12.5
q10 8 27 19t39 23q14 7 25 0t9 -26l-21 -141h70l14 92q2 13 7 20.5t10 12.5q10 8 27 19t39 23q14 7 25 0t9 -26l-21 -141h82q20 0 20 -10q0 -9 -19 -21q-14 -9 -26.5 -19t-23.5 -21q-14 -14 -46 -14l-30 -209h85q20 0 20 -10q0 -9 -19 -21q-14 -9 -26.5 -19t-23.5 -21
q-14 -14 -48 -14l-19 -128q-2 -13 -7 -20.5t-10 -12.5q-10 -8 -27 -19t-39 -23q-14 -7 -25 0t-9 26zM234 263h71l31 209h-71z" />
    <glyph glyph-name="dollar" unicode="$" horiz-adv-x="650" 
d="M296 -55q-49 5 -88.5 33t-65.5 66q-20 28 -30.5 39t-26.5 10q-11 -2 -20.5 0.5t-14.5 9.5q-5 8 -0.5 21t14.5 23q18 18 31.5 27t38.5 18q24 8 41 -4.5t41 -47.5q22 -32 41.5 -54t38.5 -37v273l-59 36q-71 43 -106 91.5t-36.5 95t28.5 87.5t88 69q39 18 85 24q0 22 12 34
q9 9 23.5 22t34.5 28q13 10 25.5 4.5t12.5 -24.5v-67q50 -9 95 -30t77 -53q4 -4 4.5 -11t-4.5 -14q-11 -20 -25.5 -36.5t-40.5 -34.5q-16 -11 -27 10q-17 29 -37 51.5t-42 38.5v-242q34 -22 63.5 -40.5t39.5 -24.5q63 -41 84 -89.5t3 -99.5q-11 -32 -32.5 -61.5t-47.5 -54
t-55 -43t-55 -28.5v-4q0 -23 -12 -35q-9 -9 -23.5 -22t-34.5 -28q-13 -10 -25.5 -4.5t-12.5 24.5v54zM404 18q9 2 16.5 4.5t13.5 5.5q20 14 33 33t18 49q6 42 -11.5 74.5t-66.5 67.5q-1 0 -3 2v-236zM238 662q-24 -20 -30.5 -43.5t1.5 -48.5t30 -50t57 -49v210
q-36 0 -58 -19z" />
    <glyph glyph-name="percent" unicode="%" horiz-adv-x="920" 
d="M594 685q6 11 13.5 16.5t13.5 8.5q12 3 31.5 7t44.5 8q16 2 24.5 -8.5t-1.5 -28.5q-2 -4 -19 -35t-43.5 -79t-60 -108.5t-68.5 -123.5t-69 -124t-61 -110.5l-45 -82.5t-22 -40q-6 -11 -13.5 -16.5t-13.5 -8.5q-12 -3 -31.5 -7t-44.5 -8q-16 -2 -24 8.5t1 28.5zM72 621
q33 45 76.5 72.5t80.5 29.5t69 -21.5t55 -62.5q12 -23 17.5 -49t4 -53t-9 -53t-21.5 -48q-57 -89 -137 -116q-20 -7 -42 -4.5t-44 13t-41 28.5t-33 43q-14 26 -18 55.5t0 58.5t15 56.5t28 50.5zM252 585q-9 14 -22.5 24t-28 13t-29 -1t-26.5 -17q-11 -12 -15 -30t-3 -37.5
t7 -38t15 -32.5q11 -16 25.5 -26t29.5 -13t29 1t25 16q9 10 13 27.5t3 37t-7 39.5t-16 37zM592 259q33 45 76.5 72.5t80.5 29.5t69 -21.5t55 -62.5q12 -23 17.5 -49t4 -53t-9 -53t-21.5 -48q-57 -89 -137 -116q-20 -7 -42 -4.5t-44 13t-41 28.5t-33 43q-14 26 -18 55.5
t0 58.5t15 56.5t28 50.5zM772 223q-9 14 -22.5 24t-28 13t-29 -1t-26.5 -17q-11 -12 -15 -30t-3 -37.5t7 -38t15 -32.5q11 -16 25.5 -26t29.5 -13t29 1t25 16q9 10 13 27.5t3 37t-7 39.5t-16 37z" />
    <glyph glyph-name="ampersand" unicode="&#x26;" horiz-adv-x="750" 
d="M435 365q47 49 86 73.5t72.5 29t62.5 -10t55 -43.5q18 -20 22.5 -31.5t-0.5 -14.5q-4 -3 -14.5 4.5t-30.5 22.5q-21 15 -42 -2q-11 -9 -24.5 -21t-28.5 -26q31 -38 44 -83.5t8 -93t-27 -93t-61 -81.5q-30 -28 -71 -49t-86.5 -31.5t-94.5 -10t-95.5 15.5t-88 44.5
t-72.5 77.5q-29 43 -33 89t14.5 92.5t60.5 91.5t105 84l-5 4q-41 26 -71.5 62t-41.5 66q-10 30 -2 58.5t27 53t46 43.5t55 30q34 15 75.5 18.5t82 -6t75.5 -34.5t56 -68q4 -8 -8 -20q-11 -13 -32 -25.5t-39 -16.5q-8 -1 -10.5 2.5t-4.5 12.5q-8 40 -32 65.5t-52 38t-55 14.5
t-42 -5q-4 -2 -6 -2q-36 -17 -47 -43t3 -55q7 -17 23.5 -35t37.5 -35t45.5 -32t48.5 -25l6 -4q4 -2 5 -4v-6l-1 -1q-1 -3 -4 -6t-7 -5q-77 -39 -121.5 -77t-61 -76.5t-6 -78.5t43.5 -84q37 -49 82 -81.5t91.5 -45.5t92 -4.5t83.5 43.5q31 28 41.5 60t6.5 63.5t-20.5 61.5
t-38.5 54q-53 -47 -94.5 -56.5t-70.5 -2.5q-17 4 -29.5 11t-29.5 18q-13 10 -31.5 22.5t-31.5 23.5q-11 8 -15 15t2 12q5 5 13.5 2t17.5 -9q22 -14 43 -19t43.5 1t47.5 24t55 49z" />
    <glyph glyph-name="quotesingle" unicode="'" horiz-adv-x="278" 
d="M164 763q4 -4 12.5 -10t17.5 -12.5t18 -12.5l15 -10q16 -10 15 -25q-1 -11 -20 -22q-14 -8 -28.5 -21t-23.5 -24q-11 -13 -4 -31t37 -44q5 -5 7.5 -10.5t-0.5 -10.5q-5 -8 -11.5 -7.5t-14.5 6.5q-10 8 -28 24t-36.5 34t-35.5 36.5t-25 30.5q-11 17 -7 29.5t18 27.5
q11 12 26.5 27.5t26.5 24.5q11 8 20.5 8.5t20.5 -8.5z" />
    <glyph glyph-name="parenleft" unicode="(" horiz-adv-x="400" 
d="M386 -54q-13 -18 -31.5 -43.5t-35.5 -47.5q-10 -14 -22 -16.5t-24 10.5q-36 37 -68.5 76t-59.5 83t-48 93t-33 106q-8 33 -0.5 93t39.5 129q16 35 39.5 77.5t54 87t68.5 87.5t84 80q5 4 12.5 4.5t12.5 -4.5t3.5 -12t-7.5 -14q-82 -83 -129.5 -159.5t-74.5 -159.5
q-22 -65 -3 -129q14 -47 37.5 -88.5t53 -78t63 -68t67.5 -58.5q13 -10 13.5 -20.5t-11.5 -27.5z" />
    <glyph glyph-name="parenright" unicode=")" horiz-adv-x="400" 
d="M23 654q13 18 31.5 43.5t35.5 47.5q10 14 22 16.5t24 -10.5q72 -74 124.5 -159t77.5 -185q8 -33 2.5 -88t-37.5 -124q-16 -35 -41 -81.5t-57 -95t-71.5 -95.5t-85.5 -84q-5 -4 -12.5 -4.5t-12.5 4.5t-3.5 12t7.5 14q82 84 131 164.5t82 163.5q13 31 12.5 64t-10.5 64
q-15 47 -38 87.5t-51.5 75t-61 65t-66.5 57.5q-13 10 -13.5 20.5t11.5 27.5z" />
    <glyph glyph-name="asterisk" unicode="*" horiz-adv-x="500" 
d="M291 695q5 10 14 17.5t18 3.5q9 -5 24.5 -9.5t30.5 -6.5q11 -2 3 -18l-58 -103h76q14 0 21 -2.5t10 -12.5q5 -14 11 -30t14 -30q3 -5 -2 -8.5t-15 -2.5q-4 0 -36.5 0.5t-77.5 0.5l39 -64q7 -11 8.5 -18.5t-5.5 -15.5q-10 -11 -20.5 -24.5t-18.5 -27.5q-2 -5 -7.5 -2.5
t-10.5 11.5l-58 98l-38 -68q-7 -12 -12.5 -17t-15.5 -3q-15 3 -32 5.5t-33 2.5q-5 -1 -5.5 5.5t4.5 14.5q1 1 6 9.5t13 23t18.5 32.5t22.5 39q-38 1 -63.5 1h-27.5q-11 0 -21.5 3.5t-11.5 14.5q-1 10 -4 26t-9 30q-4 11 14 11l119 -1l-43 74q-6 9 -8 20.5t6 17.5q8 5 20 16
t21 24q8 8 17 -7l61 -104q18 31 29.5 51.5t12.5 22.5z" />
    <glyph glyph-name="plus" unicode="+" horiz-adv-x="600" 
d="M258 334h-185q-9 0 -15 3t-6 8t8 10.5t16 10.5t20 15t23 20q19 18 61 18h78v112q0 23 12 35q9 9 23.5 22t34.5 28q13 10 25.5 4.5t12.5 -24.5v-177h167q20 0 20 -10q0 -9 -19 -21q-14 -9 -26.5 -19t-23.5 -21q-14 -14 -50 -14h-68v-139q0 -23 -12 -35q-9 -9 -23.5 -22
t-34.5 -28q-13 -10 -25.5 -4.5t-12.5 24.5v204z" />
    <glyph glyph-name="comma" unicode="," horiz-adv-x="300" 
d="M169 96q4 -4 13.5 -11.5t20 -15l21 -15t16.5 -11.5q17 -10 13 -39q-3 -20 -12 -40t-27 -42.5t-45.5 -47.5t-66.5 -56q-7 -5 -15.5 -7t-13.5 3q-5 4 -3 11.5t10 13.5q29 22 46.5 40t19.5 32q2 12 -2.5 22.5t-14.5 17.5l-69 49q-16 11 -13 27q0 8 7.5 12.5t13.5 8.5
q14 9 32 23t28 25q18 18 41 0z" />
    <glyph glyph-name="hyphen" unicode="-" horiz-adv-x="450" 
d="M383 290q20 0 20 -10q0 -9 -19 -21q-14 -9 -26.5 -19t-23.5 -21q-14 -14 -50 -14h-216q-9 0 -15 3t-6 8t8 10.5t16 10.5t20 15t23 20q19 18 61 18h208z" />
    <glyph glyph-name="period" unicode="." horiz-adv-x="300" 
d="M173 102q4 -4 12.5 -10t17.5 -12.5t18 -12.5l15 -10q14 -9 13 -25q-1 -6 -5 -10.5t-13 -11.5q-6 -4 -14.5 -11t-18 -14.5t-18 -15t-13.5 -12.5q-6 -7 -16.5 -6.5t-23.5 9.5l-63 46q-16 10 -13 27q0 8 7.5 12.5t13.5 8.5q14 9 32 23t28 25q18 18 41 0z" />
    <glyph glyph-name="slash" unicode="/" horiz-adv-x="450" 
d="M279 688q4 12 10 19t12 11q11 6 29.5 14t41.5 16q15 5 25 -3.5t5 -27.5l-231 -735q-4 -12 -10 -19t-12 -11q-11 -6 -29.5 -14t-41.5 -16q-15 -5 -25 3.5t-5 27.5z" />
    <glyph glyph-name="zero" unicode="0" horiz-adv-x="556" 
d="M85 403q25 34 55 61.5t61 48t62 31.5t59 12q56 2 104 -32.5t81 -93.5q19 -34 27.5 -73.5t6.5 -80t-14 -79.5t-33 -72q-43 -67 -94.5 -110t-111.5 -64q-30 -10 -63 -6.5t-65.5 19t-61 43t-49.5 65.5q-21 39 -27.5 82.5t-0.5 87.5t22.5 85.5t41.5 75.5zM389 384
q-20 30 -48.5 51t-59.5 28.5t-62 -0.5t-56 -36q-23 -26 -32.5 -64t-7 -80t14.5 -82.5t32 -69.5q24 -35 56 -54.5t65.5 -25t63.5 3t50 30.5q19 21 27.5 57t6.5 78t-14.5 85t-35.5 79z" />
    <glyph glyph-name="one" unicode="1" horiz-adv-x="556" 
d="M320 549q18 13 29 7.5t11 -30.5v-431q0 -23 -12 -35t-33 -30h116q20 0 20 -10q0 -9 -19 -21q-14 -9 -26.5 -19t-23.5 -21q-14 -14 -50 -14h-185q-9 0 -15 3t-6 8t8 10.5t16 10.5t20 15t23 20q17 16 46 17v385q0 13 -7 14q-2 0 -4.5 -0.5t-8.5 -4.5t-16 -11t-27 -19
q-9 -7 -19.5 -6.5t-15.5 7.5q-6 8 -2.5 18t14.5 18z" />
    <glyph glyph-name="two" unicode="2" horiz-adv-x="556" 
d="M100 425q-8 -8 -19 -7t-16 8q-6 8 -3 17t13 19q26 27 54 50t70 38q20 7 45.5 9t54 -2.5t57 -16.5t54.5 -34q46 -38 62 -87t-14 -111q-16 -33 -42 -68t-58.5 -70t-69.5 -68t-75 -60q-5 -4 -9.5 -7.5t-9.5 -5.5h293q20 0 20 -10q0 -9 -19 -21q-14 -9 -26.5 -19t-23.5 -21
q-14 -14 -50 -14h-310q-9 0 -15 3t-6 8t8 10.5t16 10.5t20 15t23 20l7 6q3 5 11.5 12t16.5 15q19 19 42 44t45.5 52.5t43.5 58t38 61.5q23 43 17 83t-39 72q-9 9 -23 18t-32 16t-38 10.5t-41 0.5q-23 -3 -41.5 -13.5t-30.5 -21.5z" />
    <glyph glyph-name="three" unicode="3" horiz-adv-x="556" 
d="M89 184q21 9 41 17t41 16.5t44 18t50 22.5q30 14 48 33.5t23.5 41t-2.5 45t-32 46.5q-64 62 -134 43q-28 -8 -44 -18.5t-27 -20.5q-8 -7 -17.5 -6t-14.5 7q-6 7 -3 16.5t12 18.5q24 25 51 44t65 35q17 7 42.5 11.5t55 2.5t61 -13t61.5 -34q24 -18 36 -41.5t13.5 -49.5
t-7.5 -53t-28 -52q-19 -24 -39 -40.5t-47 -27.5q23 -4 49.5 -14t54.5 -33q35 -29 45 -77t-13 -102q-22 -50 -56.5 -87t-80 -63.5t-100.5 -44.5t-117 -29q-32 -6 -35 7q-2 5 4 9.5t23 9.5q42 13 75.5 28.5t60.5 34t48 41t38 49.5q28 44 22.5 82.5t-33.5 67.5q-34 35 -69 45
t-75 0q-28 -8 -46 -14t-32 -13q-9 -5 -18.5 -1.5t-12.5 11.5t2 17t17 14z" />
    <glyph glyph-name="four" unicode="4" horiz-adv-x="556" 
d="M381 538q7 10 15.5 14.5t16 3t12.5 -8.5t5 -19v-427h91q20 0 20 -10q0 -9 -19 -21q-14 -9 -26.5 -19t-23.5 -21q-12 -12 -42 -14v-66q0 -23 -12 -35q-5 -5 -13.5 -13t-19.5 -17h96q20 0 20 -10q0 -9 -19 -21q-14 -9 -26.5 -19t-23.5 -21q-14 -14 -50 -14h-165q-9 0 -15 3
t-6 8t8 10.5t16 10.5t20 15t23 20q15 15 46 18v131h-276q-19 0 -21 9q-5 8 -0.5 16t12.5 19zM309 101v235q0 8 -5 10.5t-11 -6.5l-191 -248q18 9 49 9h158z" />
    <glyph glyph-name="five" unicode="5" horiz-adv-x="556" 
d="M205 557h248q20 0 20 -10q0 -9 -19 -21q-14 -9 -26.5 -19t-23.5 -21q-14 -14 -50 -14h-137q-2 -20 -5 -44.5t-6 -48t-5.5 -44.5t-4.5 -34q21 7 44 11t50 6q45 2 85.5 -14t69.5 -45q36 -35 47.5 -86t-9.5 -118q-14 -45 -46 -85t-78.5 -73t-106.5 -58t-131 -40
q-33 -7 -36 9q-2 7 4.5 12.5t23.5 10.5q100 26 160.5 71.5t89.5 114.5q17 39 13 80t-27 72q-17 22 -37.5 34.5t-43.5 18.5t-46 5.5t-44 -4.5q-29 -5 -47.5 -14t-31.5 -18q-9 -7 -19 -2t-13 14q-1 2 -1 6q-1 4 0 10l31 254q-8 1 -14.5 3.5t-6.5 6.5q0 5 8 10.5t16 10.5t20 15
t23 20q19 18 61 18h1z" />
    <glyph glyph-name="six" unicode="6" horiz-adv-x="556" 
d="M286 -55q-112 5 -172.5 83.5t-64.5 211.5q-3 100 28 175.5t83 129.5t119.5 86.5t139.5 47.5q8 2 16.5 0.5t10.5 -9.5q2 -7 -3 -13t-22 -13q-57 -23 -99 -47t-71.5 -54t-47 -68.5t-26.5 -92.5q48 17 102 17.5t101.5 -17t82.5 -54t46 -93.5q11 -60 -3 -113.5t-46 -93
t-77.5 -62.5t-96.5 -21zM388 212q-6 39 -26.5 68t-49.5 46.5t-65.5 22t-74.5 -6.5q-7 -80 2.5 -142.5t31 -107.5t53 -71t67.5 -32q22 14 36.5 39.5t22 56.5t8 64.5t-4.5 62.5z" />
    <glyph glyph-name="seven" unicode="7" horiz-adv-x="556" 
d="M315 -99q0 -24 -12 -36q-9 -8 -26.5 -25t-37.5 -32q-12 -10 -24.5 -4.5t-13.5 23.5l-1 188q0 47 7 94t19 90t28 80.5t34 66.5q20 31 44.5 65.5t46.5 60.5h-312q-9 0 -15 3t-6 8t8 10.5t16 10.5t20 15t23 20q19 18 61 18h327q20 0 20 -10q0 -9 -19 -21q-14 -9 -26.5 -19
t-23.5 -21q-5 -5 -12 -8q-5 -8 -23.5 -42t-37.5 -83q-27 -69 -46.5 -160.5t-18.5 -202.5z" />
    <glyph glyph-name="eight" unicode="8" horiz-adv-x="556" 
d="M266 -55q-50 0 -94 17t-76.5 46t-51.5 68t-19 83q0 63 36.5 114t96.5 78q-57 43 -84.5 82.5t-25.5 84.5q1 32 20 59.5t47.5 48t63 33t67.5 15.5q46 4 90 -6t78.5 -31t55.5 -52.5t21 -70.5q0 -26 -10 -49.5t-28 -43.5t-42 -36t-52 -25l84 -53q57 -38 73 -81t0 -100
q-8 -27 -28 -58.5t-52 -58.5t-75 -45.5t-95 -18.5zM226 304q-8 5 -14 9t-13 9q-29 -37 -38 -78.5t-4 -89.5q3 -33 17.5 -61.5t36.5 -50t49 -35t56 -16.5q37 11 62 34.5t34 56.5q4 16 5 35t-6 38.5t-23 38.5t-45 37zM324 382q29 30 46 68.5t12 79.5q-3 24 -13.5 46t-28 38
t-41 24t-52.5 4q-18 -2 -33 -11.5t-25.5 -23.5t-15.5 -32.5t-2 -38.5q5 -36 35.5 -65.5t89.5 -69.5z" />
    <glyph glyph-name="nine" unicode="9" horiz-adv-x="556" 
d="M294 566q60 0 106 -31.5t74 -86.5t36 -128t-7 -157q-15 -82 -49 -144.5t-84 -107.5t-113 -72.5t-135 -38.5q-9 -1 -17 1t-10 10q-5 14 26 24q58 20 101.5 47.5t74 63.5t50.5 80.5t32 98.5q-40 -37 -87 -48.5t-91.5 0.5t-82 47.5t-58.5 93.5q-15 43 -13 86t16.5 81.5
t39.5 71.5t56 57.5t66 38t69 13.5zM175 250q13 -37 38.5 -62t56 -35t61.5 -4t55 32q14 155 -31 237t-133 90q-21 -20 -35 -50.5t-20.5 -66t-5 -72t13.5 -69.5z" />
    <glyph glyph-name="colon" unicode=":" horiz-adv-x="278" 
d="M161 601q4 -4 12.5 -10t17.5 -12.5t18 -12.5l15 -10q14 -9 13 -25q-1 -6 -5 -10.5t-13 -11.5q-6 -4 -14.5 -11t-18 -14.5t-18 -15t-13.5 -12.5q-6 -7 -16.5 -6.5t-23.5 9.5l-63 46q-16 10 -13 27q0 8 7.5 12.5t13.5 8.5q14 9 32 23t28 25q18 18 41 0zM161 136
q4 -4 12.5 -10t17.5 -12.5t18 -12.5l15 -10q14 -9 13 -25q-1 -6 -5 -10.5t-13 -11.5q-6 -4 -14.5 -11t-18 -14.5t-18 -15t-13.5 -12.5q-6 -7 -16.5 -6.5t-23.5 9.5l-63 46q-16 10 -13 27q0 8 7.5 12.5t13.5 8.5q14 9 32 23t28 25q18 18 41 0z" />
    <glyph glyph-name="semicolon" unicode=";" horiz-adv-x="278" 
d="M164 601q4 -4 12.5 -10t17.5 -12.5t18 -12.5l15 -10q14 -9 13 -25q-1 -6 -5 -10.5t-13 -11.5q-6 -4 -14.5 -11t-18 -14.5t-18 -15t-13.5 -12.5q-6 -7 -16.5 -6.5t-23.5 9.5l-63 46q-16 10 -13 27q0 8 7.5 12.5t13.5 8.5q14 9 32 23t28 25q18 18 41 0zM164 145
q4 -4 12.5 -10t17.5 -12.5t18 -12.5l15 -10q17 -10 13 -39q-6 -41 -39.5 -87t-99.5 -89q-5 -4 -14.5 -6t-15.5 3q-5 5 -6 12.5t7 12.5q3 2 12 6.5t18.5 12t18 18t10.5 24.5q4 27 -15 40l-61 41q-16 11 -13 27q0 8 7.5 12.5t13.5 8.5q14 9 32 23t28 25q18 18 41 0z" />
    <glyph glyph-name="less" unicode="&#x3c;" horiz-adv-x="540" 
d="M415 30q-18 -25 -46 -6q-40 28 -80 61.5t-76 69.5t-66.5 72t-52.5 69q-16 25 -4 44q6 9 16 22t20.5 26t20.5 26t18 22q22 28 52.5 61.5t63.5 66.5t65.5 61t57.5 44l5 3q9 3 12 -3q3 -9 -10 -18q-61 -43 -116.5 -105t-110.5 -138q-7 -8 0 -19q20 -35 48 -68.5t59.5 -62.5
t65 -53.5t65.5 -42.5q14 -8 25 -6t23 18q8 11 18 14.5t17 -1.5q11 -8 9.5 -19t-9.5 -22zM476 679q5 -4 5.5 -8t-2.5 -12q-7 -16 -24 -37t-37 -38q-6 -5 -14 -6t-13 7q-5 7 -9.5 13t-10.5 7.5t-14.5 -2t-20.5 -14.5q-6 -6 -10.5 -8.5t-10.5 1.5q-6 6 -4 9t7 8q48 48 86 70
l2 2q1 1 3 1q43 25 67 7z" />
    <glyph glyph-name="equal" unicode="=" horiz-adv-x="540" 
d="M463 527q20 0 20 -10q0 -9 -19 -21q-14 -9 -26.5 -19t-23.5 -21q-14 -14 -50 -14h-276q-9 0 -15 3t-6 8t8 10.5t16 10.5t20 15t23 20q19 18 61 18h268zM463 279q20 0 20 -10q0 -9 -19 -21q-14 -9 -26.5 -19t-23.5 -21q-14 -14 -50 -14h-276q-9 0 -15 3t-6 8t8 10.5
t16 10.5t20 15t23 20q19 18 61 18h268z" />
    <glyph glyph-name="greater" unicode="&#x3e;" horiz-adv-x="540" 
d="M42 33q-5 4 -5.5 8t2.5 12q7 16 24 37t37 38q6 5 14 6t13 -7q4 -7 9 -13t11 -7.5t14.5 2t20.5 14.5q6 6 11 9t10 -2q7 -5 4.5 -8.5t-7.5 -8.5q-15 -15 -28.5 -27.5t-27.5 -22.5q-6 -4 -14.5 -10t-17.5 -10.5t-16 -7t-8 0.5q-3 5 1.5 10t12.5 10q61 43 118 105.5
t116 136.5q4 5 4.5 11.5t-1.5 11.5q-18 36 -44.5 71t-56.5 66.5t-63 57.5t-64 44q-14 8 -23 8t-17 -10q-8 -11 -18 -14.5t-17 1.5q-11 8 -9.5 19t9.5 22l82 106q18 25 46 6q40 -28 80 -61.5t76 -69.5t66.5 -72t52.5 -69q16 -25 4 -44q-14 -20 -36 -47t-48 -57t-55 -61
t-56.5 -59t-52.5 -51.5t-44 -38.5l-7 -5q-32 -26 -58.5 -35t-43.5 5z" />
    <glyph glyph-name="question" unicode="?" horiz-adv-x="500" 
d="M222 351q6 5 23.5 17.5t36.5 25.5l1 1l2 1q17 12 28 7.5t12 -27.5l-17 -10q-18 -10 -32 -14.5t-21 1.5q-12 10 11 28q4 3 7.5 6.5t8.5 6.5l1 1q28 24 47 55t24 71q8 58 -26.5 100t-106.5 49q-54 5 -98 -14q-9 -14 -14.5 -33.5t-3 -40.5t14.5 -40t38 -31q14 -7 8 -18
q-5 -8 -12.5 -18t-16.5 -19.5t-18 -17.5t-16 -12q-6 -4 -13 -4t-11 5q-24 24 -34.5 50.5t-11 54.5t8.5 54.5t24 50.5q1 4 6 10l3 3l11 14q24 29 52.5 44.5t57 22t54.5 5t46 -5.5q48 -11 81.5 -33t52.5 -50.5t23.5 -61t-4.5 -63.5q-8 -27 -22.5 -50t-31.5 -41t-35.5 -32
t-34.5 -23v-3v-123q0 -23 -12 -35q-9 -9 -30 -27.5t-41 -33.5q-13 -10 -25.5 -4.5t-12.5 24.5v145q0 10 3.5 17t14.5 15zM282 90q4 -4 12.5 -10t17.5 -12.5t18 -12.5l15 -10q14 -9 13 -25q-1 -6 -5 -10.5t-13 -11.5q-6 -4 -14.5 -11t-18 -14.5t-18 -15t-13.5 -12.5
q-6 -7 -16.5 -6.5t-23.5 9.5l-63 46q-16 10 -13 27q0 8 7.5 12.5t13.5 8.5q14 9 32 23t28 25q18 18 41 0z" />
    <glyph glyph-name="at" unicode="@" horiz-adv-x="800" 
d="M689 278q10 41 12 85.5t-5 88t-24.5 84.5t-46.5 75q-38 44 -90 71.5t-108.5 33.5t-113.5 -13t-104 -67q-25 -26 -43.5 -66t-28 -87.5t-8 -99.5t16 -102.5t43 -96.5t74.5 -81q57 -44 122 -59.5t127.5 -9t118 32t93.5 62.5q26 25 35.5 33.5t14.5 5.5q3 -2 3 -6.5t-7 -15.5
q-48 -76 -117.5 -123.5t-146.5 -64.5t-157 -2t-149 65q-69 49 -105.5 119t-43.5 147.5t15.5 155.5t71.5 144q35 47 77 86t86 67t87.5 44t82.5 18q78 2 146 -44.5t119 -125.5q27 -41 40.5 -87t15 -93.5t-9 -94t-31.5 -87.5q-20 -39 -52 -66.5t-65.5 -44t-62.5 -21.5t-42 0
q-30 11 -39 58q-20 -24 -46 -39t-63 -17q-27 -2 -55 6t-50.5 26.5t-37 47.5t-14.5 71q0 40 19 70t52.5 49.5t80.5 29t103 8.5h8q-2 29 -11.5 55.5t-34.5 41.5q-26 15 -53 18t-54 -5q-20 -7 -36.5 -16.5t-26.5 -18.5q-8 -7 -16 -6t-13 7q-8 11 8 31q20 23 44 40.5t59 29.5
q27 8 65 9t75 -15q44 -19 72.5 -58.5t28.5 -96.5v-149q0 -66 12.5 -94t29.5 -27q16 1 30 24.5t23 59.5zM433 365q-51 1 -80.5 -16.5t-31.5 -47.5q-3 -44 20.5 -63.5t58.5 -21.5q21 -2 45.5 5t41.5 21v172l-11 -10q-14 -14 -22 -26.5t-21 -12.5z" />
    <glyph glyph-name="A" unicode="A" horiz-adv-x="750" 
d="M471 309q-26 -17 -47 -38q-14 -14 -50 -14h-164l-82 -247q-3 -9 -7 -15t-12 -11q-11 -7 -28.5 -17t-36.5 -20q-6 -3 -9 1.5t-1 11.5q1 5 12 37t27.5 81.5t38 112.5t44.5 131t46 135.5t43 126t35 103.5t23 67q-4 3 -8.5 4t-9.5 1q-39 0 -39 19q-1 10 8 16t23 6h102
q23 0 40 -11t26 -36l268 -723q9 -25 -5 -38q-4 -4 -12.5 -10.5t-17.5 -13t-18 -12.5t-15 -9q-12 -5 -25.5 -1.5t-21.5 23.5zM459 342q-33 89 -63.5 171.5t-51.5 141.5l-110 -328q8 8 17 11.5t14 3.5h194z" />
    <glyph glyph-name="B" unicode="B" horiz-adv-x="700" 
d="M185 792q18 13 29 7.5t11 -30.5v-44q22 20 41.5 33.5t39.5 21t41.5 9.5t47.5 0q49 -4 92 -23t72 -49.5t42 -71t4 -87.5q-9 -44 -38.5 -81t-76.5 -64q47 -12 81 -36t55 -55.5t28.5 -68.5t2.5 -76t-26.5 -77t-55 -69t-75.5 -53.5t-88 -31.5t-94 -2.5t-93 32.5
q-18 11 -29 20q-11 -11 -25.5 -23t-28.5 -23q-13 -10 -25.5 -4.5t-12.5 24.5v687q0 12 -7 14q-6 2 -20 -8q-9 -7 -19 -7t-15 7q-6 8 -2.5 18t14.5 18zM225 44l22 -9q54 -24 103.5 -22t88.5 21.5t64.5 53t31.5 73.5t-5.5 74t-36 59.5t-60 40t-77.5 16.5q-32 1 -68.5 -3
t-62.5 -18v-284v-2zM347 716q-35 5 -66.5 -1t-55.5 -26v-280q52 2 98 15.5t80.5 35.5t56 50.5t25.5 61.5q7 58 -30.5 96.5t-107.5 47.5z" />
    <glyph glyph-name="C" unicode="C" horiz-adv-x="800" 
d="M680 718q11 -9 8 -27q-1 -12 -5 -25.5t-11 -27t-15 -25.5t-16 -20q-19 -16 -31 2q-38 57 -82.5 81t-95.5 25q-35 0 -69 -5t-66 -21q-33 -51 -51.5 -118.5t-26.5 -151.5q-7 -78 12.5 -144t56 -113.5t85.5 -74.5t101 -27q37 0 68.5 10t58 25.5t46.5 34.5t34 37
q16 20 24 25.5t14 1.5q7 -5 4 -20t-20 -47q-26 -52 -59.5 -86.5t-70 -54.5t-74 -27.5t-71.5 -5.5q-70 4 -135.5 37t-114 91t-73.5 138.5t-14 179.5q5 43 16 88t27.5 87t39 78.5t49.5 63.5q32 35 75 61t94 36q35 6 73.5 4.5t77 -12t73.5 -28.5t64 -45z" />
    <glyph glyph-name="D" unicode="D" horiz-adv-x="800" 
d="M206 792q18 13 29 7.5t11 -30.5v-62q21 21 48 35.5t56.5 23t59.5 10.5t59 -1q57 -7 108 -37.5t88.5 -81t57.5 -118.5t14 -150q-5 -76 -27.5 -142.5t-58 -120.5t-82 -93.5t-100.5 -61.5q-18 -11 -39 -18.5t-46 -9.5q-17 -1 -38.5 1.5t-45 8.5t-47 15t-44.5 21l-46 -38
q-13 -10 -25.5 -4.5t-12.5 24.5v687q0 12 -7 14q-6 2 -20 -8q-9 -7 -19 -7t-15 7q-6 8 -2.5 18t14.5 18zM393 694q-41 3 -81 -6t-66 -29v-553q8 -16 23 -29t33.5 -22.5t38.5 -16t38 -9.5q26 -5 53 -1t52 14q34 30 58.5 68.5t40.5 80.5t24 85.5t11 84.5q5 81 -11 141.5
t-47.5 102t-74.5 63.5t-92 26z" />
    <glyph glyph-name="E" unicode="E" horiz-adv-x="650" 
d="M584 52q20 0 20 -10q0 -9 -19 -21q-14 -9 -26.5 -19t-23.5 -21q-14 -14 -50 -14h-316q-5 -5 -10.5 -9t-10.5 -8q-13 -10 -25.5 -4.5t-12.5 24.5v687q0 12 -7 14q-6 2 -20 -8q-9 -7 -19 -7t-15 7q-6 8 -2.5 18t14.5 18l130 93q18 13 29 7.5t11 -30.5v-23l19 17
q11 10 35 14t46 4h248q20 0 20 -10q0 -9 -19 -21q-14 -9 -26.5 -19t-23.5 -21q-14 -14 -50 -14h-249v-296l19 17q11 10 35 14t46 4h231q20 0 20 -10q0 -9 -19 -21q-14 -9 -26.5 -19t-23.5 -21q-14 -14 -50 -14h-232v-299q5 0 9.5 0.5t10.5 0.5h333z" />
    <glyph glyph-name="F" unicode="F" horiz-adv-x="630" 
d="M536 435q20 0 20 -10q0 -9 -19 -21q-14 -9 -26.5 -19t-23.5 -21q-14 -14 -50 -14h-203v-304q0 -23 -12 -35q-9 -9 -30 -27.5t-41 -33.5q-13 -10 -25.5 -4.5t-12.5 24.5v687q0 12 -7 14q-6 2 -20 -8q-9 -7 -19 -7t-15 7q-6 8 -2.5 18t14.5 18l130 93q18 13 29 7.5
t11 -30.5v-23l19 17q19 18 61 18h268q20 0 20 -10q0 -9 -19 -21q-14 -9 -26.5 -19t-23.5 -21q-14 -14 -50 -14h-249v-296l19 17q19 18 61 18h222z" />
    <glyph glyph-name="G" unicode="G" horiz-adv-x="750" 
d="M639 718q11 -9 8 -27q-1 -12 -5 -25.5t-11 -27t-15 -25.5t-16 -20q-19 -16 -31 2q-38 57 -82.5 81t-95.5 25q-42 0 -80.5 -7.5t-75.5 -30.5q-37 -51 -61 -125t-22 -167q1 -76 20 -133t49.5 -95t70 -59t81.5 -25q40 -4 75.5 8t61.5 37v171q0 16 4.5 27.5t15.5 19.5
q2 2 7 4.5t11 7.5h-197q-9 0 -15 3t-6 8t8 10.5t16 10.5t20 15t23 20q19 18 61 18h241q20 0 20 -10q0 -9 -19 -21q-14 -9 -26.5 -19t-23.5 -21q-6 -6 -19 -11v-294q0 -23 -12 -35q-9 -9 -30 -27.5t-41 -33.5q-13 -10 -25.5 -4.5t-12.5 24.5v57q-41 -47 -87.5 -61.5
t-95.5 -10.5q-57 4 -114 34.5t-100.5 84.5t-66 131t-11.5 176q5 44 18 90t32 89t43.5 80.5t53.5 64.5q32 35 75 61t94 36q35 6 73.5 4.5t77 -12t73.5 -28.5t64 -45z" />
    <glyph glyph-name="H" unicode="H" horiz-adv-x="722" 
d="M628 792q18 13 29 7.5t11 -30.5v-723q0 -23 -12 -35q-9 -9 -30 -27.5t-41 -33.5q-13 -10 -25.5 -4.5t-12.5 24.5v426q-14 -8 -26 -18t-22 -20q-14 -14 -50 -14h-225v-293q0 -23 -12 -35q-9 -9 -30 -27.5t-41 -33.5q-13 -10 -25.5 -4.5t-12.5 24.5v672q0 12 -7 14
q-6 2 -20 -8q-9 -7 -19 -7t-15 7q-6 8 -2.5 18t14.5 18l130 93q18 13 29 7.5t11 -30.5v-368l22 20q19 18 61 18h240v228q0 12 -7 14q-6 2 -20 -8q-9 -7 -19 -7t-15 7q-6 8 -2.5 18t14.5 18z" />
    <glyph glyph-name="I" unicode="I" horiz-adv-x="400" 
d="M233 792q18 13 29 7.5t11 -30.5v-723q0 -23 -12 -35q-9 -9 -30 -27.5t-41 -33.5q-13 -10 -25.5 -4.5t-12.5 24.5v687q0 12 -7 14q-6 2 -20 -8q-9 -7 -19 -7t-15 7q-6 8 -2.5 18t14.5 18z" />
    <glyph glyph-name="J" unicode="J" horiz-adv-x="389" 
d="M274 211q0 -72 -23 -121.5t-63 -81.5q-35 -28 -73.5 -51t-64.5 -36q-11 -6 -22.5 -9t-17.5 4q-5 5 -1.5 14t11.5 15q34 25 61 50.5t41 48.5q7 11 12.5 24t9.5 32t6.5 45.5t2.5 64.5v446q0 12 -7 14q-6 2 -20 -8q-9 -7 -19 -7t-15 7q-6 8 -2.5 18t14.5 18l130 93
q18 13 29 7.5t11 -30.5v-557z" />
    <glyph glyph-name="K" unicode="K" horiz-adv-x="750" 
d="M638 781q6 -11 9 -21.5t0 -23.5t-12.5 -28.5t-28.5 -36.5q-6 -7 -16 -17t-36 -35t-73.5 -70t-129.5 -122q13 -18 33.5 -45.5t43 -58t45.5 -61t41.5 -56t31 -42t14.5 -18.5q24 -33 43 -51.5t34 -26.5t27.5 -7t24.5 8q16 9 19 -1q3 -9 -5 -32q-13 -37 -30 -60t-44 -28
q-26 -5 -52 10t-55 54q-3 4 -20 26.5t-41.5 55.5t-53 71.5t-55.5 74.5t-49 65.5t-33 44.5l-30 -28v-276q0 -23 -12 -35q-9 -9 -30 -27.5t-41 -33.5q-13 -10 -25.5 -4.5t-12.5 24.5v687q0 12 -7 14q-6 2 -20 -8q-9 -7 -19 -7t-15 7q-6 8 -2.5 18t14.5 18l130 93q18 13 29 7.5
t11 -30.5v-378q37 32 78 68.5t78 69.5t65 59t39 37q14 14 17 36t-10 36q-9 9 -2 16q10 10 24.5 21.5t30.5 22.5t32.5 19.5t29.5 13.5q9 3 16 -9z" />
    <glyph glyph-name="L" unicode="L" horiz-adv-x="650" 
d="M174 792q18 13 29 7.5t11 -30.5v-686q43 -24 99 -32t105 -3q42 4 85 19t70 40q7 7 13.5 11t13.5 1q7 -4 7.5 -13t-4.5 -19q-27 -51 -68 -85t-93 -46q-33 -7 -69 -9t-73 0.5t-72 9.5t-65 18l-32 -26q-13 -10 -25.5 -4.5t-12.5 24.5v688q0 12 -7 14q-6 2 -20 -8
q-9 -7 -19 -7t-15 7q-6 8 -2.5 18t14.5 18z" />
    <glyph glyph-name="M" unicode="M" horiz-adv-x="904" 
d="M807 797q18 13 29 7.5t11 -30.5v-729q0 -23 -12 -35q-9 -9 -30 -27.5t-41 -33.5q-13 -10 -25.5 -4.5t-12.5 24.5v666l-199 -581q-7 -17 -13 -23q0 -1 -1 -2l-2 -2l-1 -1q-15 -14 -31.5 -26.5t-33.5 -27.5q-13 -11 -22 -11.5t-17 18.5l-192 456v-390q0 -23 -12 -35
q-9 -9 -30 -27.5t-41 -33.5q-13 -10 -25.5 -4.5t-12.5 24.5v688q0 12 -7 14q-6 2 -20 -8q-9 -7 -19 -7t-15 7q-6 8 -2.5 18t14.5 18l130 93q27 19 36 -2l3 -5l263 -633l178 518q5 17 15 27l8 7z" />
    <glyph glyph-name="N" unicode="N" horiz-adv-x="800" 
d="M690 792q18 13 29 7.5t11 -30.5v-724q0 -23 -12 -35q-9 -9 -30 -27.5t-41 -33.5q-13 -10 -25.5 -4.5t-12.5 24.5v13q-3 4 -23 35t-51 79t-70 108t-79 123t-79.5 124t-70.5 110v-516q0 -23 -12 -35q-9 -9 -30 -27.5t-41 -33.5q-13 -10 -25.5 -4.5t-12.5 24.5v688
q0 12 -7 14q-6 2 -20 -8q-9 -7 -19 -7t-15 7q-6 8 -2.5 18t14.5 18l130 93q24 18 34 2l2 -2q2 -4 21.5 -34t50.5 -77.5t69.5 -108t79.5 -125t81.5 -128t74.5 -116.5v454q0 12 -7 14q-6 2 -20 -8q-9 -7 -19 -7t-15 7q-6 8 -2.5 18t14.5 18z" />
    <glyph glyph-name="O" unicode="O" horiz-adv-x="778" 
d="M120 586q35 47 77 86t86 67.5t87.5 44.5t82.5 17q78 3 145 -46t114 -131q27 -47 38.5 -102.5t9 -112.5t-19 -112t-46.5 -101q-60 -94 -132 -154.5t-157 -89.5q-42 -14 -88.5 -9.5t-91.5 27t-85.5 61t-69.5 91.5q-30 54 -39 115.5t-1 123t31.5 120t58.5 105.5zM575 585
q-31 41 -76 65.5t-94.5 29.5t-99 -12t-91.5 -60q-22 -23 -36 -58t-20 -76t-5 -85.5t9 -86.5t22.5 -79t34.5 -63q36 -46 84.5 -65.5t99 -17t97 23.5t78.5 55q29 31 46 84t18 113.5t-15 122t-52 109.5z" />
    <glyph glyph-name="P" unicode="P" horiz-adv-x="700" 
d="M194 792q18 13 29 7.5t11 -30.5v-36q27 24 61 37.5t67 19t62.5 4.5t49.5 -5q48 -11 87 -36t64.5 -61t35 -79.5t-1.5 -91.5q-9 -41 -31.5 -77.5t-51.5 -68.5l-2 -2l-32 -31q-29 -27 -60.5 -46.5t-75.5 -22.5q-15 -1 -35 0.5t-43 5.5t-47.5 10.5t-46.5 15.5v-260
q0 -23 -12 -35q-9 -9 -30 -27.5t-41 -33.5q-13 -10 -25.5 -4.5t-12.5 24.5v688q0 12 -7 14q-6 2 -20 -8q-9 -7 -19 -7t-15 7q-6 8 -2.5 18t14.5 18zM388 711q-18 3 -39 3t-41.5 -2t-39.5 -7.5t-34 -12.5v-225q7 -17 25.5 -33t42.5 -28.5t49.5 -21t48.5 -11.5t46 -3.5t46 4.5
q26 29 41.5 66.5t17.5 80.5q2 77 -42 127.5t-121 62.5z" />
    <glyph glyph-name="Q" unicode="Q" horiz-adv-x="800" 
d="M121 586q35 47 77 86t86 67t87.5 44t82.5 18q78 2 145 -46.5t114 -130.5q27 -47 38.5 -102.5t9 -112.5t-19 -112t-46.5 -101q-22 -33 -44.5 -62t-46.5 -54q40 -38 77.5 -70.5t60.5 -49.5q48 -36 91 -56t78.5 -26t61.5 -0.5t41 20.5q7 7 13.5 11.5t13.5 1.5t8 -12t-4 -19
q-23 -43 -59 -69.5t-83.5 -32t-105 13.5t-123.5 67q-14 10 -33.5 26t-41.5 35t-46 40t-46 41q-24 -15 -49.5 -27.5t-51.5 -21.5q-42 -14 -88.5 -9.5t-91.5 27t-85.5 61t-69.5 91.5q-30 54 -39 115.5t-1 123t31.5 120t58.5 105.5zM297 119q5 9 16.5 24t26.5 31t32 31t33 23
q20 11 36.5 3t34.5 -27q13 -14 32 -33t42 -41q15 12 29 26q29 31 46 84t18 113.5t-15 122t-52 109.5q-31 41 -76 65.5t-94.5 29.5t-99 -12t-91.5 -60q-22 -23 -36 -58t-20 -76t-5 -85.5t9 -86.5t22.5 -79t34.5 -63q29 -37 70 -58q2 10 7 17zM327 86q46 -13 96 -7l-14 15
q-38 39 -82 -8z" />
    <glyph glyph-name="R" unicode="R" horiz-adv-x="700" 
d="M177 792q18 13 29 7.5t11 -30.5v-38q24 20 53.5 33.5t61 20t63.5 7.5t62 -3q46 -7 85 -26t64.5 -49t36 -69.5t-0.5 -87.5q-9 -41 -31.5 -77.5t-51.5 -68.5l-2 -2l-32 -31q-10 -9 -19 -17t-20 -16q21 -50 45 -102t47 -90q31 -50 53 -81.5t38.5 -48t28.5 -21t24 -1.5
q9 3 18.5 4.5t14.5 -5.5q9 -13 -10 -26q-31 -23 -63 -30t-65 5t-67 44t-69 89q-15 25 -31.5 55t-31.5 61t-28 59.5t-23 50.5l-1 1q-20 1 -44 4.5t-50 10.5q-4 0 -6 1q-13 4 -25.5 7.5t-23.5 8.5v-296q0 -23 -12 -35q-9 -9 -30 -27.5t-41 -33.5q-13 -10 -25.5 -4.5
t-12.5 24.5v688q0 12 -7 14q-6 2 -20 -8q-9 -7 -19 -7t-15 7q-6 8 -2.5 18t14.5 18zM371 711q-18 3 -39 3t-41.5 -2t-39.5 -7.5t-34 -12.5v-215q5 -12 17 -22.5t28 -19.5t34.5 -16t36.5 -12q19 10 39.5 17.5t37.5 9.5q19 3 30.5 -6.5t21.5 -27.5q1 1 4 1q30 29 48 69.5
t20 86.5q2 35 -11 61.5t-35.5 45t-53 30t-63.5 17.5z" />
    <glyph glyph-name="S" unicode="S" horiz-adv-x="700" 
d="M618 696q4 -4 4.5 -11.5t-4.5 -15.5q-11 -22 -27.5 -39t-43.5 -37q-17 -13 -30 10q-28 51 -64.5 80.5t-73.5 41.5t-69.5 9t-51.5 -18q-21 -16 -26.5 -41t4 -53.5t34.5 -58.5t64 -55q14 -9 47 -30t69 -44t66.5 -42.5t40.5 -26.5q57 -40 75.5 -92.5t4.5 -108.5
q-9 -37 -33 -70t-54.5 -59.5t-64 -46t-62.5 -29.5q-36 -16 -87 -16q-30 0 -57.5 8.5t-51.5 23.5t-44 35t-35 42q-22 31 -33 42.5t-29 10.5q-12 -2 -22 0.5t-15 10.5q-5 9 -0.5 23t15.5 25q20 20 38 31t45 21q26 9 44.5 -5t44.5 -51q47 -66 98 -94.5t96 -24.5q31 2 47 17.5
t31 36.5q8 15 11 29q9 45 -8.5 82t-71.5 75q-6 4 -31 20t-55.5 34.5t-58.5 36t-39 23.5q-77 48 -115 100t-40.5 102t29 93.5t94.5 73.5q45 22 99.5 27t108.5 -4.5t103 -33t84 -57.5z" />
    <glyph glyph-name="T" unicode="T" horiz-adv-x="650" 
d="M285 656q7 5 24 16.5t35 25.5h-300q-9 0 -15 3.5t-6 8.5t8 10.5t16 10.5t20 15t23 21q19 18 61 18h465q17 0 20 -8q3 -10 -14 -24q-13 -11 -23.5 -20.5t-24.5 -19.5q-9 -6 -20 -10.5t-29 -4.5h-143q4 -10 4 -22v-631q0 -23 -12 -35q-9 -9 -30 -27.5t-41 -33.5
q-13 -10 -25.5 -4.5t-12.5 24.5v640q0 16 4.5 27.5t15.5 19.5z" />
    <glyph glyph-name="U" unicode="U" horiz-adv-x="800" 
d="M719 369q0 -95 -26.5 -169t-70 -127t-99.5 -85t-114 -44q-6 -1 -10.5 -1.5t-9.5 -0.5q-25 0 -51 9t-50 25t-45 38t-37 48q-32 51 -49 111t-25 131.5t-9.5 156t-1.5 186.5q0 6 -3.5 9t-8.5 5q-6 2 -20 -8q-9 -7 -19 -7t-15 7q-6 8 -2.5 18t14.5 18l130 93q18 13 30.5 5.5
t12.5 -32.5v-202.5t5.5 -168t19 -134.5t40.5 -103q40 -66 75.5 -95t73.5 -33q74 52 109 129t35 191v318q0 12 -7 14q-6 2 -20 -8q-9 -7 -19 -7t-15 7q-6 8 -2.5 18t14.5 18l130 93q18 13 29 7.5t11 -30.5v-400z" />
    <glyph glyph-name="V" unicode="V" horiz-adv-x="750" 
d="M646 782q57 -88 71.5 -185t-8.5 -198q-15 -67 -47 -129t-74 -118t-91 -104.5t-99 -88.5q-12 -10 -28 -11t-20 4l-1 1q-5 3 -10 13q-2 4 -13.5 35t-29 78.5t-39 107.5t-44 122.5t-44 123t-39 109t-29.5 80.5t-15 38q-2 5 -4 7.5t-7 3.5t-8.5 -3t-8.5 -9q-8 -9 -16.5 -12
t-15.5 3q-8 5 -8.5 17.5t9.5 21.5q26 26 51.5 50t42.5 39q17 14 27.5 15t18.5 -14q2 -5 14.5 -36.5t31 -81t41 -111t46.5 -125.5t46.5 -126t41 -112t31 -82.5t14.5 -37.5q29 35 56 76t49 84.5t37 88t21 86.5q7 52 3 97.5t-15 83.5t-27.5 68.5t-33.5 54.5q-8 9 -3 17.5
t15 17.5q20 17 34 27t31 20q19 11 27 10.5t19 -16.5z" />
    <glyph glyph-name="W" unicode="W" horiz-adv-x="1050" 
d="M28 705q29 23 57 43t47 34q18 12 28.5 11.5t17.5 -17.5q2 -4 11 -30.5t23.5 -68t32.5 -94.5t38 -110.5t40 -116t38 -110.5t32.5 -95t23.5 -69q42 65 62.5 146t23.5 163q1 33 -1 67t-7 68l-48 142q-2 5 -3 8.5t-6 4.5q-5 2 -9 -1.5t-10 -8.5q-10 -8 -18.5 -10t-14.5 5
q-7 7 -6 19t12 20q29 23 57 43t47 34q18 12 28.5 11.5t17.5 -17.5q2 -4 11.5 -31.5t24 -70t33.5 -97t39 -113.5t40.5 -118t38 -111.5t32 -94t22.5 -64.5q27 32 50 70t40.5 78.5t27.5 82.5t12 84q1 48 -7 94.5t-22 87t-31.5 74t-34.5 57.5q-8 9 -3 18t15 17q20 17 34 27
t31 20q19 11 27.5 10.5t18.5 -16.5q57 -88 80.5 -188.5t10.5 -203.5q-7 -57 -29 -109.5t-54 -100.5t-72.5 -91.5t-84.5 -81.5l-27 -22l-13 -11q-2 -2 -3 -2q-5 -5 -11 -9.5t-11 -9.5q-13 -11 -22 -11.5t-17 18.5q-2 4 -10.5 29t-22 64.5t-30.5 90t-36 105.5
q-24 -70 -64.5 -131.5t-98.5 -112.5l-1 -1l-37 -30q-1 0 -3 -2q-5 -5 -11 -9.5t-11 -9.5q-13 -11 -22 -11.5t-17 18.5q-2 4 -12.5 35.5t-27.5 80.5t-37.5 110.5t-42 125.5t-42.5 126t-38 111.5t-28 82t-13 38.5q-2 5 -3 8.5t-6 4.5q-5 2 -9 -1.5t-10 -8.5q-10 -8 -18.5 -10
t-14.5 5q-7 7 -6 19t12 20z" />
    <glyph glyph-name="X" unicode="X" horiz-adv-x="700" 
d="M629 790q14 -21 4.5 -70.5t-35 -112t-63 -129t-78.5 -121.5l206 -284q9 -10 13 -19.5t-3 -19.5q-11 -18 -22.5 -34.5t-23.5 -36.5q-10 -14 -18.5 -17.5t-21.5 13.5l-214 295q-39 -45 -82 -91t-83.5 -86.5t-75 -72.5t-54.5 -47q-13 -9 -25.5 -11t-17.5 6q-6 8 -0.5 18.5
t13.5 17.5q29 22 67 58.5t78 79.5t78.5 88t69.5 85l-251 349q-4 5 -5.5 8t-6.5 2q-5 1 -8 -3.5t-8 -11.5q-7 -10 -14.5 -14.5t-15.5 -0.5q-8 5 -10.5 17t5.5 23q20 29 41.5 57t35.5 47q14 17 24.5 19.5t21.5 -11.5l266 -367q27 48 47.5 92t30 82t8 68.5t-17.5 50.5
q-8 9 -3 17.5t16 17.5q20 17 40 31t37 24q19 11 31.5 10.5t23.5 -16.5z" />
    <glyph glyph-name="Y" unicode="Y" horiz-adv-x="700" 
d="M651 782q24 -47 27.5 -96.5t-20 -101t-76.5 -105t-143 -108.5v-325q0 -23 -12 -35q-9 -9 -30 -27.5t-41 -33.5q-13 -10 -25.5 -4.5t-12.5 24.5v344q-2 1 -4 5q-4 5 -21 29t-41 57t-51.5 71t-52 72t-42.5 58.5t-22 31.5q-3 5 -5 8t-7 3t-8 -4t-8 -10q-7 -10 -15 -14.5
t-16 0.5t-10 17t6 23q23 29 45 55.5t37 44.5q14 16 24.5 18t21.5 -12q4 -6 23 -32.5t45.5 -63t57 -77.5t56 -76.5t43.5 -60t20 -26.5q4 -5 7 -10t5 -10q53 40 85.5 73t45 66t6.5 69.5t-30 84.5q-5 11 -1.5 18.5t14.5 16.5q20 17 36.5 28t33.5 21q19 11 32.5 11t22.5 -17z
" />
    <glyph glyph-name="Z" unicode="Z" horiz-adv-x="700" 
d="M600 763q12 -27 9.5 -65t-17.5 -82t-39.5 -93t-55.5 -98h97q20 0 20 -10q0 -9 -19 -21q-14 -9 -26.5 -19t-23.5 -21q-14 -14 -50 -14h-55q-19 -27 -48 -67t-62 -83.5t-66.5 -85.5t-61.5 -74h430q20 0 20 -10q0 -9 -19 -21q-14 -9 -26.5 -19t-23.5 -21q-14 -14 -50 -14
h-465q-9 0 -15 3t-6 8t8 10.5t16 10.5t20 15t23 20l4 4q22 22 53.5 64t64.5 89t63.5 93t50.5 78h-131q-9 0 -15 3t-6 8t8 10.5t16 10.5t20 15t23 20q19 18 61 18h77q24 41 44 80t31 74t12.5 64.5t-10.5 51.5l-2 3h-5h-375q-9 0 -15 3t-6 8t8 10.5t16 10.5t20 15t23 20
q19 18 61 18h367q13 0 18 -6q5 -3 10 -14z" />
    <glyph glyph-name="bracketleft" unicode="[" horiz-adv-x="333" 
d="M85 767q5 5 19 16t33 22l8 4t9 4q1 1 4 1q13 3 37 3h101q20 0 20 -10q0 -9 -19 -21q-14 -9 -26.5 -19t-23.5 -21q-14 -14 -50 -14h-15v-710q0 -5 -0.5 -9t-1.5 -8h15h101q20 0 20 -10q0 -9 -19 -21q-14 -9 -26.5 -19t-23.5 -21q-14 -14 -50 -14h-113h-5l-2 1q-4 0 -7 3
q-9 7 -9 22v756q0 15 0.5 24.5t2.5 16t7 12t14 12.5z" />
    <glyph glyph-name="backslash" unicode="\" horiz-adv-x="450" 
d="M68 640q-4 12 -3 21t4 16q6 11 16.5 28t24.5 37q9 13 22.5 11.5t19.5 -19.5l230 -736q4 -12 3 -21t-4 -16q-6 -11 -16.5 -28t-24.5 -37q-9 -13 -22.5 -11.5t-19.5 19.5z" />
    <glyph glyph-name="bracketright" unicode="]" horiz-adv-x="333" 
d="M159 5v699v28h-2h-117q-9 0 -15 3t-6 8t8 10.5t16 10.5t20 15t23 20q19 18 61 18h109q6 0 8 -1q2 0 6 -2q3 -2 5 -5q5 -8 5 -22v-771q0 -8 -1.5 -15.5t-6.5 -13.5q-3 -5 -10 -9l-20 -13q-11 -8 -22 -16.5t-19 -16.5t-17 -10t-27 -2h-117q-9 0 -15 3t-6 8t8 10.5t16 10.5
t20 15t23 20q19 18 61 18h12z" />
    <glyph glyph-name="asciicircum" unicode="^" horiz-adv-x="500" 
d="M421 472q-17 -18 -28.5 -18t-20.5 11q-42 52 -86.5 99.5t-86.5 78.5q-6 5 -12.5 3t-10.5 -7q-14 -15 -31 -34.5t-34 -40.5t-33.5 -42t-30.5 -40q-12 -15 -21 -9q-6 3 -5.5 10t4.5 12q22 29 48 65t54.5 72.5t59 69t60.5 54.5q19 13 44 -3q38 -24 87.5 -71t97.5 -107
q11 -13 10.5 -21t-12.5 -22q-4 -5 -11 -12.5t-14.5 -16.5t-15 -17t-12.5 -14z" />
    <glyph glyph-name="underscore" unicode="_" horiz-adv-x="450" 
d="M423 -115q20 0 20 -10q0 -9 -19 -21q-14 -9 -26.5 -19t-23.5 -21q-14 -14 -50 -14h-296q-9 0 -15 3t-6 8t8 10.5t16 10.5t20 15t23 20q19 18 61 18h288z" />
    <glyph glyph-name="grave" unicode="`" horiz-adv-x="278" 
d="M181 700q27 -30 26 -57q0 -7 -0.5 -17t-0.5 -20v-19v-13q0 -12 -9.5 -14.5t-17.5 5.5l-105 131q-9 10 -12 18.5t4 21.5l26 49q2 5 8 4.5t12 -6.5l69 -83v0z" />
    <glyph glyph-name="a" unicode="a" horiz-adv-x="600" 
d="M501 149q0 -41 2.5 -65.5t7.5 -37t13 -14t19 4.5q9 5 14.5 3t7.5 -6q5 -9 -9 -27q-11 -15 -28 -27.5t-35 -20.5t-35.5 -10.5t-30.5 2.5q-38 14 -45 76q-25 -32 -55.5 -51.5t-76.5 -22.5q-30 -2 -61.5 9t-57 34t-42 58t-15.5 82q1 50 22 88.5t59 64.5t90 39t115 12h8
t12 -1v1q0 36 -10.5 68.5t-41.5 50.5q-29 17 -59.5 20t-60.5 -6q-23 -7 -41.5 -18t-29.5 -21q-8 -7 -17.5 -6t-14.5 7q-6 7 -2.5 16t11.5 19q22 26 49.5 46t66.5 33q30 10 72.5 10.5t84.5 -17.5q49 -21 81.5 -65t32.5 -109v-219zM310 246q-25 -2 -47 -8.5t-39 -18
t-27.5 -29.5t-13.5 -43q-2 -23 4 -42t18.5 -33.5t29.5 -23.5t37 -10q26 -2 56 7.5t47 27.5l5 4v233q-14 -9 -23 -19q-15 -16 -24 -30.5t-23 -14.5z" />
    <glyph glyph-name="b" unicode="b" horiz-adv-x="650" 
d="M184 792q18 13 29 7.5t11 -30.5v-275q25 25 50.5 38t50 18t47.5 3.5t43 -5.5q53 -12 96 -47.5t68.5 -87t30 -115t-18.5 -131.5q-11 -31 -24.5 -54t-28.5 -40.5t-30 -31t-29 -25.5q-28 -26 -59 -44.5t-74 -21.5q-32 -2 -75 9t-79 34q-11 -11 -25 -22t-26 -21
q-13 -10 -25.5 -4.5t-12.5 24.5v687q0 12 -7 14q-6 2 -20 -8q-9 -7 -19 -7t-15 7q-6 8 -2.5 18t14.5 18zM329 470q-36 5 -60 1.5t-45 -17.5v-331q5 -18 17 -32t27.5 -25t34.5 -18.5t38 -10.5q33 -6 69 2q23 24 38 48t24 53q22 70 20 128t-22.5 100t-57 68t-83.5 34z" />
    <glyph glyph-name="c" unicode="c" horiz-adv-x="550" 
d="M506 497q8 -6 6 -20q-2 -17 -12 -38.5t-23 -33.5q-11 -10 -22 2q-25 31 -66.5 47.5t-86.5 18.5q-42 1 -85 -13q-22 -34 -36 -79.5t-17 -105.5q-4 -57 11.5 -101.5t42.5 -75t63 -47.5t73 -19q46 -3 79 16t52 47q12 14 16 18t10 0q5 -5 3.5 -14.5t-13.5 -33.5
q-19 -38 -43.5 -63t-51.5 -39.5t-54.5 -20t-52.5 -4.5q-51 3 -99 26.5t-83 65t-53.5 100t-11.5 130.5q4 32 19 79t38 89q10 21 26.5 41.5t37.5 38t46 30.5t54 18q25 5 57.5 4t64.5 -8t61.5 -20.5t49.5 -34.5z" />
    <glyph glyph-name="d" unicode="d" horiz-adv-x="650" 
d="M540 792q18 13 29 7.5t11 -30.5v-723q0 -23 -12 -35q-9 -9 -30 -27.5t-41 -33.5q-13 -10 -25.5 -4.5t-12.5 24.5v67q-35 -39 -75.5 -53.5t-75.5 -12.5q-41 2 -84.5 19t-78.5 51t-56.5 85.5t-17.5 122.5q4 69 25 119.5t49 85.5q23 34 57.5 61t78.5 36q18 3 40 3.5t45.5 -2
t47.5 -9t45 -16.5v130q0 12 -7 14q-6 2 -20 -8q-9 -7 -19 -7t-15 7q-6 8 -2.5 18t14.5 18zM359 65q32 -2 56.5 8t43.5 27v303q-10 16 -27 28t-37.5 20t-43 12t-43.5 5q-18 1 -36.5 -2t-35.5 -8q-24 -35 -38 -80t-13 -107q1 -53 17.5 -91t42 -63t56 -37.5t58.5 -14.5z" />
    <glyph glyph-name="e" unicode="e" horiz-adv-x="600" 
d="M541 337q0 -24 -13 -36q-8 -8 -19.5 -13t-24 -10.5t-25 -12t-21.5 -16.5q-4 -4 -8 -5q-4 -2 -19 -2h-232q2 -97 50 -147t123 -57q22 -2 43.5 2.5t40.5 13.5t34.5 21.5t25.5 26.5q11 15 15 18.5t9 -0.5q5 -5 3.5 -14.5t-12.5 -34.5q-18 -38 -44 -63.5t-55.5 -40.5
t-58.5 -20.5t-52 -4.5q-57 3 -106 29.5t-82.5 73t-48 109t-2.5 137.5q7 45 21 81t34 65q12 21 34 44t52.5 41t69 28t83.5 7q30 -2 62.5 -17t60 -42.5t45.5 -67.5t17 -93zM427 329q0 36 -7.5 61t-20.5 42t-29 27.5t-32 16.5q-57 20 -109 4q-18 -34 -29.5 -77.5t-17.5 -102.5
l11 11q19 18 61 18h173z" />
    <glyph glyph-name="f" unicode="f" horiz-adv-x="400" 
d="M375 734q4 -2 5 -8t0 -12q-2 -17 -11.5 -38.5t-21.5 -33.5q-9 -9 -20 2q-21 19 -44 28t-46 11v-152h128q20 0 20 -10q0 -9 -19 -21q-14 -9 -26.5 -19t-23.5 -21q-14 -14 -50 -14h-29v-404q0 -23 -12 -35q-9 -9 -30 -27.5t-41 -33.5q-13 -10 -25.5 -4.5t-12.5 24.5v480
h-81q-9 0 -15 3t-6 8t8 10.5t16 10.5t20 15t23 20q15 13 35 16v125v6l3 6l1 1q19 30 46 52.5t60 33.5t71 7t78 -26z" />
    <glyph glyph-name="g" unicode="g" horiz-adv-x="650" 
d="M256 -45q-32 0 -63 6t-55.5 18.5t-40.5 31.5t-19 44q-4 34 17 61.5t48 44.5q-23 17 -42 44q-20 28 -26 60t-0.5 64t21 62t39.5 55q24 24 52.5 44.5t58 35t59 23t55.5 8.5q54 2 99 -24q32 26 75 31.5t91 -21.5q3 -2 4 -6.5t0 -9.5q-1 -14 -8.5 -31t-17.5 -27q-8 -8 -16 2
q-20 17 -42 24t-42 7q9 -8 17 -17.5t16 -19.5q18 -24 26 -53t6 -58.5t-13.5 -58t-31.5 -52.5q-40 -49 -89 -80t-106 -46q-34 -9 -72.5 -4t-73.5 23q-9 -8 -14 -18.5t-3 -25.5t14 -25t29.5 -16t37.5 -8.5t38 -2.5h211q63 0 94 -32.5t22 -82.5q-2 -13 -6 -22.5t-9 -19.5
q-5 -9 -13 -20.5t-17 -24.5l-3 -5q-2 -1 -4 -5l-3.5 -3.5l-3.5 -3.5q-29 -35 -63 -63t-71.5 -46t-77.5 -23t-80 7q-51 15 -89 47t-60 74q-13 25 -21 32.5t-21 6.5q-9 -1 -16.5 1t-10.5 7q-4 7 -0.5 17t11.5 18q14 14 32.5 27t52.5 23q21 6 34 -3q15 -9 30 -37
q27 -51 59.5 -82t63.5 -41q52 -16 103.5 -2t99.5 64q6 58 -27.5 82.5t-87.5 24.5h-157zM406 409q-15 18 -39 35t-51.5 26t-55.5 7.5t-50 -20.5q-21 -17 -24.5 -43.5t3 -55t21 -55.5t29.5 -45q22 -24 49.5 -39.5t54.5 -22.5t51.5 -3t40.5 19t21.5 38.5t1 50.5t-17.5 55
t-34 53z" />
    <glyph glyph-name="h" unicode="h" horiz-adv-x="650" 
d="M593 46q0 -23 -12 -35q-9 -9 -30 -27.5t-41 -33.5q-13 -10 -25.5 -4.5t-12.5 24.5v363q0 36 -10.5 68.5t-41.5 50.5q-29 17 -59.5 20t-60.5 -6q-17 -5 -31.5 -12.5t-25.5 -15.5v-392q0 -23 -12 -35q-9 -9 -30 -27.5t-41 -33.5q-13 -10 -25.5 -4.5t-12.5 24.5v687
q0 12 -7 14q-6 2 -20 -8q-9 -7 -19 -7t-15 7q-6 8 -2.5 18t14.5 18l130 93q18 13 29 7.5t11 -30.5v-270q31 26 79 43q30 10 72.5 10.5t84.5 -17.5q49 -21 81.5 -65t32.5 -109v-315v0z" />
    <glyph glyph-name="i" unicode="i" horiz-adv-x="350" 
d="M214 550q18 13 29 7.5t11 -30.5v-481q0 -23 -12 -35q-9 -9 -30 -27.5t-41 -33.5q-13 -10 -25.5 -4.5t-12.5 24.5v445q0 12 -7 14q-6 2 -20 -8q-9 -7 -19 -7t-15 7q-6 8 -2.5 18t14.5 18zM221 742q9 -7 22 -15t25 -15q14 -7 13 -22q-1 -9 -18 -20q-6 -3 -14.5 -9.5
t-18 -13t-18 -13.5t-13.5 -11q-6 -6 -16.5 -5.5t-23.5 8.5l-47 31q-17 8 -13 24q0 8 7.5 11.5t13.5 7.5q14 8 32 20t28 22q18 17 41 0z" />
    <glyph glyph-name="j" unicode="j" horiz-adv-x="350" 
d="M274 8q0 -72 -23 -121.5t-63 -81.5q-35 -28 -73.5 -51t-64.5 -36q-11 -6 -22.5 -9t-17.5 4q-5 5 -1.5 14t11.5 15q34 25 61 50.5t41 48.5q7 11 12.5 24t9.5 32t6.5 45.5t2.5 64.5v408q0 12 -7 14q-6 2 -20 -8q-9 -7 -19 -7t-15 7q-6 8 -2.5 18t14.5 18l130 93
q18 13 29 7.5t11 -30.5v-519zM225 742q9 -7 22 -15t25 -15q14 -7 13 -22q-1 -9 -18 -20q-6 -3 -14.5 -9.5t-18 -13t-18 -13.5t-13.5 -11q-6 -6 -16.5 -5.5t-23.5 8.5l-47 31q-17 8 -13 24q0 8 7.5 11.5t13.5 7.5q14 8 32 20t28 22q18 17 41 0z" />
    <glyph glyph-name="k" unicode="k" horiz-adv-x="600" 
d="M528 576q9 -16 4.5 -36.5t-21.5 -43.5q-23 -35 -77 -79.5t-124 -96.5q16 -22 37 -50t40.5 -53.5t33.5 -44t16 -21.5q24 -33 43 -51.5t34 -26.5t27.5 -7t24.5 8q16 9 19 -1q3 -9 -5 -32q-13 -37 -30 -60t-44 -28q-26 -5 -52 10t-55 54l-15 20t-29 38t-36 48t-38 51
t-35 46.5t-25 34.5q-1 0 -1 -1v-208q0 -23 -12 -35q-9 -9 -30 -27.5t-41 -33.5q-13 -10 -25.5 -4.5t-12.5 24.5v687q0 12 -7 14q-6 2 -20 -8q-9 -7 -19 -7t-15 7q-6 8 -2.5 18t14.5 18l130 93q18 13 29 7.5t11 -30.5v-443q48 31 91 60t85 58l2 2q17 14 17.5 26t-13.5 26
q-9 9 -2 16q10 10 23.5 20.5t29 20.5t31 17.5t28.5 12.5q9 3 16 -9z" />
    <glyph glyph-name="l" unicode="l" horiz-adv-x="300" 
d="M210 149q0 -41 2.5 -65.5t7.5 -37t13 -14t19 4.5q9 5 14.5 3t7.5 -6q5 -9 -9 -27q-11 -15 -28 -27.5t-35 -20.5t-35.5 -10.5t-30.5 2.5q-47 17 -47 116v590q0 12 -7 14q-6 2 -20 -8q-9 -7 -19 -7t-15 7q-6 8 -2.5 18t14.5 18l130 93q18 13 29 7.5t11 -30.5v-620z" />
    <glyph glyph-name="m" unicode="m" 
d="M544 46q0 -23 -12 -35q-9 -9 -30 -27.5t-41 -33.5q-13 -10 -25.5 -4.5t-12.5 24.5v344q0 36 -10.5 69t-41.5 50q-34 18 -67.5 13.5t-69.5 -35.5v-365q0 -23 -12 -35q-9 -9 -30 -27.5t-41 -33.5q-13 -10 -25.5 -4.5t-12.5 24.5v444q0 12 -7 14q-6 2 -20 -8q-9 -7 -19 -7
t-15 7q-6 8 -2.5 18t14.5 18l130 93q18 13 29 7.5t11 -30.5v-54q43 41 91.5 54t104.5 -10q26 -11 48 -29t37 -42q48 55 102.5 76t119.5 -5q50 -20 82 -64.5t32 -109.5v-296q0 -23 -12 -35q-9 -9 -30 -27.5t-41 -33.5q-13 -10 -25.5 -4.5t-12.5 24.5v344q0 36 -10.5 69
t-41.5 50q-35 19 -69 13.5t-72 -38.5q-2 -2 -3 -2q5 -15 7.5 -31t2.5 -33v-296v0z" />
    <glyph glyph-name="n" unicode="n" horiz-adv-x="650" 
d="M583 46q0 -23 -12 -35q-9 -9 -30 -27.5t-41 -33.5q-13 -10 -25.5 -4.5t-12.5 24.5v343q0 36 -10.5 68.5t-41.5 50.5q-29 17 -59.5 20t-60.5 -6q-17 -5 -31.5 -12.5t-25.5 -15.5v-372q0 -23 -12 -35q-9 -9 -30 -27.5t-41 -33.5q-13 -10 -25.5 -4.5t-12.5 24.5v444
q0 12 -7 14q-6 2 -20 -8q-9 -7 -19 -7t-15 7q-6 8 -2.5 18t14.5 18l130 93q18 13 29 7.5t11 -30.5v-47q31 26 79 43q30 10 72.5 10.5t84.5 -17.5q49 -21 81.5 -65t32.5 -109v-295v0z" />
    <glyph glyph-name="o" unicode="o" horiz-adv-x="650" 
d="M140 403q25 34 55 61.5t61 48t62 31.5t59 12q56 2 104 -32.5t81 -93.5q19 -34 27.5 -73.5t6.5 -80t-14 -79.5t-33 -72q-43 -67 -94.5 -110t-111.5 -64q-30 -10 -63 -6.5t-65.5 19t-61 43t-49.5 65.5q-21 39 -27.5 82.5t-0.5 87.5t22.5 85.5t41.5 75.5zM444 384
q-20 30 -48.5 51t-59.5 28.5t-62 -0.5t-56 -36q-23 -26 -32.5 -64t-7 -80t14.5 -82.5t32 -69.5q24 -35 56 -54.5t65.5 -25t63.5 3t50 30.5q19 21 27.5 57t6.5 78t-14.5 85t-35.5 79z" />
    <glyph glyph-name="p" unicode="p" horiz-adv-x="650" 
d="M187 550q18 13 29 7.5t11 -30.5v-36q24 23 49 35t49 16.5t46.5 3t41.5 -5.5q53 -12 96 -47.5t68.5 -87t30 -115t-18.5 -131.5q-11 -31 -24.5 -54t-28.5 -40.5t-30 -31t-29 -25.5q-28 -26 -59 -44.5t-74 -21.5q-25 -2 -56 4.5t-61 19.5v-170q0 -23 -12 -35
q-9 -9 -30 -27.5t-41 -33.5q-13 -10 -25.5 -4.5t-12.5 24.5v695q0 12 -7 14q-6 2 -20 -8q-9 -7 -19 -7t-15 7q-6 8 -2.5 18t14.5 18zM327 462q-34 5 -57 2.5t-43 -15.5v-347q14 -29 45.5 -48t66.5 -25q33 -6 69 2q23 24 38 48t24 53q22 70 20 128t-22.5 100t-57 68t-83.5 34
z" />
    <glyph glyph-name="q" unicode="q" horiz-adv-x="650" 
d="M499 -300q-13 -10 -25.5 -4.5t-12.5 24.5v302q-35 -42 -77 -57.5t-78 -13.5q-41 2 -84.5 19t-78.5 51t-56.5 85.5t-17.5 122.5q4 69 25 119.5t49 85.5q23 34 57.5 61t78.5 36q19 4 44 4t50.5 -4t51 -12t46.5 -20l71 51q18 13 29 7.5t11 -30.5v-731q0 -23 -12 -35
q-9 -9 -30 -27.5t-41 -33.5zM357 45q34 -2 59.5 9t44.5 30v294l-3 4q-10 17 -27 29t-37.5 20t-43.5 12t-44 5q-18 1 -36.5 -2t-35.5 -8q-24 -35 -38 -80t-13 -107q1 -53 17.5 -91t42 -63t56 -37.5t58.5 -14.5z" />
    <glyph glyph-name="r" unicode="r" horiz-adv-x="400" 
d="M375 537q4 -1 6.5 -6.5t3.5 -11.5q1 -8 1.5 -20t-1 -24t-4.5 -23.5t-7 -18.5q-7 -11 -20 -3q-46 23 -87.5 19.5t-67.5 -24.5v-379q0 -23 -12 -35q-9 -9 -30 -27.5t-41 -33.5q-13 -10 -25.5 -4.5t-12.5 24.5v446q0 12 -7 14q-6 2 -20 -8q-9 -7 -19 -7t-15 7q-6 8 -2.5 18
t14.5 18l130 93q18 13 29 7.5t11 -30.5v-33q31 31 75.5 43.5t100.5 -1.5z" />
    <glyph glyph-name="s" unicode="s" horiz-adv-x="500" 
d="M444 491q3 -3 2.5 -9t-3.5 -11q-8 -16 -25 -34t-37 -31q-12 -7 -19 7q-18 37 -41 58t-46 30t-44.5 6.5t-35.5 -13.5q-31 -23 -18 -60.5t70 -74.5q10 -7 34 -22t50 -31.5t48.5 -31t29.5 -19.5q21 -14 33 -32t17.5 -37.5t4.5 -40t-6 -40.5q-7 -27 -24.5 -51t-40.5 -44.5
t-48 -35t-46 -21.5q-6 -2 -7 -2q-24 -9 -48 -9q-44 0 -81 23t-57 58q-14 24 -21.5 32t-20.5 7q-9 -1 -16.5 1t-10.5 7q-4 7 -0.5 17t11.5 18q7 7 14 13t16 11t20 10t27 10q19 6 33.5 -2.5t30.5 -37.5q28 -51 61.5 -69.5t62.5 -15.5q20 1 39 16q13 16 18 36q6 30 -7.5 53
t-52.5 50l-133 83q-56 34 -82.5 74t-27.5 78t22.5 71t68.5 55q33 16 72 19.5t78.5 -3.5t75 -23.5t60.5 -41.5z" />
    <glyph glyph-name="t" unicode="t" horiz-adv-x="450" 
d="M258 531h144q20 0 20 -10q0 -9 -19 -21q-14 -9 -26.5 -19t-23.5 -21q-14 -14 -50 -14h-45v-297q0 -46 15.5 -69t40.5 -26q19 -2 41 8t44 30q8 7 13 6.5t7 -4.5q4 -8 -7 -32q-30 -61 -71.5 -87t-86.5 -24q-22 1 -43 10t-37.5 26t-26.5 42.5t-10 58.5v358h-89q-9 0 -15 3
t-6 8t8 10.5t16 10.5q7 5 18.5 14t22.5 19l2 2l7 6q5 4 20.5 22.5t34 40t36 41t26.5 26.5q18 13 29 7.5t11 -30.5v-95z" />
    <glyph glyph-name="u" unicode="u" horiz-adv-x="650" 
d="M567 145q0 -41 2.5 -65.5t7.5 -37t13 -14t19 4.5q9 5 14.5 3t7.5 -6q5 -9 -9 -27q-11 -15 -28 -27.5t-35 -20.5t-35.5 -10.5t-30.5 2.5q-35 13 -44 65q-19 -18 -42 -32.5t-54 -25.5q-30 -10 -72.5 -10.5t-84.5 17.5q-49 21 -81.5 65t-32.5 109v274q0 12 -7 14
q-6 2 -20 -8q-9 -7 -19 -7t-15 7q-6 8 -2.5 18t14.5 18l130 93q18 13 29 7.5t11 -30.5v-358q0 -36 10.5 -68.5t41.5 -50.5q29 -17 59.5 -20t60.5 6q23 7 41.5 18t29.5 21v345q0 12 -7 14q-6 2 -20 -8q-9 -7 -19 -7t-15 7q-6 8 -2.5 18t14.5 18l130 93q18 13 29 7.5t11 -30.5
v-381z" />
    <glyph glyph-name="v" unicode="v" horiz-adv-x="600" 
d="M532 552q15 -32 26 -67.5t15 -75t-1 -83t-22 -91.5q-12 -34 -33 -68t-44.5 -65t-48 -56.5t-43.5 -41.5q-16 -13 -31.5 -25.5t-32.5 -27.5q-13 -11 -22 -11.5t-17 18.5q-2 6 -16 41.5t-34 87t-43 110t-43 110t-34 88.5t-17 45q-2 5 -3 8.5t-6 4.5q-5 2 -9 -1.5t-10 -8.5
q-10 -8 -18.5 -10t-14.5 5q-7 7 -6 19t12 20q29 23 57 43t47 34q18 12 28.5 11.5t17.5 -17.5l183 -466q21 32 39.5 71.5t28.5 84.5q14 66 7.5 126t-36.5 113q-5 10 -1.5 18t14.5 17q20 17 34 26.5t31 19.5q19 11 28.5 11t17.5 -17z" />
    <glyph glyph-name="w" unicode="w" 
d="M808 552q15 -32 26 -67.5t15 -75t-1 -83t-22 -91.5q-12 -34 -33 -68t-44.5 -65t-48 -56.5t-43.5 -41.5q-16 -13 -31.5 -25.5t-32.5 -27.5q-13 -11 -22 -11.5t-17 18.5q-2 6 -16 41.5t-34 87t-43 110t-43 110t-34 88.5t-17 45q-2 5 -3 8.5t-6 4.5q-5 2 -9 -1.5t-10 -8.5
q-10 -8 -18.5 -10t-14.5 5q-7 7 -6 19t12 20q29 23 57 43t47 34q18 12 28.5 11.5t17.5 -17.5l183 -466q21 32 39.5 71.5t28.5 84.5q14 66 7.5 126t-36.5 113q-5 10 -1.5 18t14.5 17q20 17 34 26.5t31 19.5q19 11 28.5 11t17.5 -17zM39 468q29 23 57 43t47 34
q18 12 28.5 11.5t17.5 -17.5l201 -507q5 -13 6 -23t-8 -18q-16 -14 -32 -26.5t-33 -27.5q-13 -11 -22 -11.5t-17 18.5q-2 4 -10.5 26t-21.5 55.5t-29 75t-33 84.5t-33.5 85t-29.5 75.5t-22 56.5t-11 29q-2 5 -3 8.5t-6 4.5q-5 2 -9 -1.5t-10 -8.5q-10 -8 -18.5 -10t-14.5 5
q-7 7 -6 19t12 20z" />
    <glyph glyph-name="x" unicode="x" horiz-adv-x="600" 
d="M514 555q29 -42 10.5 -122.5t-101.5 -189.5l-8 -10q27 -35 52 -66t43.5 -55t30 -38.5t13.5 -15.5q9 -12 11.5 -22t-5.5 -18q-13 -17 -26.5 -33t-27.5 -34q-11 -13 -19 -14t-20 14l-143 179q-57 -58 -111.5 -102.5t-90.5 -71.5q-13 -9 -25.5 -11t-17.5 6q-6 8 -0.5 18.5
t13.5 17.5q50 38 102.5 84.5t97.5 98.5l-200 251q-4 5 -5 8.5t-6 3.5t-8.5 -4t-8.5 -9q-8 -11 -16 -14.5t-16 2.5t-8.5 17.5t8.5 22.5q23 27 47 52.5t41 43.5q15 14 24.5 15.5t21.5 -13.5l208 -261q28 53 31 101.5t-29 89.5q-8 9 -3 17.5t16 17.5q20 17 36.5 28.5t33.5 21.5
q19 11 31.5 10.5t23.5 -16.5z" />
    <glyph glyph-name="y" unicode="y" horiz-adv-x="600" 
d="M535 545q24 -36 36 -81t9 -99.5t-22 -118.5t-57 -138q-35 -68 -76 -125.5t-87 -107t-96.5 -92.5t-105.5 -83q-13 -9 -25.5 -11t-17.5 6q-6 8 -0.5 18.5t13.5 16.5q32 28 61 53t55 49t49.5 49t45.5 52l-5 10q-3 6 -19.5 41.5t-40.5 87t-51.5 110t-51.5 110t-41.5 88.5
t-20.5 44q-2 5 -3.5 8.5t-6.5 4.5t-8.5 -2.5t-9.5 -8.5q-9 -8 -17.5 -11t-15.5 4q-7 6 -6.5 18t10.5 21q27 24 54 46t45 37q17 13 27.5 13t18.5 -16l226 -478q8 16 16.5 32.5t16.5 34.5q29 63 36 112.5t-1 90t-27.5 74t-44.5 63.5q-8 9 -3 17.5t16 17.5q20 17 36.5 28
t33.5 21q19 11 31.5 10.5t23.5 -16.5z" />
    <glyph glyph-name="z" unicode="z" horiz-adv-x="600" 
d="M478 539q15 -32 13.5 -72.5t-14.5 -83t-35.5 -85t-49.5 -79.5q-17 -22 -36.5 -47t-41 -50t-43 -48.5t-41.5 -43.5h282q20 0 20 -10q0 -9 -19 -21q-14 -9 -26.5 -19t-23.5 -21q-14 -14 -50 -14h-325q-9 0 -15 3t-6 8t8 10.5t16 10.5l32 25q1 3 4 4l8 7l2 2q20 19 42 43.5
t43.5 51.5t42.5 56t38 56q14 22 30 54t26.5 66.5t12 68.5t-13.5 60l-1 1h-4h-245q-9 0 -15 3t-6 8t8 10.5t16 10.5t20 15t23 20q19 18 61 18h237q7 0 10 -1q9 -3 16 -17z" />
    <glyph glyph-name="braceleft" unicode="{" horiz-adv-x="400" 
d="M247 141q0 -72 29.5 -124.5t90.5 -80.5q10 -5 10.5 -11.5t-5.5 -11.5q-14 -11 -30.5 -22t-33.5 -19q-29 -14 -64 7q-35 20 -58 40.5t-36.5 46.5t-19 61t-5.5 85q0 36 -4.5 62t-14 44.5t-23.5 32t-33 25.5q-19 11 -20 18.5t4 12.5l8 7q2 2 3 2q5 5 11.5 9t12.5 8
q13 9 23.5 22t18 35.5t12 57t4.5 87.5q0 38 6.5 65t18.5 45.5t30 31.5t42 23q7 3 22.5 10t32 14t30.5 12.5t18 7.5q20 8 28.5 6.5t10.5 -6.5t-5 -12t-30 -18q-24 -11 -40.5 -26t-26.5 -35.5t-14 -47.5t-3 -63q1 -48 -3.5 -81.5t-15 -56.5t-29 -37.5t-45.5 -24.5
q24 -10 41.5 -21.5t29 -32.5t17 -56t5.5 -91z" />
    <glyph glyph-name="bar" unicode="|" horiz-adv-x="300" 
d="M96 672q0 23 12 35q9 9 23.5 22t34.5 28q13 10 25.5 4.5t12.5 -24.5v-771q0 -23 -12 -35q-9 -9 -23.5 -22t-34.5 -28q-13 -10 -25.5 -4.5t-12.5 24.5v771z" />
    <glyph glyph-name="braceright" unicode="}" horiz-adv-x="400" 
d="M144 488q2 42 -5 72t-22.5 52t-39 38t-53.5 30q-10 5 -10.5 11.5t5.5 11.5q14 11 30.5 22t33.5 19q29 14 64 -7q35 -20 58.5 -40t37.5 -42.5t19.5 -49.5t3.5 -61q-2 -36 2.5 -62t14 -44.5t24.5 -32t34 -25.5q19 -11 20 -18.5t-4 -12.5l-9 -8l-2 -2q-5 -4 -10.5 -7.5
t-10.5 -6.5q-14 -12 -26 -32.5t-21 -52t-13 -73.5t-1 -96q2 -38 -4 -64.5t-18.5 -45.5t-31.5 -32t-43 -23q-8 -3 -23 -10t-31.5 -14t-30.5 -13t-18 -7q-20 -8 -28.5 -6.5t-10.5 6.5t5 12t30 18q48 23 68.5 62t15.5 110q-8 97 14.5 162t78.5 88q-48 20 -72 60t-21 114z" />
    <glyph glyph-name="asciitilde" unicode="~" horiz-adv-x="556" 
d="M165 350q6 1 15.5 3.5t25.5 1.5t39 -7t55 -22q38 -19 67 -29t52.5 -11t42 8t36.5 29q7 8 14.5 13t12.5 2q7 -3 5 -11t-10 -19q-10 -14 -24.5 -31t-24.5 -29q-13 -16 -23.5 -26.5t-26.5 -18.5q-13 -7 -30.5 -11t-39.5 -3.5t-49.5 8t-61.5 24.5q-32 16 -54 25t-39 10.5
t-30.5 -3.5t-28.5 -17q-26 -20 -38.5 -21t-16.5 4q-3 4 0 12t17 21l10.5 10.5l16.5 16.5t17.5 18t14.5 15q10 11 26 23t30 15z" />
    <glyph glyph-name="copyright" unicode="&#xa9;" horiz-adv-x="833" 
d="M107 679q40 54 91.5 86.5t95.5 34.5t84 -22.5t66 -71.5q15 -27 21 -59t4 -65t-12.5 -64.5t-26.5 -57.5q-67 -104 -163 -137q-23 -8 -49 -5.5t-51.5 15t-48.5 34t-39 51.5q-17 30 -22 65t-0.5 69.5t17.5 67t33 59.5zM362 684q-16 24 -40.5 37.5t-52 15.5t-54 -8t-46.5 -32
q-18 -20 -27.5 -53t-10.5 -69.5t7 -71.5t24 -57q20 -27 47 -38.5t54.5 -12.5t53 8.5t42.5 24.5q17 16 26.5 47.5t10.5 68.5t-7.5 74.5t-26.5 65.5zM346 666q5 -4 5 -11q-2 -10 -8 -20t-14 -18q-2 -2 -4.5 -2t-4.5 3q-11 20 -24.5 28t-31.5 10q-9 -14 -15 -32.5t-8 -44.5
q-2 -44 11.5 -66t31.5 -27q15 -5 27 -0.5t20 14.5q10 12 15 9q3 -2 4 -5.5t-4 -13.5q-14 -29 -36.5 -40.5t-49.5 -9.5q-20 1 -38.5 12t-32 29t-21 42t-4.5 52q1 9 4.5 21.5t9 25.5t13 24.5t16.5 19.5q17 16 42 22q23 6 48.5 0.5t48.5 -22.5z" />
    <glyph glyph-name="registered" unicode="&#xae;" 
d="M107 679q40 54 91.5 86.5t95.5 34.5t84 -22.5t66 -71.5q15 -27 21 -59t4 -65t-12.5 -64.5t-26.5 -57.5q-67 -104 -163 -137q-23 -8 -49 -5.5t-51.5 15t-48.5 34t-39 51.5q-17 30 -22 65t-0.5 69.5t17.5 67t33 59.5zM232 678q20 14 22 -9q22 14 51 8q20 -5 35 -20t15 -40
q0 -20 -11.5 -34t-25.5 -22q11 -26 24 -45q16 -27 27 -36t15 -5q7 22 9 49t-0.5 54.5t-10.5 54t-22 47.5q-16 24 -40 38t-51 16.5t-53.5 -6.5t-46.5 -31q-18 -20 -27 -52.5t-8.5 -69t9 -71t24.5 -56.5q20 -27 46.5 -39.5t53.5 -13.5t51.5 7.5t40.5 25.5q11 11 19 30
q-18 -6 -44 0t-39 29q-8 13 -17 29.5t-15 30.5q-2 0 -4.5 -0.5t-4.5 -0.5v-45q0 -12 -7 -19q-5 -5 -16 -14.5t-21 -17.5q-7 -5 -14 -2.5t-7 12.5v147q0 7 -3 7q-5 2 -11 -4q-11 -9 -18 0q-3 4 -1 9.5t8 9.5zM272 656q-11 2 -18 -1v-72q11 5 21.5 9.5t16.5 5.5h1q4 9 4 22
q0 12 -5.5 23t-19.5 13z" />
    <glyph glyph-name="plusminus" unicode="&#xb1;" 
d="M395 334h-195q-9 0 -15 3t-6 8t8 10.5t16 10.5t20 15t23 20q19 18 61 18h88v112q0 23 12 35q9 9 23.5 22t34.5 28q13 10 25.5 4.5t12.5 -24.5v-177h187q20 0 20 -10q0 -9 -19 -21q-14 -9 -26.5 -19t-23.5 -21q-14 -14 -50 -14h-88v-109q0 -23 -12 -35q-9 -9 -23.5 -22
t-34.5 -28q-13 -10 -25.5 -4.5t-12.5 24.5v174zM690 65q20 0 20 -10q0 -9 -19 -21q-14 -9 -26.5 -19t-23.5 -21q-14 -14 -50 -14h-391q-9 0 -15 3t-6 8t8 10.5t16 10.5t20 15t23 20q19 18 61 18h383z" />
    <glyph glyph-name="questiondown" unicode="&#xbf;" 
d="M443 226q-1 0 -1 -1q-1 0 -1.5 -0.5t-1.5 -0.5q-38 -27 -40 20l17 10q18 10 32 14.5t21 -1.5q12 -10 -11 -28q-5 -3 -8 -6l-7 -7q-1 0 -1 -1q-29 -24 -48 -55t-24 -71q-8 -58 26.5 -100t106.5 -49q54 -5 98 14q9 13 14.5 33t2.5 40.5t-15 39.5t-37 32q-14 7 -8 18
q5 8 12.5 18t16.5 19.5t17.5 17t16.5 12.5q6 4 13 4t11 -5q24 -24 34.5 -51t10.5 -54.5t-8.5 -54.5t-23.5 -50l-7 -10l-2 -3q-2 -3 -5 -6t-6 -8q-24 -29 -52.5 -44.5t-57 -22t-55 -5.5t-45.5 6q-48 10 -81.5 32t-52.5 50.5t-23.5 61t4.5 64.5q8 27 22.5 50t31.5 41
t35.5 31.5t34.5 23.5v3v123q0 23 12 35q9 9 30 27.5t41 33.5q13 10 25.5 4.5t12.5 -24.5v-145q0 -10 -3.5 -17t-14.5 -15zM442 570q-5 4 -13 10t-17 12.5t-18 12.5l-15 10q-14 9 -13 25q1 6 5 10.5t13 11.5q6 4 14.5 11t18 14.5t18 15t13.5 12.5q6 7 16.5 6.5t23.5 -9.5
l63 -46q16 -10 13 -27q0 -8 -7.5 -12.5t-13.5 -8.5q-14 -9 -32 -23t-28 -25q-18 -18 -41 0z" />
    <glyph glyph-name="multiply" unicode="&#xd7;" 
d="M380 289l-139 120q-9 8 -13 16t-6 16q-1 12 -1 32t2 45q1 15 13 21t27 -6q3 -3 19.5 -17.5t42 -36.5t58 -50t67.5 -58l126 149q9 10 16.5 14t15.5 6q13 1 32.5 0.5t44.5 -1.5q16 -1 22 -13t-7 -27l-169 -198l154 -131q9 -8 13 -16t6 -16q1 -13 1 -32.5t-2 -44.5
q-1 -15 -13 -21t-27 6l-202 173l-125 -147q-8 -10 -15.5 -14t-15.5 -5q-13 -2 -32.5 -1.5t-45.5 1.5q-15 1 -21 13t7 27z" />
    <glyph glyph-name="divide" unicode="&#xf7;" 
d="M753 345q20 0 20 -10q0 -9 -19 -21q-14 -9 -26.5 -19t-23.5 -21q-14 -14 -50 -14h-526q-9 0 -15 3t-6 8t8 10.5t16 10.5t20 15t23 20q19 18 61 18h518zM473 642q4 -4 12.5 -10t17.5 -12.5t18 -12.5l15 -10q14 -9 13 -25q-1 -6 -5 -10.5t-13 -11.5q-6 -4 -14.5 -11
t-18 -14.5t-18 -15t-13.5 -12.5q-6 -7 -16.5 -6.5t-23.5 9.5l-63 46q-16 10 -13 27q0 8 7.5 12.5t13.5 8.5q14 9 32 23t28 25q18 18 41 0zM473 102q4 -4 12.5 -10t17.5 -12.5t18 -12.5l15 -10q14 -9 13 -25q-1 -6 -5 -10.5t-13 -11.5q-6 -4 -14.5 -11t-18 -14.5t-18 -15
t-13.5 -12.5q-6 -7 -16.5 -6.5t-23.5 9.5l-63 46q-16 10 -13 27q0 8 7.5 12.5t13.5 8.5q14 9 32 23t28 25q18 18 41 0z" />
    <glyph glyph-name="enspace" unicode="&#x2002;" horiz-adv-x="500" 
 />
    <glyph glyph-name="emspace" unicode="&#x2003;" horiz-adv-x="1000" 
 />
    <glyph glyph-name="endash" unicode="&#x2013;" horiz-adv-x="500" 
d="M433 309q20 0 20 -10q0 -9 -19 -21q-14 -9 -26.5 -19t-23.5 -21q-14 -14 -50 -14h-266q-9 0 -15 3t-6 8t8 10.5t16 10.5t20 15t23 20q19 18 61 18h258z" />
    <glyph glyph-name="emdash" unicode="&#x2014;" horiz-adv-x="833" 
d="M743 290q20 0 20 -10q0 -9 -19 -21q-14 -9 -26.5 -19t-23.5 -21q-14 -14 -50 -14h-576q-9 0 -15 3t-6 8t8 10.5t16 10.5t20 15t23 20q19 18 61 18h568z" />
    <glyph glyph-name="quoteleft" unicode="&#x2018;" horiz-adv-x="350" 
d="M218 531q-5 4 -13.5 11t-18.5 14.5t-19.5 14t-15.5 10.5q-12 8 -14.5 18t1.5 24q4 19 13 37t25.5 38t42 43t62.5 52q6 5 14 6.5t13 -3.5q4 -3 2.5 -10.5t-9.5 -12.5q-27 -20 -43.5 -37.5t-18.5 -30.5q-2 -11 2.5 -21t13.5 -16l50 -36q23 -18 2 -42q-11 -11 -26.5 -29.5
t-24.5 -29.5q-17 -17 -38 0z" />
    <glyph glyph-name="quoteright" unicode="&#x2019;" horiz-adv-x="350" 
d="M119 790q4 -4 13 -11t19 -14.5t19.5 -14t15.5 -10.5q12 -8 14.5 -18t-1.5 -24q-5 -19 -13.5 -37t-25 -38t-42 -43t-62.5 -52q-6 -5 -14 -6.5t-13 3.5q-4 3 -2.5 10.5t9.5 12.5q27 20 43.5 37.5t18.5 30.5q2 11 -2.5 21t-13.5 16l-50 36q-23 18 -2 42q11 11 26.5 29.5
t24.5 29.5q17 17 38 0z" />
    <glyph glyph-name="quotedblleft" unicode="&#x201c;" horiz-adv-x="500" 
d="M376 531q-5 4 -13.5 11t-18.5 14.5t-19.5 14t-15.5 10.5q-12 8 -14.5 18t1.5 24q4 19 13 37t25.5 38t42 43t62.5 52q6 5 14 6.5t13 -3.5q4 -3 2.5 -10.5t-9.5 -12.5q-27 -20 -43.5 -37.5t-18.5 -30.5q-2 -11 2.5 -21t13.5 -16l50 -36q23 -18 2 -42q-11 -11 -26.5 -29.5
t-24.5 -29.5q-17 -17 -38 0zM171 531q-5 4 -13.5 11t-18.5 14.5t-19.5 14t-15.5 10.5q-12 8 -14.5 18t1.5 24q4 19 13 37t25.5 38t42 43t62.5 52q6 5 14 6.5t13 -3.5q4 -3 2.5 -10.5t-9.5 -12.5q-27 -20 -43.5 -37.5t-18.5 -30.5q-2 -11 2.5 -21t13.5 -16l50 -36
q23 -18 2 -42q-11 -11 -26.5 -29.5t-24.5 -29.5q-17 -17 -38 0z" />
    <glyph glyph-name="quotedblright" unicode="&#x201d;" horiz-adv-x="500" 
d="M111 790q4 -4 13 -11t19 -14.5t19.5 -14t15.5 -10.5q12 -8 14.5 -18t-1.5 -24q-5 -19 -13.5 -37t-25 -38t-42 -43t-62.5 -52q-6 -5 -14 -6.5t-13 3.5q-4 3 -2.5 10.5t9.5 12.5q27 20 43.5 37.5t18.5 30.5q2 11 -2.5 21t-13.5 16l-50 36q-23 18 -2 42q11 11 26.5 29.5
t24.5 29.5q17 17 38 0zM316 790q4 -4 13 -11t19 -14.5t19.5 -14t15.5 -10.5q12 -8 14.5 -18t-1.5 -24q-5 -19 -13.5 -37t-25 -38t-42 -43t-62.5 -52q-6 -5 -14 -6.5t-13 3.5q-4 3 -2.5 10.5t9.5 12.5q27 20 43.5 37.5t18.5 30.5q2 11 -2.5 21t-13.5 16l-50 36q-23 18 -2 42
q11 11 26.5 29.5t24.5 29.5q17 17 38 0z" />
    <glyph glyph-name="dagger" unicode="&#x2020;" 
d="M399 426h-175q-9 0 -15 3t-6 8t8 10.5t16 10.5t20 15t23 20q19 18 61 18h68v142q0 23 12 35q9 9 23.5 22t34.5 28q13 10 25.5 4.5t12.5 -24.5v-207h177q20 0 20 -10q0 -9 -19 -21q-14 -9 -26.5 -19t-23.5 -21q-14 -14 -50 -14h-78v-479q0 -23 -12 -35q-9 -9 -23.5 -22
t-34.5 -28q-13 -10 -25.5 -4.5t-12.5 24.5v544z" />
    <glyph glyph-name="bulletoperator" unicode="&#x2022;" 
d="M487 399q6 -6 17.5 -14t23.5 -17t24 -17t20 -13q20 -11 18 -34q-1 -8 -6.5 -14t-17.5 -15q-8 -5 -20 -14.5t-24.5 -20t-24 -20.5t-18.5 -17q-8 -9 -22.5 -8.5t-31.5 12.5l-85 62q-10 6 -14.5 16t-2.5 21q0 11 10 17t18 11q9 6 20.5 14t22.5 17t21.5 17.5t16.5 16.5
q25 24 55 0z" />
    <glyph glyph-name="twodotenleader" unicode="&#x2025;" 
d="M689 396q4 -4 12.5 -10t17.5 -12.5t18 -12.5l15 -10q14 -9 13 -25q-1 -6 -5 -10.5t-13 -11.5q-6 -4 -14.5 -11t-18 -14.5t-18 -15t-13.5 -12.5q-6 -7 -16.5 -6.5t-23.5 9.5l-63 46q-16 10 -13 27q0 8 7.5 12.5t13.5 8.5q14 9 32 23t28 25q18 18 41 0zM249 396
q4 -4 12.5 -10t17.5 -12.5t18 -12.5l15 -10q14 -9 13 -25q-1 -6 -5 -10.5t-13 -11.5q-6 -4 -14.5 -11t-18 -14.5t-18 -15t-13.5 -12.5q-6 -7 -16.5 -6.5t-23.5 9.5l-63 46q-16 10 -13 27q0 8 7.5 12.5t13.5 8.5q14 9 32 23t28 25q18 18 41 0z" />
    <glyph glyph-name="ellipsis" unicode="&#x2026;" 
d="M173 402q4 -4 12.5 -10t17.5 -12.5t18 -12.5l15 -10q14 -9 13 -25q-1 -6 -5 -10.5t-13 -11.5q-6 -4 -14.5 -11t-18 -14.5t-18 -15t-13.5 -12.5q-6 -7 -16.5 -6.5t-23.5 9.5l-63 46q-16 10 -13 27q0 8 7.5 12.5t13.5 8.5q14 9 32 23t28 25q18 18 41 0zM473 402
q4 -4 12.5 -10t17.5 -12.5t18 -12.5l15 -10q14 -9 13 -25q-1 -6 -5 -10.5t-13 -11.5q-6 -4 -14.5 -11t-18 -14.5t-18 -15t-13.5 -12.5q-6 -7 -16.5 -6.5t-23.5 9.5l-63 46q-16 10 -13 27q0 8 7.5 12.5t13.5 8.5q14 9 32 23t28 25q18 18 41 0zM773 402q4 -4 12.5 -10
t17.5 -12.5t18 -12.5l15 -10q14 -9 13 -25q-1 -6 -5 -10.5t-13 -11.5q-6 -4 -14.5 -11t-18 -14.5t-18 -15t-13.5 -12.5q-6 -7 -16.5 -6.5t-23.5 9.5l-63 46q-16 10 -13 27q0 8 7.5 12.5t13.5 8.5q14 9 32 23t28 25q18 18 41 0z" />
    <glyph glyph-name="perthousand" unicode="&#x2030;" horiz-adv-x="1100" 
d="M525 685q6 11 13.5 16.5t13.5 8.5q12 3 31.5 7t44.5 8q16 2 24.5 -8.5t-1.5 -28.5q-2 -4 -19 -35t-43.5 -79t-60 -108.5t-68.5 -123.5t-69 -124t-61 -110.5l-45 -82.5t-22 -40q-6 -11 -13.5 -16.5t-13.5 -8.5q-12 -3 -31.5 -7t-44.5 -8q-16 -2 -24 8.5t1 28.5zM101 623
q28 37 64 60t67 24q30 2 57 -17.5t46 -51.5q10 -19 14.5 -41t3.5 -44.5t-7.5 -44t-18.5 -39.5q-46 -73 -114 -96q-17 -6 -35 -4t-36 10.5t-34 23.5t-27 36q-12 21 -15.5 45.5t0 49t12.5 47.5t23 42zM251 593q-16 23 -42 30.5t-46 -14.5q-9 -10 -12.5 -25t-2.5 -31t5.5 -31.5
t12.5 -27.5q18 -27 45.5 -32.5t45.5 14.5q7 9 10.5 23t2.5 30t-5.5 33t-13.5 31zM448 194q28 37 64 60t67 24q30 2 57.5 -17.5t45.5 -51.5q10 -19 14.5 -41t3.5 -44.5t-7.5 -44t-18.5 -39.5q-46 -73 -114 -96q-17 -6 -35 -4t-36 10.5t-34 23.5t-27 36q-12 21 -15.5 45.5
t0 49t12.5 47.5t23 42zM598 164q-8 12 -19 20t-23 11t-24 -0.5t-22 -14.5q-9 -10 -12.5 -25t-2.5 -31t5.5 -31.5t12.5 -27.5q18 -27 45.5 -32.5t45.5 14.5q7 9 10.5 23t3 30.5t-5.5 33t-14 30.5zM784 194q28 37 64 59.5t67 24.5q30 1 57.5 -18t45.5 -51q10 -19 14.5 -41
t3.5 -44.5t-7.5 -44t-18.5 -39.5q-46 -73 -114 -96q-17 -6 -35 -4t-36 10.5t-34 23.5t-27 36q-12 21 -15.5 45.5t0 49t12.5 47.5t23 42zM934 164q-8 12 -19 20t-23 11t-24 -0.5t-22 -14.5q-9 -10 -12.5 -25t-2.5 -31t5.5 -31.5t12.5 -27.5q18 -27 45.5 -32.5t45.5 14.5
q7 9 10.5 23t3 30.5t-5.5 33t-14 30.5z" />
    <glyph glyph-name="minute" unicode="&#x2032;" 
d="M252 780q8 -9 16 -17.5t17 -19.5q16 -19 11 -45t-21 -47q-9 -13 -20.5 -25.5t-26.5 -27t-35 -32t-47 -38.5q-6 -5 -14 -6.5t-13 3.5q-3 4 -1.5 10.5t9.5 11.5q27 20 39.5 42.5t14.5 45.5q2 22 -6.5 33.5t-16.5 19.5l-8 7q-21 21 5 42q12 9 30.5 25t29.5 25q19 14 37 -7z
" />
    <glyph glyph-name="second" unicode="&#x2033;" 
d="M185 780q8 -9 16 -17.5t17 -19.5q16 -19 11 -45t-21 -47q-9 -13 -20.5 -25.5t-26.5 -27t-35 -32t-47 -38.5q-6 -5 -14 -6.5t-13 3.5q-3 4 -1.5 10.5t9.5 11.5q27 20 39.5 42.5t14.5 45.5q2 22 -6.5 33.5t-16.5 19.5l-8 7q-21 21 5 42q12 9 30.5 25t29.5 25q19 14 37 -7z
M376 782q8 -9 16 -17.5t17 -19.5q16 -19 11 -45t-21 -47q-9 -13 -20.5 -25.5t-26.5 -27t-35 -32t-47 -38.5q-6 -5 -14 -6.5t-13 3.5q-3 4 -1.5 10.5t9.5 11.5q27 20 39.5 42.5t14.5 45.5q2 22 -6.5 33.5t-16.5 19.5l-8 7q-21 21 5 42q12 9 30.5 25t29.5 25q19 14 37 -7z" />
    <glyph glyph-name="uni203B" unicode="&#x203b;" 
d="M380 289l-139 120q-9 8 -13 16t-6 16q-1 12 -1 32t2 45q1 15 13 21t27 -6q3 -3 19.5 -17.5t42 -36.5t58 -50t67.5 -58l126 149q9 10 16.5 14t15.5 6q13 1 32.5 0.5t44.5 -1.5q16 -1 22 -13t-7 -27l-169 -198l154 -131q9 -8 13 -16t6 -16q1 -13 1 -32.5t-2 -44.5
q-1 -15 -13 -21t-27 6l-202 173l-125 -147q-8 -10 -15.5 -14t-15.5 -5q-13 -2 -32.5 -1.5t-45.5 1.5q-15 1 -21 13t7 27zM783 399q4 -4 12.5 -10t17.5 -12.5t18 -12.5l15 -10q14 -9 13 -25q-1 -6 -5 -10.5t-13 -11.5q-6 -4 -14.5 -11t-18 -14.5t-18 -15t-13.5 -12.5
q-6 -7 -16.5 -6.5t-23.5 9.5l-63 46q-16 10 -13 27q0 8 7.5 12.5t13.5 8.5q14 9 32 23t28 25q18 18 41 0zM166 334q4 -4 12.5 -10t17.5 -12.5t18 -12.5l15 -10q14 -9 13 -25q-1 -6 -5 -10.5t-13 -11.5q-6 -4 -14.5 -11t-18 -14.5t-18 -15t-13.5 -12.5q-6 -7 -16.5 -6.5
t-23.5 9.5l-63 46q-16 10 -13 27q0 8 7.5 12.5t13.5 8.5q14 9 32 23t28 25q18 18 41 0zM519 54q4 -4 12.5 -10t17.5 -12.5t18 -12.5l15 -10q14 -9 13 -25q-1 -6 -5 -10.5t-13 -11.5q-6 -4 -14.5 -11t-18 -14.5t-18 -15t-13.5 -12.5q-6 -7 -16.5 -6.5t-23.5 9.5l-63 46
q-16 10 -13 27q0 8 7.5 12.5t13.5 8.5q14 9 32 23t28 25q18 18 41 0zM459 704q4 -4 12.5 -10t17.5 -12.5t18 -12.5l15 -10q14 -9 13 -25q-1 -6 -5 -10.5t-13 -11.5q-6 -4 -14.5 -11t-18 -14.5t-18 -15t-13.5 -12.5q-6 -7 -16.5 -6.5t-23.5 9.5l-63 46q-16 10 -13 27
q0 8 7.5 12.5t13.5 8.5q14 9 32 23t28 25q18 18 41 0z" />
    <glyph glyph-name="won" unicode="&#x20a9;" 
d="M34 583q28 23 56 45t46 37q18 13 28.5 12t17.5 -19q1 -5 10 -29.5t22.5 -61t30 -82.5t34.5 -93h98l-57 161q-2 5 -3 9t-5 5q-5 2 -9.5 -2t-9.5 -9q-10 -8 -18.5 -10.5t-14.5 5.5q-7 6 -6 19.5t12 21.5q28 24 56 46t46 36q19 14 29 13t17 -19q2 -5 11 -31t23 -64
l31.5 -85.5t35.5 -95.5h155q5 54 -4 104.5t-33 95.5q-5 11 -1.5 19.5t14.5 17.5q20 19 34 29t30 21q19 12 28.5 11.5t17.5 -18.5q24 -59 36.5 -128t-3.5 -152h70q19 0 19 -10q0 -8 -18 -19q-12 -8 -24 -17.5t-22 -19.5q-13 -13 -47 -13h-2q-14 -33 -33 -65t-40 -61t-42 -53
t-39 -41l-3 -3l-64 -57q-13 -13 -22.5 -13.5t-17.5 19.5q-2 5 -11 30.5t-22.5 63.5t-30.5 85t-34 95h-98l72 -194q5 -14 6 -25t-7 -19q-17 -15 -32.5 -28t-32.5 -30q-12 -12 -21.5 -12t-17.5 21l-104 287h-131q-19 0 -19 10q0 4 7.5 9.5t14.5 9.5q7 5 18.5 14.5t21.5 18.5
q18 17 57 17h2l-54 151q-2 6 -3 9.5t-6 4.5q-5 2 -9 -2t-10 -9q-9 -8 -17.5 -10.5t-14.5 5.5q-7 8 -6 20.5t12 21.5zM544 313q15 -43 28.5 -79t22.5 -61q17 29 33.5 64.5t27.5 75.5h-112z" />
    <glyph glyph-name="trademark" unicode="&#x2122;" 
d="M364 626q3 2 16.5 13.5t29.5 25.5t31.5 27t23.5 19q24 17 33 0l3 -6q2 -6 11.5 -30.5t22.5 -56t26.5 -65.5t24.5 -61l41 126q5 14 16 21l25 18q17 12 38.5 28t32.5 26q16 13 26 7.5t10 -28.5v-253q0 -11 -3 -19t-8 -13q-8 -9 -19 -19.5t-28 -24.5q-12 -8 -23.5 -3
t-11.5 22v177l-38 -106q-9 -22 -17 -29q-7 -7 -17.5 -16t-24.5 -20q-4 -4 -6 -5q-2 -2 -5 -2q-8 -4 -13 -1t-10 15q-2 4 -7 19t-12 35.5t-15 45t-15 47.5v-103q0 -11 -3 -19t-8 -13q-8 -9 -19 -19.5t-28 -24.5q-12 -8 -23.5 -3t-11.5 22v208q0 11 -6 13q-5 2 -19 -7
q-8 -7 -17 -7t-14 7t-2 15.5t13 16.5zM245 630h-142q-19 0 -19 11q0 4 7.5 9.5t14.5 9.5q7 5 18 14t21 19q10 9 22.5 12.5t32.5 3.5h150q9 0 12.5 -1.5t5.5 -5.5q2 -5 -2 -11t-11 -11q-11 -10 -20.5 -18.5t-22.5 -17.5q-9 -8 -18 -10q2 -8 2 -15v-170q0 -23 -11 -32
q-8 -8 -27.5 -25t-37.5 -31q-11 -8 -22.5 -3t-11.5 22v178q0 14 3.5 24.5t14.5 18.5z" />
    <glyph glyph-name="centercircle" unicode="&#x2219;" 
d="M473 374q4 -4 12.5 -10t17.5 -12.5t18 -12.5l15 -10q14 -9 13 -25q-1 -6 -5 -10.5t-13 -11.5q-6 -4 -14.5 -11t-18 -14.5t-18 -15t-13.5 -12.5q-6 -7 -16.5 -6.5t-23.5 9.5l-63 46q-16 10 -13 27q0 8 7.5 12.5t13.5 8.5q14 9 32 23t28 25q18 18 41 0z" />
    <glyph glyph-name="glyphless" unicode="&#x25a1;" 
d="M181 607q5 5 19 16t33 22q6 5 12 7t9 2q13 3 37 3h347h4h93q6 0 8 -1q2 0 6 -2q3 -2 5 -5q5 -8 5 -22v-511q0 -8 -1.5 -15.5t-6.5 -14.5l-10 -9l-20 -13l-22 -16t-19 -16t-17 -10t-27 -2h-75h-8h-373h-7l-7 3q-9 7 -9 23v496q0 15 0.5 24.5t2.5 16t7 12t14 12.5zM638 105
v439v28h-2h-89h-8h-20h-4h-237v-450q0 -5 -0.5 -9t-1.5 -8h15h347z" />
    <glyph glyph-name="hidecircle" unicode="&#x25cb;" 
d="M334 583q-21 -17 -37 -20.5t-24 4.5t-3.5 21.5t26.5 33.5q13 12 34.5 27.5t48.5 30t57.5 24.5t62.5 11q69 2 129 -41t102 -117q24 -42 34.5 -91.5t8 -100t-17.5 -99.5t-41 -90q-107 -165 -258 -218q-37 -12 -79 -8t-82.5 23.5t-76.5 54t-61 82.5q-24 47 -33 95t-5.5 94
t17 90t34.5 84q10 19 28.5 31t35.5 3q16 -8 18.5 -27.5t-2.5 -46.5q-11 -66 1.5 -132t50.5 -124q29 -44 70.5 -67.5t84 -29t82 6.5t63.5 39t36.5 74t12 102t-14.5 111t-43 101q-29 44 -66 66t-74 28t-69 -2t-50 -23z" />
    <glyph glyph-name="uni3000" unicode="&#x3000;" 
d="M483 302q5 -4 5 -9q0 -3 -6 -7q-4 -2 -10.5 -8t-10.5 -9q-4 -5 -13 1l-21 14q-5 5 -4 10q0 2 2.5 3.5t4.5 3.5q5 2 10.5 6.5t8.5 8.5q6 6 14 0z" />
    <glyph glyph-name="uni3008" unicode="&#x3008;" 
d="M864 -75q-14 -17 -31 -37.5t-27 -33.5q-10 -14 -23 -17t-23 11q-29 43 -67 103t-75.5 122t-71 118t-53.5 91q-15 27 -4 44q6 9 16 22t20.5 26t20.5 26t18 22q22 28 56 71.5t70 90.5t69 91t54 73q16 22 33 14q17 -9 -3 -40q-20 -32 -48 -71.5t-58.5 -82.5t-61.5 -86
t-58 -81q-7 -10 -6.5 -19.5t5.5 -20.5q12 -24 29.5 -55.5t38 -65.5t43 -70t43.5 -69t40.5 -62t33.5 -50q20 -29 25.5 -39.5t-5.5 -24.5z" />
    <glyph glyph-name="uni3009" unicode="&#x3009;" 
d="M23 671q14 17 31 37.5t27 33.5q10 14 22.5 17t23.5 -11q33 -41 71.5 -91.5t75 -101.5t68.5 -98.5t52 -82.5q15 -27 4 -44l-75 -109q-14 -20 -34 -50.5t-43 -65.5t-47.5 -72t-47.5 -71.5l-43 -64.5t-34 -49q-16 -22 -33 -14q-17 9 3 40t49 78t60.5 98.5t62 102t54.5 89.5
q11 18 1 40q-18 36 -47 80.5t-61 89t-64 85.5t-56 70q-11 14 -18 23t-9 15.5t-0.5 12.5t7.5 13z" />
    <glyph glyph-name="uni300A" unicode="&#x300a;" 
d="M864 -75q-14 -17 -31 -37.5t-27 -33.5q-10 -14 -23 -17t-23 11q-29 43 -67 103t-75.5 122t-71 118t-53.5 91q-15 27 -4 44q6 9 16 22t20.5 26t20.5 26t18 22q22 28 56 71.5t70 90.5t69 91t54 73q16 22 33 14q17 -9 -3 -40q-20 -32 -48 -71.5t-58.5 -82.5t-61.5 -86
t-58 -81q-7 -10 -6.5 -19.5t5.5 -20.5q12 -24 29.5 -55.5t38 -65.5t43 -70t43.5 -69t40.5 -62t33.5 -50q20 -29 25.5 -39.5t-5.5 -24.5zM621 -75q-14 -17 -31 -37.5t-27 -33.5q-10 -14 -23 -17t-23 11q-29 43 -67 103t-75.5 122t-71 118t-53.5 91q-15 27 -4 44q6 9 16 22
t20.5 26t20.5 26t18 22q22 28 56 71.5t70 90.5t69 91t54 73q16 22 33 14q17 -9 -3 -40q-20 -32 -48 -71.5t-58.5 -82.5t-61.5 -86t-58 -81q-7 -10 -6.5 -19.5t5.5 -20.5q12 -24 29.5 -55.5t38 -65.5t43 -70t43.5 -69t40.5 -62t33.5 -50q20 -29 25.5 -39.5t-5.5 -24.5z" />
    <glyph glyph-name="uni300B" unicode="&#x300b;" 
d="M279 676q14 17 31 37.5t27 33.5q10 14 22.5 17t23.5 -11q33 -41 69.5 -91.5t70.5 -101.5t63.5 -98.5t49.5 -82.5q8 -14 7 -26.5t-7 -22.5l-75 -109q-14 -20 -34 -50.5t-43 -65.5t-47.5 -72t-47.5 -71.5l-43 -64.5t-34 -49q-16 -22 -33 -14q-17 9 3 40t49 78t60.5 98.5
t62 102t54.5 89.5q11 18 1 40q-18 36 -44 81t-55.5 90.5t-58.5 87t-52 71.5q-11 14 -17.5 23t-9 15.5t-1 12.5t7.5 13zM23 671q14 17 31 37.5t27 33.5q10 14 22.5 17t23.5 -11q33 -41 71.5 -91.5t75 -101.5t68.5 -98.5t52 -82.5q15 -27 4 -44l-75 -109q-14 -20 -34 -50.5
t-43 -65.5t-47.5 -72t-47.5 -71.5l-43 -64.5t-34 -49q-16 -22 -33 -14q-17 9 3 40t49 78t60.5 98.5t62 102t54.5 89.5q11 18 1 40q-18 36 -47 80.5t-61 89t-64 85.5t-56 70q-11 14 -18 23t-9 15.5t-0.5 12.5t7.5 13z" />
    <glyph glyph-name="uni300C" unicode="&#x300c;" 
d="M567 738q5 5 19 16t33 22l8 4t9 4q1 1 4 1q13 3 37 3h181q20 0 20 -10q0 -9 -19 -21q-14 -9 -26.5 -19t-23.5 -21q-14 -14 -50 -14h-95v-281q0 -23 -12 -35q-9 -9 -30 -27.5t-41 -33.5q-13 -10 -25.5 -4.5t-12.5 24.5v327q0 15 0.5 24.5t2.5 16t7 12t14 12.5z" />
    <glyph glyph-name="uni300D" unicode="&#x300d;" 
d="M249 -107v260q0 15 0.5 24.5t2.5 16t7 12t14 12.5q6 5 21.5 17.5t35.5 23.5q16 9 28 5.5t12 -28.5v-332q0 -8 -1.5 -15.5t-6.5 -14.5l-8 -7q-5 -5 -11 -8t-11 -6q-11 -8 -22 -16.5t-19 -16.5t-17 -10t-27 -2h-207q-9 0 -15 3t-6 8t8 10.5t16 10.5t20 15t23 20
q19 18 61 18h102z" />
    <glyph glyph-name="uni300E" unicode="&#x300e;" 
d="M527 738q5 5 19 16t33 22q6 5 12 7t9 2q13 3 37 3h221q20 0 20 -10q0 -9 -19 -21q-14 -9 -26.5 -19t-23.5 -21q-14 -14 -50 -14h-135v-281q0 -23 -12 -35q-9 -9 -30 -27.5t-41 -33.5q-13 -10 -25.5 -4.5t-12.5 24.5v327q0 15 0.5 24.5t2.5 16t7 12t14 12.5zM786 661v-91
q0 -23 -12 -35q-9 -9 -30 -27.5t-41 -33.5q-13 -10 -25.5 -4.5t-12.5 24.5v167h121z" />
    <glyph glyph-name="uni300F" unicode="&#x300f;" 
d="M259 -107v260q0 15 0.5 24.5t2.5 16t7 12t14 12.5q6 5 21.5 17.5t35.5 23.5q16 9 28 5.5t12 -28.5v-332q0 -8 -1.5 -15.5t-6.5 -14.5l-4 -4t-6 -4l-20 -13q-11 -8 -22 -16.5t-19 -16.5t-17 -10t-27 -2h-217q-9 0 -15 3t-6 8t8 10.5t16 10.5t20 15t23 20q19 18 61 18h112z
M104 -68v91q0 23 12 35q9 9 30 27.5t41 33.5q13 10 25.5 4.5t12.5 -24.5v-167h-121z" />
    <glyph glyph-name="katakanacentercircle" unicode="&#x30fb;" 
d="M466 326q5 -4 14.5 -10.5t14.5 -10.5q6 -4 6 -12q0 -4 -8 -10q-5 -3 -15 -11t-15 -13q-5 -7 -18 1l-29 21q-8 5 -6 13q0 4 3.5 6t6.5 4q6 4 14 10.5t13 11.5q8 8 19 0z" />
    <glyph glyph-name="uni3131" unicode="&#x3131;" 
d="M190 518q11 6 24.5 15t23.5 17q11 8 21.5 10.5t29.5 0.5q17 -2 39 -3t58 0q16 0 36 1t40.5 2.5t40 2.5t34.5 1q27 1 50 -1t42.5 -8.5t37 -19t34.5 -33.5q33 -42 40 -95t-8.5 -111t-53.5 -116t-95 -110q-11 -9 -21 -11.5t-14 0.5q-5 5 -4 15.5t5 17.5q19 38 37.5 80.5
t28.5 84t7.5 80t-24.5 70.5q-16 23 -37 36.5t-43.5 20.5t-44.5 8.5t-39 1.5q-19 -1 -54 -2.5t-77 -1.5q-15 0 -33 0.5t-35 1.5t-32 3t-25 5q-14 5 -11.5 15.5t22.5 21.5z" />
    <glyph glyph-name="uni3132" unicode="&#x3132;" 
d="M139 520q11 6 24.5 15t23.5 17q11 8 20 10.5t28 1.5q28 -1 63 -0.5t58 1.5q15 1 31 -1.5t28 -10.5q10 8 19 10t27 1q28 -1 63 -0.5t58 1.5q9 0 27 1t38 0t37.5 -3.5t26.5 -9.5q16 -12 25 -39.5t11.5 -64.5t-1.5 -80t-14 -87q-5 -22 -14 -46.5t-23 -50.5t-35 -51.5
t-50 -48.5q-12 -10 -23.5 -13t-15.5 0q-6 5 -5 17.5t6 20.5q15 31 27 68.5t18 69.5q14 78 12.5 134t-26.5 82q-13 13 -34 16.5t-40 2.5q-14 -1 -35.5 -1.5t-44.5 -0.5q7 -38 5.5 -90t-17.5 -109q-12 -43 -37.5 -93t-76.5 -104q-11 -11 -23 -13.5t-16 0.5q-6 5 -5 17.5
t6 20.5q15 31 28 68.5t19 69.5q8 40 8 74t-4.5 60t-11.5 44t-13 26q-21 29 -59 27q-15 -1 -34 -1t-37 0.5t-32.5 1.5t-20.5 3q-14 4 -11.5 15t22.5 22z" />
    <glyph glyph-name="uni3133" unicode="&#x3133;" 
d="M149 510q11 6 24.5 15t23.5 17q11 8 20 10.5t28 1.5q28 -1 63 -0.5t58 1.5q18 1 36.5 -2.5t30.5 -15.5q10 -11 18.5 -33t12 -54t0 -72t-16.5 -86q-12 -43 -37.5 -93t-76.5 -104q-11 -11 -23 -13.5t-16 0.5q-6 5 -5 17.5t6 20.5q15 31 28 68.5t19 69.5q8 40 8 71
t-4.5 53.5t-11.5 37t-13 22.5q-21 29 -59 27q-15 -1 -34 -1t-37 0.5t-32.5 1.5t-20.5 3q-14 4 -11.5 15t22.5 22zM704 312q11 7 25 -4q6 -4 16 -11.5t22 -17.5t23.5 -22t19.5 -24q11 -16 15.5 -36t-0.5 -41q-6 -31 -62 -59q-9 -5 -14.5 -0.5t-7.5 13.5q-1 5 -2 12.5t-4 21.5
q-10 42 -25.5 64.5t-32.5 33.5q-11 7 -17 11t-12 9t-5.5 12.5t6.5 12.5q6 4 14 7t13 5q9 3 16 6t12 7zM520 510q14 10 38 24t53 19q19 3 31 -5q20 -15 26 -54q3 -25 2 -55.5t-6.5 -61.5t-15.5 -61t-24 -54q-18 -30 -42 -59.5t-52.5 -53.5t-60 -41t-64.5 -22
q-13 -2 -17.5 -0.5t-5.5 4.5q-2 5 2.5 10t16.5 15q39 30 74.5 78.5t57.5 98.5q8 18 14 39.5t9 44t3 43.5t-5 38q-3 11 -10.5 13t-13.5 2q-18 2 -22 10q-3 5 1 14t11 14z" />
    <glyph glyph-name="uni3134" unicode="&#x3134;" 
d="M181 518q17 8 37.5 13.5t52.5 3.5q19 -2 28 -13q5 -6 9.5 -14.5t6.5 -23.5q3 -32 10.5 -67t20.5 -67.5t31.5 -61t44.5 -48.5q30 -23 66.5 -34t74.5 -10.5t74.5 12t66.5 34.5q18 13 23 2q8 -8 -3 -25q-28 -45 -76 -70.5t-103 -31.5t-110.5 7t-98.5 45q-35 26 -58 63
t-37.5 75t-22 72.5t-9.5 54.5q-3 24 -9.5 33t-17.5 12q-18 5 -22 15q0 7 6 14t15 10z" />
    <glyph glyph-name="uni3135" unicode="&#x3135;" 
d="M772 537q20 0 20 -10q0 -9 -19 -21q-14 -9 -26.5 -19t-23.5 -21q-14 -14 -50 -14h-45q6 -6 9 -15q5 -14 6.5 -35.5t-0.5 -44.5q-5 -49 -30.5 -97.5t-69.5 -90.5q-14 -14 -33.5 -28t-40 -26t-40 -21t-33.5 -12t-22.5 -1.5t-10.5 6.5t4 11t16 13q5 3 19 16t30.5 30t33 35.5
t25.5 33.5q18 29 25.5 65t2.5 74q-2 17 -4.5 29t-4.5 26q-2 12 5.5 16.5t14.5 6.5l38 9h-153q-9 0 -15 3t-6 8t8 10.5t16 10.5t20 15t23 20q19 18 61 18h250zM125 533q20 5 41 5.5t48 -5.5q20 -4 28 -19q5 -9 6 -19.5t1 -27.5q0 -103 19 -158.5t52 -79.5q23 -17 56 -9t62 30
q16 12 24 6q6 -5 5 -14t-8 -17q-22 -29 -48.5 -51t-54.5 -34t-57 -13t-56 13q-21 10 -40.5 29t-34.5 52.5t-24.5 85t-9.5 126.5q0 27 -2.5 38t-13.5 16q-8 4 -14 9.5t-6 11.5q0 8 8.5 15t18.5 10zM674 278q5 4 11.5 3.5t14.5 -2.5q12 -4 32.5 -12.5t35.5 -22.5t24.5 -35
t7.5 -43q-2 -33 -53 -67q-8 -6 -14.5 -3t-8.5 13q-1 5 -2 15t-6 24q-5 17 -20 32t-29 22q-11 6 -23 10.5t-19 8.5t-7 12t5 13t12.5 9.5l12.5 7.5q8 4 14.5 7.5t11.5 7.5z" />
    <glyph glyph-name="uni3136" unicode="&#x3136;" 
d="M467 127q-14 20 -18 44.5t3 50.5t27 53t55 51q31 21 62.5 27t59.5 0.5t50 -20t36 -33.5q13 -19 16.5 -44.5t-4.5 -53t-27.5 -54t-51.5 -46.5q-31 -20 -62 -26t-59 -1.5t-51 18.5t-36 34zM125 533q20 5 41 5.5t48 -5.5q20 -4 28 -19q5 -9 6 -19.5t1 -27.5q0 -48 5 -95.5
t16.5 -85t29 -61t42.5 -23.5q18 1 33.5 18.5t19.5 45.5q3 22 16 22q8 0 12.5 -6.5t4.5 -17.5q1 -36 -13.5 -66t-38.5 -50.5t-55 -28.5t-64 1q-28 7 -50.5 29t-38.5 60t-25 93.5t-9 130.5q0 27 -2.5 38t-13.5 16q-8 4 -14 9.5t-6 11.5q0 8 8.5 15t18.5 10zM756 454
q20 0 20 -10q0 -9 -19 -21q-9 -6 -18.5 -14t-18.5 -16q-14 -14 -50 -14h-248q-9 0 -15 3t-6 8t8 10.5t16 10.5q5 3 13 10t17 15q19 18 61 18h240zM716 568q20 0 20 -10q0 -9 -19 -21q-9 -6 -18.5 -14t-18.5 -16q-14 -14 -50 -14h-138q-9 0 -15 3t-6 8t8 10.5t16 10.5
q5 3 13 10t17 15q19 18 61 18h130zM560 185q11 -13 25.5 -20.5t28 -11t24.5 -3t16 3.5q4 3 8 13t4.5 23.5t-4 28.5t-15.5 29q-11 13 -26 21t-29.5 12t-26.5 4t-16 -3q-5 -3 -7.5 -13.5t-2 -24.5t5 -29.5t15.5 -29.5z" />
    <glyph glyph-name="uni3137" unicode="&#x3137;" 
d="M710 536q20 0 20 -10q0 -9 -19 -21q-14 -9 -26.5 -19t-23.5 -21q-14 -14 -50 -14h-278q-4 -30 0.5 -63t20 -65t42.5 -59t68 -45q32 -14 64 -18.5t60.5 -0.5t52.5 16t41 30q14 14 26 7q5 -3 5.5 -11t-3.5 -13q-20 -30 -51 -56t-69.5 -42t-83 -20t-90.5 11q-54 17 -94 52
t-64 77t-30.5 86t7.5 79q7 17 33 35h-77q-9 0 -15 3t-6 8t8 10.5t16 10.5t20 15t23 20q19 18 61 18h412z" />
    <glyph glyph-name="uni3138" unicode="&#x3138;" 
d="M737 536q20 0 20 -10q0 -9 -19 -21q-14 -9 -26.5 -19t-23.5 -21q-14 -14 -50 -14h-61q-24 -50 -31.5 -89.5t-4.5 -68.5t15 -49t28 -31q15 -11 34.5 -17t39.5 -5.5t40 9t37 26.5q14 14 26 7q6 -3 5.5 -10.5t-3.5 -13.5q-18 -34 -45.5 -60t-60.5 -39.5t-68.5 -12.5
t-68.5 19q-23 12 -38.5 31.5t-24.5 42.5q-19 -29 -44.5 -50t-53.5 -31.5t-57.5 -9t-56.5 16.5q-40 22 -58.5 63.5t-17.5 89t19.5 96t52.5 86.5h-78q-9 0 -15 3t-6 8t8 10.5t16 10.5t20 15t23 20q19 18 61 18h172q20 0 20 -10q0 -9 -19 -21q-14 -9 -26.5 -19t-23.5 -21
q-14 -14 -50 -14h-41q-24 -50 -31.5 -89.5t-4.5 -68.5t15 -49t28 -31q13 -9 29 -15t33 -6t34.5 8t34.5 26l6 5q-8 55 10 115t60 105h-78q-9 0 -15 3t-6 8t8 10.5t16 10.5t20 15t23 20q19 18 61 18h192z" />
    <glyph glyph-name="uni3139" unicode="&#x3139;" 
d="M172 300q8 7 15.5 13t18.5 12q12 10 24 19.5t16 11.5q6 5 18 7.5t23 2.5h291q3 6 5.5 12.5t5.5 14.5q2 7 4 17t3 20t0 19t-4 14q-7 10 -22.5 10.5t-33.5 -1.5q-21 -3 -48.5 -5t-56.5 -3.5t-58.5 -1.5h-56.5q-36 1 -70.5 5t-54.5 11q-14 5 -11.5 15.5t22.5 21.5
q11 6 24.5 15t23.5 17q11 8 21.5 11t29.5 0q13 -2 33.5 -4t47.5 -2q15 0 43.5 0.5t61.5 2t66.5 3t59.5 3.5q46 3 71 -19q11 -10 15.5 -24.5t4.5 -31t-3.5 -33.5t-9.5 -30q-7 -14 -15 -28.5t-20 -28.5h39q5 0 12.5 -1t10.5 -4q4 -4 4 -6.5t-6 -8.5q-3 -3 -13 -11.5
t-21.5 -17.5t-21.5 -17t-14 -10q-8 -5 -14.5 -7t-20.5 -2h-298q33 -52 67 -80.5t79 -38.5q30 -7 61.5 -5.5t61.5 9t57.5 21t51.5 31.5q15 10 21 4q4 -4 2 -11t-8 -15q-64 -78 -133.5 -106t-154.5 -12q-35 6 -67 23.5t-58.5 39.5t-46 45t-28.5 41q-11 22 -18 28.5t-18 5.5
q-18 -2 -24 7q-3 6 1 15t11 15z" />
    <glyph glyph-name="uni313A" unicode="&#x313a;" 
d="M125 296q15 15 34 26q13 10 25.5 20t16.5 12q6 5 18 7.5t23 2.5h65q11 20 16 37.5t6 29.5q1 8 -0.5 15.5t-6.5 12.5q-15 15 -52 14q-14 -1 -29.5 -2t-40.5 -2q-33 -1 -49 5q-14 5 -11.5 15.5t22.5 21.5q11 6 24.5 15t23.5 17q11 8 24.5 10t26.5 1t37 0t45 3t39 -2.5
t32 -16.5q16 -14 20 -33q2 2 5 4t7 4q11 6 24.5 15t23.5 17q11 8 20 10.5t28 1.5q28 -1 63 -0.5t58 1.5q18 1 29.5 -3t21.5 -15q11 -13 18 -35.5t9.5 -50.5t0 -59.5t-10.5 -62.5q-11 -38 -33.5 -83t-72.5 -93q-10 -9 -20.5 -11.5t-14.5 0.5q-5 5 -4 15.5t5 17.5
q14 28 22 58.5t12 59.5q8 59 4 102t-15 57q-10 12 -23 15t-32 2q-15 -1 -34 -1t-37 0.5t-32.5 1.5t-20.5 3h-2l-3 -15q-7 -25 -20.5 -48.5t-39.5 -48.5h50q5 0 12.5 -1t10.5 -4q4 -4 4 -6.5t-6 -8.5q-3 -3 -13 -11.5t-21.5 -17.5t-21.5 -17t-14 -10q-8 -5 -14.5 -7t-20.5 -2
h-63q5 -19 9 -35t9 -29t12 -22.5t18 -16.5q23 -14 52.5 -7.5t67.5 40.5q8 7 13.5 6t8.5 -4q9 -9 -6 -27q-32 -38 -58.5 -60.5t-49.5 -32t-44 -8t-42 10.5q-33 14 -55 50t-30 81q-5 24 -16.5 29t-22.5 5q-19 0 -25 10q-4 6 0 13.5t11 13.5z" />
    <glyph glyph-name="uni313B" unicode="&#x313b;" 
d="M127 298l1 1l14 12t17 11q13 10 25.5 20t16.5 12q6 5 18 7.5t23 2.5h65q11 20 16 37.5t6 29.5q1 8 -0.5 15.5t-6.5 12.5q-15 15 -52 14q-14 -1 -29.5 -2t-40.5 -2q-33 -1 -49 5q-14 5 -11.5 15.5t22.5 21.5q11 6 24.5 15t23.5 17q11 8 24.5 10t26.5 1t37 0t45 3t39 -2.5
t32 -16.5q11 -10 16.5 -22t3.5 -31l97 69q18 13 29 7.5t11 -30.5v-49q45 37 85.5 48t66.5 0q42 -17 50.5 -52.5t-5.5 -88.5q-6 -24 -17 -49.5t-24 -50t-26.5 -46.5t-25.5 -37h93q20 0 20 -10q0 -9 -19 -21q-14 -9 -26.5 -19t-23.5 -21q-14 -14 -50 -14h-134
q-6 -5 -12.5 -10.5t-14.5 -11.5q-13 -10 -25.5 -4.5t-12.5 24.5v315q0 12 -7 14q-6 2 -20 -8q-10 -9 -22 -7q-8 -17 -20 -34.5t-31 -34.5h50q5 0 12.5 -1t10.5 -4q4 -4 4 -6.5t-6 -8.5q-3 -3 -13 -11.5t-21.5 -17.5t-21.5 -17t-14 -10q-8 -5 -14.5 -7t-20.5 -2h-63
q5 -19 9 -35t9 -29t12 -22.5t18 -16.5q23 -14 52.5 -7.5t67.5 40.5q8 7 13.5 6t8.5 -4q9 -9 -6 -27q-32 -38 -58.5 -60.5t-49.5 -32t-44 -8t-42 10.5q-33 14 -55 50t-30 81q-5 24 -16.5 29t-22.5 5q-19 0 -25 10q-4 6 0 13.5t11 13.5zM636 447q-19 5 -33.5 3t-31.5 -12v-232
h37q19 29 38 69t27 84q6 33 -5 57.5t-32 30.5z" />
    <glyph glyph-name="uni313C" unicode="&#x313c;" 
d="M729 550q18 13 29 7.5t11 -30.5v-284q0 -23 -12 -35l-12 -11h29q5 0 12.5 -1t10.5 -4q2 -2 2.5 -6t-4.5 -9q-3 -3 -12 -10.5t-19.5 -16t-20 -15.5t-13.5 -9q-8 -5 -14.5 -7t-20.5 -2h-165h-2l-7 -6q-13 -10 -25.5 -4.5t-12.5 24.5v296q0 12 -7 14q-6 2 -20 -8
q-9 -7 -19 -7t-15 7q-6 8 -2.5 18t14.5 18l100 72q18 13 29 7.5t11 -30.5v-133q13 5 29 5h65v80q0 23 5 32.5t16 17.5zM117 298l1 1l14 12t17 11q13 10 25.5 20t16.5 12q6 5 18 7.5t23 2.5h65q11 20 16 37.5t6 29.5q1 8 -0.5 15.5t-6.5 12.5q-15 15 -52 14q-14 -1 -29.5 -2
t-40.5 -2q-33 -1 -49 5q-14 5 -11.5 15.5t22.5 21.5q11 6 24.5 15t23.5 17q11 8 24.5 10t26.5 1t37 0t45 3t39 -2.5t32 -16.5t19 -29t-3 -48q-7 -25 -20.5 -48.5t-39.5 -48.5h50q5 0 12.5 -1t10.5 -4q4 -4 4 -6.5t-6 -8.5q-3 -3 -13 -11.5t-21.5 -17.5t-21.5 -17t-14 -10
q-8 -5 -14.5 -7t-20.5 -2h-63q5 -19 9 -35t9 -29t12 -22.5t18 -16.5q23 -14 52.5 -7.5t67.5 40.5q8 7 13.5 6t8.5 -4q9 -9 -6 -27q-32 -38 -58.5 -60.5t-49.5 -32t-44 -8t-42 10.5q-33 14 -55 50t-30 81q-5 24 -16.5 29t-22.5 5q-19 0 -25 10q-4 6 0 13.5t11 13.5zM574 188
q6 4 17 6.5t22 2.5h55v120q-7 -4 -13.5 -5.5t-18.5 -1.5h-62v-122z" />
    <glyph glyph-name="uni313D" unicode="&#x313d;" 
d="M140 297q15 15 34 26q13 10 25.5 20t16.5 12q6 5 18 7.5t23 2.5h76q10 20 13 37q6 41 -9 58q-14 16 -52 14q-14 -1 -29.5 -2t-40.5 -2q-33 -1 -49 5q-14 5 -11.5 15.5t22.5 21.5q11 6 24.5 15t23.5 17q11 8 24.5 10t26.5 1t37 0t45 3t39 -2.5t32 -16.5q7 -6 12.5 -17.5
t7.5 -26.5t1.5 -31.5t-5.5 -31.5q-6 -19 -14.5 -34.5t-23.5 -32.5h28q5 0 12.5 -1t10.5 -4q4 -4 4 -6.5t-6 -8.5q-3 -3 -13 -11.5t-21.5 -17.5t-21.5 -17t-14 -10q-8 -5 -14.5 -7t-20.5 -2h-63q25 -77 49.5 -101.5t48.5 -11.5q11 6 12 22t-13 42q-2 2 -2 7t5 10
q6 6 16.5 14.5t21 16t19 13t10.5 5.5q6 2 12.5 -3t9.5 -18q4 -18 -3.5 -40t-23 -44t-36 -43t-42 -37t-41 -25.5t-32.5 -7.5q-18 2 -35 17t-31.5 36.5t-25 46.5t-14.5 47q-5 24 -16.5 29t-22.5 5q-19 0 -25 10q-4 6 0 13.5t11 13.5zM520 510q14 10 38 24t53 19q19 3 31 -5
q20 -15 26 -54q3 -25 2 -55.5t-6.5 -61.5t-15.5 -61t-24 -54q-18 -30 -42 -59.5t-52.5 -53.5t-60 -41t-64.5 -22q-13 -2 -17.5 -0.5t-5.5 4.5q-2 5 2.5 10t16.5 15q39 30 74.5 78.5t57.5 98.5q8 18 14 39.5t9 44t3 43.5t-5 38q-3 11 -10.5 13t-13.5 2q-18 2 -22 10
q-3 5 1 14t11 14zM704 312q11 7 25 -4q6 -4 16 -11.5t22 -17.5t23.5 -22t19.5 -24q11 -16 15.5 -36t-0.5 -41q-6 -31 -62 -59q-9 -5 -14.5 -0.5t-7.5 13.5q-1 5 -2 12.5t-4 21.5q-10 42 -25.5 64.5t-32.5 33.5q-11 7 -17 11t-12 9t-5.5 12.5t6.5 12.5q6 4 14 7t13 5
q9 3 16 6t12 7z" />
    <glyph glyph-name="uni313E" unicode="&#x313e;" 
d="M137 298l1 1l14 12t17 11q13 10 25.5 20t16.5 12q6 5 18 7.5t23 2.5h65q11 20 16 37.5t6 29.5q1 8 -0.5 15.5t-6.5 12.5q-15 15 -52 14q-14 -1 -29.5 -2t-40.5 -2q-33 -1 -49 5q-14 5 -11.5 15.5t22.5 21.5q11 6 24.5 15t23.5 17q11 8 24.5 10t26.5 1t37 0t45 3t39 -2.5
t32 -16.5t19 -29t-3 -48q-7 -25 -20.5 -48.5t-39.5 -48.5h50q5 0 12.5 -1t10.5 -4q4 -4 4 -6.5t-6 -8.5q-3 -3 -13 -11.5t-21.5 -17.5t-21.5 -17t-14 -10q-8 -5 -14.5 -7t-20.5 -2h-63q5 -19 9 -35t9 -29t12 -22.5t18 -16.5q23 -14 52.5 -7.5t67.5 40.5q8 7 13.5 6t8.5 -4
q9 -9 -6 -27q-32 -38 -58.5 -60.5t-49.5 -32t-44 -8t-42 10.5q-33 14 -55 50t-30 81q-5 24 -16.5 29t-22.5 5q-19 0 -25 10q-4 6 0 13.5t11 13.5zM789 404q20 0 20 -10q0 -9 -19 -21q-14 -9 -26.5 -19t-23.5 -21q-14 -14 -50 -14h-82q-21 -36 -20 -67t26 -51q16 -14 37 -17
t43 0.5t42.5 12.5t36.5 20q18 12 26 7q5 -3 5.5 -11t-3.5 -13q-23 -35 -51 -60.5t-59 -38.5t-63.5 -12.5t-64.5 18.5q-29 16 -43 42t-16.5 55.5t5.5 57t25 46.5l9 11h-51q-9 0 -15 3t-6 8t8 10.5t16 10.5t20 15t23 20q19 18 61 18h190zM789 554q20 0 20 -10q0 -9 -19 -21
q-14 -9 -26.5 -19t-23.5 -21q-14 -14 -50 -14h-178q-9 0 -15 3t-6 8t8 10.5t16 10.5t20 15t23 20q19 18 61 18h170z" />
    <glyph glyph-name="uni313F" unicode="&#x313f;" 
d="M107 298l1 1l14 12t17 11q13 10 25.5 20t16.5 12q6 5 18 7.5t23 2.5h65q11 20 16 37.5t6 29.5q1 8 -0.5 15.5t-6.5 12.5q-15 15 -52 14q-14 -1 -29.5 -2t-40.5 -2q-33 -1 -49 5q-14 5 -11.5 15.5t22.5 21.5q11 6 24.5 15t23.5 17q11 8 24.5 10t26.5 1t37 0t45 3t39 -2.5
t32 -16.5t19 -29t-3 -48q-7 -25 -20.5 -48.5t-39.5 -48.5h50q5 0 12.5 -1t10.5 -4q4 -4 4 -6.5t-6 -8.5q-3 -3 -13 -11.5t-21.5 -17.5t-21.5 -17t-14 -10q-8 -5 -14.5 -7t-20.5 -2h-63q5 -19 9 -35t9 -29t12 -22.5t18 -16.5q23 -14 52.5 -7.5t67.5 40.5q8 7 13.5 6t8.5 -4
q9 -9 -6 -27q-32 -38 -58.5 -60.5t-49.5 -32t-44 -8t-42 10.5q-33 14 -55 50t-30 81q-5 24 -16.5 29t-22.5 5q-19 0 -25 10q-4 6 0 13.5t11 13.5zM626 183l27 40q10 15 15.5 31.5t7 33t-1.5 30.5t-9 24q-7 10 -12.5 16.5t-9.5 10.5q-16 16 2 25q19 10 37.5 15t33.5 7
q19 2 27 -5q11 -9 19.5 -25t10.5 -39q2 -30 -7 -58.5t-35 -65.5l-31 -40h81q20 0 20 -10q0 -9 -19 -21q-14 -9 -26.5 -19t-23.5 -21q-14 -14 -50 -14h-233q-9 0 -15 3t-6 8t8 10.5t16 10.5t20 15t23 20q19 18 61 18h70zM490 419q6 2 18 9t18 12q5 4 12.5 8.5t15.5 6.5
q7 2 13.5 -2.5t7.5 -12.5q0 -8 -2 -20.5t-4 -24.5q-5 -29 1 -57t23 -52q8 -12 13 -17.5t10 -9.5q8 -6 7.5 -13t-10.5 -12q-28 -14 -54.5 -19.5t-40.5 0.5q-19 8 -28 24.5t-16 39.5q-4 12 -5.5 27t-1 30t2 29t3.5 23q2 11 6.5 20t10.5 11zM761 553q20 0 20 -10q0 -9 -19 -21
q-14 -9 -26.5 -19t-23.5 -21q-14 -14 -50 -14h-203q-9 0 -15 3t-6 8t8 10.5t16 10.5t20 15t23 20q19 18 61 18h195z" />
    <glyph glyph-name="uni3140" unicode="&#x3140;" 
d="M107 298l1 1l14 12t17 11q13 10 25.5 20t16.5 12q6 5 18 7.5t23 2.5h65q11 20 16 37.5t6 29.5q1 8 -0.5 15.5t-6.5 12.5q-15 15 -52 14q-14 -1 -29.5 -2t-40.5 -2q-33 -1 -49 5q-14 5 -11.5 15.5t22.5 21.5q11 6 24.5 15t23.5 17q11 8 24.5 10t26.5 1t37 0t45 3t39 -2.5
t32 -16.5t19 -29t-3 -48q-7 -25 -20.5 -48.5t-39.5 -48.5h50q5 0 12.5 -1t10.5 -4q4 -4 4 -6.5t-6 -8.5q-3 -3 -13 -11.5t-21.5 -17.5t-21.5 -17t-14 -10q-8 -5 -14.5 -7t-20.5 -2h-63q5 -19 9 -35t9 -29t12 -22.5t18 -16.5q23 -14 52.5 -7.5t67.5 40.5q8 7 13.5 6t8.5 -4
q9 -9 -6 -27q-32 -38 -58.5 -60.5t-49.5 -32t-44 -8t-42 10.5q-33 14 -55 50t-30 81q-5 24 -16.5 29t-22.5 5q-19 0 -25 10q-4 6 0 13.5t11 13.5zM471 126q-13 19 -17.5 43t2.5 49.5t26.5 51.5t54.5 50q31 21 61.5 26.5t57.5 0.5t49 -19.5t35 -32.5t16 -43.5t-5 -52.5
t-27 -53t-50 -45q-30 -19 -60.5 -25t-58 -1.5t-49.5 18t-35 33.5zM756 454q20 0 20 -10q0 -9 -19 -21q-9 -6 -18.5 -14t-18.5 -16q-14 -14 -50 -14h-218q-9 0 -15 3t-6 8t8 10.5t16 10.5q5 3 13 10t17 15q19 18 61 18h210zM716 568q20 0 20 -10q0 -9 -19 -21
q-9 -6 -18.5 -14t-18.5 -16q-14 -14 -50 -14h-108q-9 0 -15 3t-6 8t8 10.5t16 10.5q5 3 13 10t17 15q19 18 61 18h100zM562 183q10 -13 24 -20.5t27.5 -11t24.5 -3t16 3.5q4 3 7.5 13t4 23t-4 28t-14.5 28q-11 13 -26 20.5t-29 11.5t-25.5 4t-15.5 -3t-7 -13t-2.5 -23.5
t5 -29t15.5 -28.5z" />
    <glyph glyph-name="uni3141" unicode="&#x3141;" 
d="M315 467q46 30 91.5 46t85.5 22t72.5 3.5t52.5 -9.5q47 -16 75 -54.5t24 -86.5q-5 -51 -39 -102t-85 -98h118q20 0 20 -10q0 -9 -19 -21q-14 -9 -26.5 -19t-23.5 -21q-14 -14 -50 -14h-311q-9 -8 -19.5 -18t-28.5 -24q-13 -10 -25.5 -4.5t-12.5 24.5v342q0 12 -7 14
q-6 2 -20 -8q-9 -7 -19 -7t-15 7q-6 8 -2.5 18t14.5 18l110 78q18 13 29 7.5t11 -30.5v-53zM544 450q-14 6 -37 8.5t-53 -0.5t-65 -12.5t-74 -28.5v-229h181q47 48 71.5 92.5t28.5 82.5q2 26 -9 49.5t-43 37.5z" />
    <glyph glyph-name="uni3142" unicode="&#x3142;" 
d="M662 556q18 13 29 7.5t11 -30.5v-29v-51.5t-0.5 -62.5t-0.5 -61.5v-48.5v-23q0 -23 -12 -35q-8 -8 -27 -25t-38 -31h74q5 0 12.5 -1t10.5 -4q2 -2 2.5 -6t-4.5 -9q-3 -3 -12 -10.5t-19.5 -16t-20 -15.5t-13.5 -9q-8 -5 -14.5 -7t-20.5 -2h-365h-1l-8 -6
q-13 -10 -25.5 -4.5t-12.5 24.5v311q0 12 -7 14q-6 2 -20 -8q-9 -7 -19 -7t-15 7q-6 8 -2.5 18t14.5 18l130 93q18 13 29 7.5t11 -30.5v-149h253v47q0 12 -7 14q-6 2 -20 -8q-9 -7 -19 -7t-15 7q-6 8 -2.5 18t14.5 18zM328 176q0 -7 -1 -11q4 1 10 1h246q-3 6 -3 15v142
q-20 -16 -27 -20q-8 -5 -14.5 -7t-20.5 -2h-190v-118z" />
    <glyph glyph-name="uni3143" unicode="&#x3143;" 
d="M681 560q18 13 29 7.5t11 -30.5v-324q0 -23 -12 -35l-12 -11h29q5 0 12.5 -1t10.5 -4q2 -2 2.5 -6t-4.5 -9q-3 -3 -12 -10.5t-19.5 -16t-20 -15.5t-13.5 -9q-8 -5 -14.5 -7t-20.5 -2h-425h-2l-7 -6q-13 -10 -25.5 -4.5t-12.5 24.5v336q0 5 -1 3.5t-6 0.5q-6 2 -20 -8
q-9 -7 -19 -7t-15 7q-6 8 -2.5 18t14.5 18l100 72q18 13 29 7.5t11 -30.5v-143q13 5 29 5h95v91q0 23 5 32.5t16 17.5l40 30q18 13 29 7.5t11 -30.5v-148h129v100q0 23 5 32.5t16 17.5zM491 300v-87q0 -23 -12 -35l-12 -11h153v161q-9 -7 -16.5 -12l-10.5 -7q-8 -5 -14.5 -7
t-20.5 -2h-67zM266 158q6 4 17 6.5t22 2.5h85v133h-124v-142z" />
    <glyph glyph-name="uni3144" unicode="&#x3144;" 
d="M402 550q18 13 29 7.5t11 -30.5v-284q0 -23 -12 -35l-12 -11h29q5 0 12.5 -1t10.5 -4q2 -2 2.5 -6t-4.5 -9q-3 -3 -12 -10.5t-19.5 -16t-20 -15.5t-13.5 -9q-8 -5 -14.5 -7t-20.5 -2h-165h-2l-7 -6q-13 -10 -25.5 -4.5t-12.5 24.5v296q0 12 -7 14q-6 2 -20 -8
q-9 -7 -19 -7t-15 7q-6 8 -2.5 18t14.5 18l100 72q18 13 29 7.5t11 -30.5v-133q13 5 29 5h65v80q0 23 5 32.5t16 17.5zM547 510q14 10 38 24t53 19q19 3 31 -5q20 -15 26 -54q3 -25 2 -55.5t-6.5 -61.5t-15.5 -61t-24 -54q-18 -30 -42 -59.5t-52.5 -53.5t-60 -41t-64.5 -22
q-13 -2 -17.5 -0.5t-5.5 4.5q-2 5 2.5 10t16.5 15q39 30 74.5 78.5t57.5 98.5q8 18 14 39.5t9 44t3 43.5t-5 38q-3 11 -10.5 13t-13.5 2q-18 2 -22 10q-3 5 1 14t11 14zM731 312q11 7 25 -4q6 -4 16 -11.5t22 -17.5t23.5 -22t19.5 -24q11 -16 15.5 -36t-0.5 -41
q-6 -31 -62 -59q-9 -5 -14.5 -0.5t-7.5 13.5q-1 5 -2 12.5t-4 21.5q-10 42 -25.5 64.5t-32.5 33.5q-11 7 -17 11t-12 9t-5.5 12.5t6.5 12.5q6 4 14 7t13 5q9 3 16 6t12 7zM247 188q6 4 17 6.5t22 2.5h55v120q-7 -4 -13.5 -5.5t-18.5 -1.5h-62v-122z" />
    <glyph glyph-name="uni3145" unicode="&#x3145;" 
d="M566 314q5 5 15 4t21 -4q44 -13 79.5 -33t64.5 -52q15 -17 24.5 -33.5t7.5 -35.5q-2 -15 -14.5 -32.5t-38.5 -35.5q-8 -6 -14.5 -2.5t-8.5 12.5q-1 5 -5.5 17.5t-13.5 25.5q-20 27 -50.5 51.5t-65.5 40.5q-11 5 -27 10t-23 10t-7 11.5t5 11.5q11 13 25 18q17 7 26 16z
M377 539q16 8 47.5 12.5t61.5 1.5q17 -1 28 -14q17 -21 14 -60q-7 -69 -32.5 -129.5t-74.5 -112.5q-26 -28 -58 -52t-67.5 -41.5t-72 -28t-72.5 -11.5q-14 0 -19.5 4t-6.5 9q-2 10 21 18q56 19 105 60t84 86q15 19 27.5 43t20.5 50t11 52.5t-1 52.5q-2 11 -6.5 14.5
t-10.5 5.5q-17 6 -18 15q-2 7 4.5 14.5t14.5 10.5z" />
    <glyph glyph-name="uni3146" unicode="&#x3146;" 
d="M684 308q11 7 25 -4q6 -4 16 -11.5t22 -17.5t23.5 -22t19.5 -24q11 -16 15.5 -36t-0.5 -41q-6 -31 -62 -59q-9 -5 -14.5 -0.5t-7.5 13.5q-1 5 -2 12.5t-4 21.5q-10 42 -25.5 64.5t-32.5 33.5q-11 7 -17 11t-12 9t-5.5 12.5t6.5 12.5q6 4 14 7t13 5q9 3 16 6t12 7z
M264 437q-4 11 -10.5 12.5t-12.5 1.5q-18 2 -22 10q-2 6 1.5 14t9.5 14q7 6 17.5 14.5t23 16t26 14t25.5 9.5q9 2 16 1.5t15 -5.5q10 -7 17.5 -21.5t13.5 -31.5q5 -14 7.5 -36t0.5 -57q-5 -55 -31.5 -113t-84.5 -109q-31 -27 -67 -48.5t-63 -29.5q-13 -4 -22 -3t-11 4
q-3 4 2.5 11.5t15.5 15.5q4 4 14.5 13t23.5 20.5t26 25t22 25.5q32 45 46.5 82t14.5 77q-1 21 -4.5 40t-9.5 33zM493 437q-4 11 -10.5 12.5t-12.5 1.5q-18 2 -22 10q-2 6 1.5 14t9.5 14q7 6 17.5 14.5t23 16t26 14t25.5 9.5q9 2 16 1.5t15 -5.5q10 -7 17.5 -21.5t13.5 -31.5
q5 -14 7.5 -36t0.5 -57q-5 -55 -31.5 -113t-84.5 -109q-31 -27 -67 -48.5t-63 -29.5q-13 -4 -22 -3t-11 4q-3 4 2.5 11.5t15.5 15.5q4 4 14.5 13t23.5 20.5t26 25t22 25.5q32 45 46.5 82t14.5 77q-1 21 -4.5 40t-9.5 33z" />
    <glyph glyph-name="uni3147" unicode="&#x3147;" 
d="M253 440q25 26 54.5 47.5t61 36.5t62.5 24t59 9q56 2 104.5 -25t81.5 -72q19 -26 27.5 -56.5t6.5 -62t-14 -62t-34 -56.5q-81 -100 -206 -132q-30 -8 -63.5 -5t-66 15t-61.5 33.5t-49 50.5q-21 30 -27.5 63.5t-0.5 67.5t22.5 66t42.5 58zM545 413q-17 21 -43 37.5
t-55.5 24.5t-59.5 4.5t-53 -23.5q-21 -18 -28 -46t-3.5 -58t16 -59t30.5 -50q22 -25 52.5 -40.5t61.5 -21t59 -0.5t45 22q16 16 22.5 41t3.5 54t-15 59t-33 56z" />
    <glyph glyph-name="uni3148" unicode="&#x3148;" 
d="M740 557q20 0 20 -10q0 -9 -19 -21q-14 -9 -26.5 -19t-23.5 -21q-14 -14 -50 -14h-109v-13q-7 -69 -32.5 -129.5t-74.5 -112.5q-26 -28 -58 -52t-67.5 -41.5t-72 -28t-72.5 -11.5q-14 0 -19.5 4t-6.5 9q-2 10 21 18q56 19 105 60t84 86q15 19 27.5 43t20.5 50t11 52.5
t-1 52.5q-1 7 -5 13h-222q-9 0 -15 3t-6 8t8 10.5t16 10.5t20 15t23 20q19 18 61 18h463zM570 294q5 5 15 4t21 -4q44 -13 79.5 -33t64.5 -52q15 -17 24.5 -33.5t7.5 -35.5q-2 -15 -14.5 -32.5t-38.5 -35.5q-8 -6 -14.5 -2.5t-8.5 12.5q-1 5 -5.5 17.5t-13.5 25.5
q-20 27 -50.5 51.5t-65.5 40.5q-11 5 -27 10t-23 10t-7 11.5t5 11.5q11 13 25 18q17 7 26 16z" />
    <glyph glyph-name="uni3149" unicode="&#x3149;" 
d="M740 557q20 0 20 -10q0 -9 -19 -21q-14 -9 -26.5 -19t-23.5 -21q-14 -14 -50 -14h-40q6 -24 6 -61q-1 -56 -24.5 -115.5t-78.5 -113.5q-29 -29 -64 -52t-61 -33q-27 -9 -33 -1q-3 4 2 12t14 16q4 4 13.5 13t21.5 21t24.5 26.5t21.5 28.5q25 38 35.5 80t8.5 82
q-2 21 -6.5 39.5t-11.5 32.5q-5 8 -2 14.5t8 10.5h-75q6 -24 6 -61q-1 -56 -24.5 -115.5t-78.5 -113.5q-29 -29 -64 -52t-61 -33q-27 -9 -33 -1q-3 4 2 12t14 16q4 4 13.5 13t21.5 21t24.5 26.5t21.5 28.5q25 38 35.5 80t8.5 82q-2 21 -6.5 39.5t-11.5 32.5q-5 8 -2 14.5
t8 10.5h-104q-9 0 -15 3t-6 8t8 10.5t16 10.5t20 15t23 20q19 18 61 18h463zM654 308q11 7 25 -4q6 -4 16 -11.5t22 -17.5t23.5 -22t19.5 -24q11 -16 15.5 -36t-0.5 -41q-6 -31 -62 -59q-9 -5 -14.5 -0.5t-7.5 13.5q-1 5 -2 12.5t-4 21.5q-10 42 -25.5 64.5t-32.5 33.5
q-11 7 -17 11t-12 9t-5.5 12.5t6.5 12.5q6 4 14 7t13 5q9 3 16 6t12 7z" />
    <glyph glyph-name="uni314A" unicode="&#x314a;" 
d="M707 450q20 0 20 -10q0 -9 -19 -21q-9 -6 -18.5 -14t-18.5 -16q-14 -14 -50 -14h-100v-4q0 -31 -8 -63t-28 -62q-31 -47 -79.5 -84t-94.5 -58q-37 -17 -77.5 -26.5t-68.5 -8.5q-14 1 -22.5 4t-9.5 6q-2 5 5.5 10.5t18.5 10.5q6 3 17.5 8.5t26.5 13t31 16t30 17.5
q37 23 64.5 50.5t44.5 57.5q16 29 18.5 52.5t-2.5 44.5q-3 10 -9 15h-207q-9 0 -15 3t-6 8t8 10.5t16 10.5q5 3 13 10t17 15q19 18 61 18h442zM549 221q5 5 15 6t21 -1q6 -1 18.5 -3.5t26.5 -6.5t27.5 -8.5t21.5 -8.5q20 -11 32 -26t13 -35q1 -15 -9 -34t-33 -40
q-8 -8 -15 -5.5t-10 11.5q-2 5 -8 17t-17 23q-14 13 -35 22t-36 13q-12 3 -28 6t-24 6q-8 5 -9.5 12.5t3.5 12.5q5 7 11.5 12.5t11.5 8.5q8 4 13 8.5t10 9.5zM587 584q20 0 20 -10q0 -9 -19 -21q-9 -6 -18.5 -14t-18.5 -16q-14 -14 -50 -14h-188q-9 0 -15 3t-6 8t8 10.5
t16 10.5q5 3 13 10t17 15q19 18 61 18h180z" />
    <glyph glyph-name="uni314B" unicode="&#x314b;" 
d="M622 348q-2 16 -7.5 31t-15.5 29q-16 23 -37 36.5t-43.5 20.5t-44.5 8.5t-39 1.5q-19 -1 -54 -2.5t-77 -1.5q-15 0 -33 0.5t-35 1.5t-32 3t-25 5q-14 5 -11.5 15.5t22.5 21.5q11 6 24.5 15t23.5 17q11 8 21.5 10.5t29.5 0.5q17 -2 39 -3t58 0q16 0 36 1t40.5 2.5t40 2.5
t34.5 1q27 1 50 -1t42.5 -8.5t37 -19t34.5 -33.5q33 -42 40 -95t-8.5 -111t-53.5 -116t-95 -110q-11 -9 -21 -11.5t-14 0.5q-5 5 -4 15.5t5 17.5q13 26 26 54.5t23.5 57t17.5 57t7 55.5q-14 -9 -26.5 -19t-23.5 -21q-14 -14 -50 -14h-327q-9 0 -15 3t-6 8t8 10.5t16 10.5
t20 15t23 20q19 18 61 18h318z" />
    <glyph glyph-name="uni314C" unicode="&#x314c;" 
d="M700 420q20 0 20 -10q0 -9 -19 -21q-14 -9 -26.5 -19t-23.5 -21q-14 -14 -50 -14h-257q-6 -30 -2 -59t17.5 -53.5t36 -43.5t53.5 -29q23 -8 51 -11t55.5 -1t52.5 11.5t42 27.5q14 14 26 7q5 -3 5.5 -11t-3.5 -13q-20 -30 -47 -55.5t-61.5 -41.5t-76.5 -20t-92 10
q-40 11 -75 36.5t-57.5 58t-30.5 69.5t6 72q5 12 18.5 23.5t32.5 22.5h-114q-9 0 -15 3t-6 8t8 10.5t16 10.5t20 15t23 20q19 18 61 18h412zM655 562q20 0 20 -10q0 -9 -19 -21q-14 -9 -26.5 -19t-23.5 -21q-14 -14 -50 -14h-316q-9 0 -15 3t-6 8t8 10.5t16 10.5t20 15
t23 20q19 18 61 18h308z" />
    <glyph glyph-name="uni314D" unicode="&#x314d;" 
d="M490 183l27 40q10 15 15.5 31.5t7 33t-1.5 30.5t-9 24q-7 10 -12.5 16.5t-9.5 10.5q-16 16 2 25q19 10 37.5 15t33.5 7q19 2 27 -5q11 -9 19.5 -25t10.5 -39q2 -30 -7 -58.5t-35 -65.5l-31 -40h171q20 0 20 -10q0 -9 -19 -21q-14 -9 -26.5 -19t-23.5 -21q-14 -14 -50 -14
h-470q-9 0 -15 3t-6 8t8 10.5t16 10.5t20 15t23 20q19 18 61 18h217zM705 553q20 0 20 -10q0 -9 -19 -21q-14 -9 -26.5 -19t-23.5 -21q-14 -14 -50 -14h-430q-9 0 -15 3t-6 8t8 10.5t16 10.5t20 15t23 20q19 18 61 18h422zM287 409q6 2 18 9t18 12q5 4 12.5 8.5t15.5 6.5
q7 2 13.5 -2.5t7.5 -12.5q0 -8 -2 -20.5t-4 -24.5q-5 -29 1 -57t23 -52q8 -12 13 -17.5t10 -9.5q8 -6 7.5 -13t-10.5 -12q-28 -14 -54.5 -19.5t-40.5 0.5q-19 8 -28 24.5t-16 39.5q-4 12 -5.5 27t-1 30t2 29t3.5 23q2 11 6.5 20t10.5 11z" />
    <glyph glyph-name="uni314E" unicode="&#x314e;" 
d="M302 278q38 38 86 62t90 25q42 2 77.5 -18.5t59.5 -53.5q14 -19 20.5 -41.5t5 -45.5t-10.5 -46t-25 -42q-60 -74 -152 -98q-22 -6 -47 -3.5t-49 11.5t-45.5 24.5t-36.5 37.5t-20 46.5t-0.5 49.5t16.5 48.5t31 43.5zM707 490q20 0 20 -10q0 -9 -19 -21q-9 -6 -18.5 -14
t-18.5 -16q-14 -14 -50 -14h-450q-9 0 -15 3t-6 8t8 10.5t16 10.5q5 3 13 10t17 15q19 18 61 18h442zM510 252q-11 13 -29 26t-38.5 20t-41 6t-36.5 -16q-15 -13 -18 -33t1.5 -41t15 -41t22.5 -33q16 -17 36.5 -29t40.5 -17t38.5 -2.5t30.5 14.5t15.5 29t0.5 37t-13 41
t-25 39zM587 624q20 0 20 -10q0 -9 -19 -21q-9 -6 -18.5 -14t-18.5 -16q-14 -14 -50 -14h-188q-9 0 -15 3t-6 8t8 10.5t16 10.5q5 3 13 10t17 15q19 18 61 18h180z" />
    <glyph glyph-name="uni314F" unicode="&#x314f;" 
d="M646 403q20 0 20 -10q0 -9 -19 -21q-14 -9 -26.5 -19t-23.5 -21q-14 -14 -50 -14h-57v-347q0 -23 -12 -35q-9 -9 -30 -27.5t-41 -33.5q-13 -10 -25.5 -4.5t-12.5 24.5v714q0 12 -7 14q-6 2 -20 -8q-9 -7 -19 -7t-15 7q-6 8 -2.5 18t14.5 18l130 93q18 13 29 7.5t11 -30.5
v-330q13 12 29 12h127z" />
    <glyph glyph-name="uni3150" unicode="&#x3150;" 
d="M584 738q18 13 29 7.5t11 -30.5v-756q0 -23 -12 -35q-9 -9 -23.5 -22t-34.5 -28q-13 -10 -25.5 -4.5t-12.5 24.5v458q-13 -13 -49 -13h-63v-340q0 -23 -12 -35q-9 -9 -23.5 -22t-34.5 -28q-13 -10 -25.5 -4.5t-12.5 24.5v640q0 12 -7 14q-6 2 -20 -8q-9 -7 -19 -7t-15 7
q-6 8 -2.5 18t14.5 18l117 82q18 13 29 7.5t11 -30.5v-269q16 18 35 18h77v190q0 12 -7 14q-6 2 -20 -8q-9 -7 -19 -7t-15 7q-6 8 -2.5 18t14.5 18z" />
    <glyph glyph-name="uni3151" unicode="&#x3151;" 
d="M646 291q20 0 20 -10q0 -9 -19 -21q-14 -9 -26.5 -19t-23.5 -21q-14 -14 -50 -14h-57v-235q0 -23 -12 -35q-9 -9 -30 -27.5t-41 -33.5q-13 -10 -25.5 -4.5t-12.5 24.5v714q0 12 -7 14q-6 2 -20 -8q-9 -7 -19 -7t-15 7q-6 8 -2.5 18t14.5 18l130 93q18 13 29 7.5t11 -30.5
v-217q13 12 29 12h127q20 0 20 -10q0 -9 -19 -21q-14 -9 -26.5 -19t-23.5 -21q-14 -14 -50 -14h-57v-152q13 12 29 12h127z" />
    <glyph glyph-name="uni3152" unicode="&#x3152;" 
d="M584 738q18 13 29 7.5t11 -30.5v-756q0 -23 -12 -35q-9 -9 -23.5 -22t-34.5 -28q-13 -10 -25.5 -4.5t-12.5 24.5v324q-13 -13 -49 -13h-63v-206q0 -23 -12 -35q-9 -9 -23.5 -22t-34.5 -28q-13 -10 -25.5 -4.5t-12.5 24.5v640q0 12 -7 14q-6 2 -20 -8q-9 -7 -19 -7t-15 7
q-6 8 -2.5 18t14.5 18l117 82q18 13 29 7.5t11 -30.5v-179q18 21 38 21h74v97q0 12 -7 14q-6 2 -20 -8q-9 -7 -19 -7t-15 7q-6 8 -2.5 18t14.5 18zM516 290v152q-14 -10 -46 -10h-66v-160q16 18 35 18h77z" />
    <glyph glyph-name="uni3153" unicode="&#x3153;" 
d="M246 366q5 3 14.5 10.5t20 15.5t19 14.5t11.5 8.5q6 5 18 7.5t23 2.5h97v184q0 12 -7 14q-6 2 -20 -8q-9 -7 -19 -7t-15 7q-6 8 -2.5 18t14.5 18l130 93q18 13 29 7.5t11 -30.5v-750q0 -23 -12 -35q-9 -9 -30 -27.5t-41 -33.5q-13 -10 -25.5 -4.5t-12.5 24.5v475
q-10 -8 -17.5 -13.5t-10.5 -7.5q-8 -5 -14.5 -7t-20.5 -2h-122q-14 0 -18.5 1t-9.5 6t-1.5 9t11.5 10z" />
    <glyph glyph-name="uni3154" unicode="&#x3154;" 
d="M206 366q5 3 14.5 10.5t20 15.5t19 14.5t11.5 8.5q6 5 18 7.5t23 2.5h94v149q0 12 -7 14q-6 2 -20 -8q-9 -7 -19 -7t-15 7q-6 8 -2.5 18t14.5 18l117 82q18 13 29 7.5t11 -30.5v-676q0 -23 -12 -35q-9 -9 -23.5 -22t-34.5 -28q-13 -10 -25.5 -4.5t-12.5 24.5v433
q-17 -14 -25 -18q-8 -5 -14.5 -7t-20.5 -2h-122q-14 0 -18.5 1t-9.5 6t-1.5 9t11.5 10zM664 738q18 13 29 7.5t11 -30.5v-756q0 -23 -12 -35q-9 -9 -23.5 -22t-34.5 -28q-13 -10 -25.5 -4.5t-12.5 24.5v720q0 12 -7 14q-6 2 -20 -8q-9 -7 -19 -7t-15 7q-6 8 -2.5 18t14.5 18
z" />
    <glyph glyph-name="uni3155" unicode="&#x3155;" 
d="M246 458q5 3 14.5 10.5t20 15.5t19 14.5t11.5 8.5q6 5 18 7.5t23 2.5h97v92q0 12 -7 14q-6 2 -20 -8q-9 -7 -19 -7t-15 7q-6 8 -2.5 18t14.5 18l130 93q18 13 29 7.5t11 -30.5v-750q0 -23 -12 -35q-9 -9 -30 -27.5t-41 -33.5q-13 -10 -25.5 -4.5t-12.5 24.5v340
q-10 -8 -17.5 -13.5t-10.5 -7.5q-8 -5 -14.5 -7t-20.5 -2h-122q-14 0 -18.5 1t-9.5 6t-1.5 9t11.5 10q5 3 14.5 10.5t20 15.5t19 14.5t11.5 8.5q6 5 18 7.5t23 2.5h97v172q-10 -8 -17.5 -13.5t-10.5 -7.5q-8 -5 -14.5 -7t-20.5 -2h-122q-14 0 -18.5 1t-9.5 6t-1.5 9t11.5 10
z" />
    <glyph glyph-name="uni3156" unicode="&#x3156;" 
d="M226 438q5 3 14.5 10.5t20 15.5t19 14.5t11.5 8.5q6 5 18 7.5t23 2.5h74v77q0 12 -7 14q-6 2 -20 -8q-9 -7 -19 -7t-15 7q-6 8 -2.5 18t14.5 18l117 82q18 13 29 7.5t11 -30.5v-676q0 -23 -12 -35q-9 -9 -23.5 -22t-34.5 -28q-13 -10 -25.5 -4.5t-12.5 24.5v278
q-17 -14 -25 -18q-8 -5 -14.5 -7t-20.5 -2h-102q-14 0 -18.5 1t-9.5 6t-1.5 9t11.5 10q5 3 14.5 10.5t20 15.5t19 14.5t11.5 8.5q6 5 18 7.5t23 2.5h74v169q-17 -14 -25 -18q-8 -5 -14.5 -7t-20.5 -2h-102q-14 0 -18.5 1t-9.5 6t-1.5 9t11.5 10zM664 738q18 13 29 7.5
t11 -30.5v-756q0 -23 -12 -35q-9 -9 -23.5 -22t-34.5 -28q-13 -10 -25.5 -4.5t-12.5 24.5v720q0 12 -7 14q-6 2 -20 -8q-9 -7 -19 -7t-15 7q-6 8 -2.5 18t14.5 18z" />
    <glyph glyph-name="uni3157" unicode="&#x3157;" 
d="M405 192v175q0 23 12 35q9 9 23.5 22t34.5 28q13 10 25.5 4.5t12.5 -24.5v-184q0 -23 -12 -35l-10 -10t-13 -11h351q20 0 20 -10q0 -9 -19 -21q-14 -9 -26.5 -19t-23.5 -21q-14 -14 -50 -14h-660q-9 0 -15 3t-6 8t8 10.5t16 10.5t20 15t23 20q19 18 61 18h228z" />
    <glyph glyph-name="uni3158" unicode="&#x3158;" 
d="M869 403q20 0 20 -10q0 -9 -19 -21q-14 -9 -26.5 -19t-23.5 -21q-14 -14 -50 -14h-47v-347q0 -23 -12 -35q-9 -9 -30 -27.5t-41 -33.5q-13 -10 -25.5 -4.5t-12.5 24.5v714q0 12 -7 14q-6 2 -20 -8q-9 -7 -19 -7t-15 7q-6 8 -2.5 18t14.5 18l130 93q18 13 29 7.5t11 -30.5
v-330q13 12 29 12h117zM264 192v95q0 23 12 35q9 9 23.5 22t34.5 28q13 10 25.5 4.5t12.5 -24.5v-104q0 -23 -12 -35l-10 -10t-13 -11h191q20 0 20 -10q0 -9 -19 -21q-14 -9 -26.5 -19t-23.5 -21q-14 -14 -50 -14h-359q-9 0 -15 3t-6 8t8 10.5t16 10.5t20 15t23 20
q19 18 61 18h87z" />
    <glyph glyph-name="uni3159" unicode="&#x3159;" 
d="M790 738q18 13 29 7.5t11 -30.5v-756q0 -23 -12 -35q-9 -9 -23.5 -22t-34.5 -28q-13 -10 -25.5 -4.5t-12.5 24.5v458q-13 -13 -49 -13h-63v-340q0 -23 -12 -35q-9 -9 -23.5 -22t-34.5 -28q-13 -10 -25.5 -4.5t-12.5 24.5v640q0 12 -7 14q-6 2 -20 -8q-9 -7 -19 -7t-15 7
q-6 8 -2.5 18t14.5 18l117 82q18 13 29 7.5t11 -30.5v-269q16 18 35 18h77v190q0 12 -7 14q-6 2 -20 -8q-9 -7 -19 -7t-15 7q-6 8 -2.5 18t14.5 18zM224 192v95q0 23 12 35q9 9 23.5 22t34.5 28q13 10 25.5 4.5t12.5 -24.5v-104q0 -23 -12 -35l-10 -10t-13 -11h141
q20 0 20 -10q0 -9 -19 -21q-14 -9 -26.5 -19t-23.5 -21q-14 -14 -50 -14h-269q-9 0 -15 3t-6 8t8 10.5t16 10.5t20 15t23 20q19 18 61 18h47z" />
    <glyph glyph-name="uni315A" unicode="&#x315a;" 
d="M743 744q18 13 29 7.5t11 -30.5v-750q0 -23 -12 -35q-9 -9 -30 -27.5t-41 -33.5q-13 -10 -25.5 -4.5t-12.5 24.5v714q0 12 -7 14q-6 2 -20 -8q-9 -7 -19 -7t-15 7q-6 8 -2.5 18t14.5 18zM294 182v95q0 23 12 35q9 9 23.5 22t34.5 28q13 10 25.5 4.5t12.5 -24.5v-104
q0 -23 -12 -35l-10 -10t-13 -11h211q20 0 20 -10q0 -9 -19 -21q-14 -9 -26.5 -19t-23.5 -21q-14 -14 -50 -14h-379q-9 0 -15 3t-6 8t8 10.5t16 10.5t20 15t23 20q19 18 61 18h87z" />
    <glyph glyph-name="uni315B" unicode="&#x315b;" 
d="M275 192v155q0 23 12 35q9 9 23.5 22t34.5 28q13 10 25.5 4.5t12.5 -24.5v-164q0 -23 -12 -35l-10 -10t-13 -11h197v175q0 23 12 35q9 9 23.5 22t34.5 28q13 10 25.5 4.5t12.5 -24.5v-184q0 -23 -12 -35l-10 -10t-13 -11h211q20 0 20 -10q0 -9 -19 -21q-14 -9 -26.5 -19
t-23.5 -21q-14 -14 -50 -14h-660q-9 0 -15 3t-6 8t8 10.5t16 10.5t20 15t23 20q19 18 61 18h98z" />
    <glyph glyph-name="uni315C" unicode="&#x315c;" 
d="M394 277q0 23 12 35q7 7 16.5 15.5t22.5 19.5h-375q-9 0 -15 3t-6 8t8 10.5t16 10.5t20 15t23 20q19 18 61 18h652q20 0 20 -10q0 -9 -19 -21q-14 -9 -26.5 -19t-23.5 -21q-14 -14 -50 -14h-228v-5v-264q0 -23 -12 -35q-9 -9 -23.5 -22t-34.5 -28q-13 -10 -25.5 -4.5
t-12.5 24.5v264z" />
    <glyph glyph-name="uni315D" unicode="&#x315d;" 
d="M446 146q5 3 14.5 10.5t20 15.5t19 14.5t11.5 8.5q6 5 18 7.5t23 2.5h110v404q0 12 -7 14q-6 2 -20 -8q-9 -7 -19 -7t-15 7q-6 8 -2.5 18t14.5 18l130 93q18 13 29 7.5t11 -30.5v-750q0 -23 -12 -35q-9 -9 -30 -27.5t-41 -33.5q-13 -10 -25.5 -4.5t-12.5 24.5v265
q-13 -10 -25 -19.5t-16 -11.5q-8 -5 -14.5 -7t-20.5 -2h-122q-14 0 -18.5 1t-9.5 6t-1.5 9t11.5 10zM234 220q0 23 12 35q7 7 16.5 15.5t22.5 19.5h-215q-9 0 -15 3t-6 8t8 10.5t16 10.5t20 15t23 20q19 18 61 18h372q20 0 20 -10q0 -9 -19 -21q-14 -9 -26.5 -19t-23.5 -21
q-14 -14 -50 -14h-108v-5v-204q0 -23 -12 -35q-9 -9 -23.5 -22t-34.5 -28q-13 -10 -25.5 -4.5t-12.5 24.5v204z" />
    <glyph glyph-name="uni315E" unicode="&#x315e;" 
d="M392 146q5 3 14.5 10.5t20 15.5t19 14.5t11.5 8.5q6 5 18 7.5t23 2.5h74v369q0 12 -7 14q-6 2 -20 -8q-9 -7 -19 -7t-15 7q-6 8 -2.5 18t14.5 18l117 82q18 13 29 7.5t11 -30.5v-676q0 -23 -12 -35q-9 -9 -23.5 -22t-34.5 -28q-13 -10 -25.5 -4.5t-12.5 24.5v213
q-17 -14 -25 -18q-8 -5 -14.5 -7t-20.5 -2h-102q-14 0 -18.5 1t-9.5 6t-1.5 9t11.5 10zM830 738q18 13 29 7.5t11 -30.5v-756q0 -23 -12 -35q-9 -9 -23.5 -22t-34.5 -28q-13 -10 -25.5 -4.5t-12.5 24.5v720q0 12 -7 14q-6 2 -20 -8q-9 -7 -19 -7t-15 7q-6 8 -2.5 18t14.5 18
zM214 220q0 23 12 35q7 7 16.5 15.5t22.5 19.5h-195q-9 0 -15 3t-6 8t8 10.5t16 10.5t20 15t23 20q19 18 61 18h302q20 0 20 -10q0 -9 -19 -21q-14 -9 -26.5 -19t-23.5 -21q-14 -14 -50 -14h-58v-5v-204q0 -23 -12 -35q-9 -9 -23.5 -22t-34.5 -28q-13 -10 -25.5 -4.5
t-12.5 24.5v204z" />
    <glyph glyph-name="uni315F" unicode="&#x315f;" 
d="M743 744q18 13 29 7.5t11 -30.5v-750q0 -23 -12 -35q-9 -9 -30 -27.5t-41 -33.5q-13 -10 -25.5 -4.5t-12.5 24.5v714q0 12 -7 14q-6 2 -20 -8q-9 -7 -19 -7t-15 7q-6 8 -2.5 18t14.5 18zM274 220q0 23 12 35q7 7 16.5 15.5t22.5 19.5h-235q-9 0 -15 3t-6 8t8 10.5
t16 10.5t20 15t23 20q19 18 61 18h372q20 0 20 -10q0 -9 -19 -21q-14 -9 -26.5 -19t-23.5 -21q-14 -14 -50 -14h-88v-5v-204q0 -23 -12 -35q-9 -9 -23.5 -22t-34.5 -28q-13 -10 -25.5 -4.5t-12.5 24.5v204z" />
    <glyph glyph-name="uni3160" unicode="&#x3160;" 
d="M829 432q20 0 20 -10q0 -9 -19 -21q-14 -9 -26.5 -19t-23.5 -21q-14 -14 -50 -14h-98v-5v-264q0 -23 -12 -35q-9 -9 -23.5 -22t-34.5 -28q-13 -10 -25.5 -4.5t-12.5 24.5v264q0 23 12 35q7 7 16.5 15.5t22.5 19.5h-213v-5v-234q0 -23 -12 -35q-9 -9 -23.5 -22t-34.5 -28
q-13 -10 -25.5 -4.5t-12.5 24.5v234q0 23 12 35q7 7 16.5 15.5t22.5 19.5h-235q-9 0 -15 3t-6 8t8 10.5t16 10.5t20 15t23 20q19 18 61 18h652z" />
    <glyph glyph-name="uni3161" unicode="&#x3161;" 
d="M829 192q20 0 20 -10q0 -9 -19 -21q-14 -9 -26.5 -19t-23.5 -21q-14 -14 -50 -14h-660q-9 0 -15 3t-6 8t8 10.5t16 10.5t20 15t23 20q19 18 61 18h652z" />
    <glyph glyph-name="uni3162" unicode="&#x3162;" 
d="M740 744q18 13 29 7.5t11 -30.5v-750q0 -23 -12 -35q-9 -9 -30 -27.5t-41 -33.5q-13 -10 -25.5 -4.5t-12.5 24.5v714q0 12 -7 14q-6 2 -20 -8q-9 -7 -19 -7t-15 7q-6 8 -2.5 18t14.5 18zM548 192q20 0 20 -10q0 -9 -19 -21q-14 -9 -26.5 -19t-23.5 -21q-14 -14 -50 -14
h-379q-9 0 -15 3t-6 8t8 10.5t16 10.5t20 15t23 20q19 18 61 18h371z" />
    <glyph glyph-name="uni3163" unicode="&#x3163;" 
d="M480 744q18 13 29 7.5t11 -30.5v-750q0 -23 -12 -35q-9 -9 -30 -27.5t-41 -33.5q-13 -10 -25.5 -4.5t-12.5 24.5v714q0 12 -7 14q-6 2 -20 -8q-9 -7 -19 -7t-15 7q-6 8 -2.5 18t14.5 18z" />
    <glyph glyph-name="uni3164" unicode="&#x3164;" 
d="M466 326q5 -4 14.5 -10.5t14.5 -10.5q6 -4 6 -12q0 -4 -8 -10q-5 -3 -15 -11t-15 -13q-5 -7 -18 1l-29 21q-8 5 -6 13q0 4 3.5 6t6.5 4q6 4 14 10.5t13 11.5q8 8 19 0z" />
    <glyph glyph-name="uni318D" unicode="&#x318d;" 
d="M479 374q4 -4 12.5 -10t17.5 -12.5t18 -12.5l15 -10q14 -9 13 -25q-1 -6 -5 -10.5t-13 -11.5q-6 -4 -14.5 -11t-18 -14.5t-18 -15t-13.5 -12.5q-6 -7 -16.5 -6.5t-23.5 9.5l-63 46q-16 10 -13 27q0 8 7.5 12.5t13.5 8.5q14 9 32 23t28 25q18 18 41 0z" />
    <glyph glyph-name="servicemark" unicode="&#x8480;" 
d="M668 657q17 12 38.5 28t32.5 26q16 13 26 7.5t10 -28.5v-253q0 -11 -3 -19t-8 -13q-8 -9 -19 -19.5t-28 -24.5q-12 -8 -23.5 -3t-11.5 22v177l-38 -106q-9 -22 -17 -29q-7 -7 -17.5 -16t-24.5 -20q-4 -4 -6 -5q-2 -2 -5 -2q-8 -4 -13 -1t-10 15q-2 4 -7 19t-12 35.5
t-15 45t-15 47.5v-103q0 -11 -3 -19t-8 -13q-8 -9 -19 -19.5t-28 -24.5q-12 -8 -23.5 -3t-11.5 22v208q0 11 -6 13q-5 2 -19 -7q-8 -7 -17 -7t-14 7t-2 15.5t13 16.5q3 2 16.5 13.5t29.5 25.5t31.5 27t23.5 19q24 17 33 0l3 -6q2 -6 11.5 -30.5t22.5 -56t26.5 -65.5
t24.5 -61l41 126q5 14 16 21l2 1l2 2zM335 681q4 -5 2 -12q-4 -14 -18.5 -31t-33.5 -26q-5 -2 -9 -0.5t-6 6.5q-21 43 -47.5 58t-40.5 4q-15 -12 -8 -30.5t41 -39.5q6 -5 20 -14t29.5 -18.5t29 -18t18.5 -11.5q28 -19 34 -45.5t-2 -50.5q-11 -29 -38 -53t-53 -34
q-18 -9 -37 -9q-26 0 -48 14t-35 34q-8 15 -12.5 19.5t-12.5 3.5q-5 0 -9.5 1t-6.5 4q-2 5 0 10.5t6 9.5q8 9 26 19.5t37 16.5q11 3 19.5 -2t18.5 -23q32 -57 58 -58q11 -1 20.5 5.5t17.5 17.5q7 8 10 2q2 -5 -3 -17q-21 -34 -49 -48q-4 -2 -5 -2q-10 -5 -15 2q-2 2 1 13.5
t9 13.5q27 11 35.5 21t10.5 23q2 12 -7 24.5t-33 28.5q-3 2 -13.5 8.5t-23 14t-24 15t-15.5 10.5q-33 20 -49 44.5t-16 48.5t14.5 45t41.5 34q20 9 43.5 11.5t47 -1.5t44.5 -14t36 -24z" />
    <glyph glyph-name="uniAC00" unicode="&#xac00;" 
d="M689 669q18 13 29 7.5t11 -30.5v-369q18 13 29 13h107q20 0 20 -10q0 -9 -19 -21q-14 -9 -26.5 -19t-23.5 -21q-14 -14 -50 -14h-37v-161q0 -23 -12 -35q-9 -9 -30 -27.5t-41 -33.5q-13 -10 -25.5 -4.5t-12.5 24.5v566q0 12 -7 14q-6 2 -20 -8q-9 -7 -19 -7t-15 7
q-6 8 -2.5 18t14.5 18zM427 399q34 -70 -5 -169q-8 -19 -23 -42t-34 -45t-39 -41t-37 -29q-14 -8 -26.5 -9t-16.5 4q-5 8 -1.5 19.5t9.5 19.5q11 16 19.5 28.5t15.5 25t13 26t13 31.5q7 20 10 45t-2 39q-5 18 -16.5 27t-25.5 8q-19 -1 -36.5 -2t-46.5 -2h-33t-35 1t-32 3.5
t-25 5.5q-14 5 -11.5 15.5t22.5 21.5q11 6 24.5 15t23.5 17q11 8 21.5 10.5t29.5 0.5q17 -2 36 -3t51 0q20 1 41.5 3t61.5 4q18 1 32 -5.5t22 -22.5z" />
    <glyph glyph-name="uniAC01" unicode="&#xac01;" 
d="M865 290q20 0 20 -10q0 -9 -19 -21q-14 -9 -26.5 -19t-23.5 -21q-14 -14 -50 -14h-37v-77q0 -23 -12 -35q-9 -9 -30 -27.5t-41 -33.5q-13 -10 -25.5 -4.5t-12.5 24.5v348q0 12 -7 14q-6 2 -20 -8q-9 -7 -19 -7t-15 7q-6 8 -2.5 18t14.5 18l130 93q18 13 29 7.5t11 -30.5
v-234q13 12 29 12h107zM331 -41q9 6 20 7.5t26 -0.5q19 -2 45.5 -2t47.5 1q13 0 33.5 1.5t43.5 2.5t47 1t44 -1q30 -2 48.5 -14t28.5 -30t11 -41.5t-5 -48.5q-6 -26 -21 -54.5t-33 -54.5t-36.5 -46.5t-31.5 -28.5q-14 -8 -20.5 -7.5t-8.5 5.5t-0.5 12t4.5 13q3 5 8.5 17.5
t11.5 30t10.5 39.5t5.5 45q1 29 -12 47t-36 21q-13 2 -35 2.5t-47 0t-49 -1t-40 -0.5q-15 0 -33 0.5t-35.5 1.5t-32.5 3t-24 5q-12 4 -11.5 14t20.5 24zM407 399q34 -70 -5 -169q-8 -19 -23 -42t-34 -45t-39 -41t-37 -29q-14 -8 -26.5 -9t-16.5 4q-5 8 -1.5 19.5t9.5 19.5
q11 16 19.5 28.5t15.5 25t13 26t13 31.5q7 20 10 45t-2 39q-5 18 -16.5 27t-25.5 8q-19 -1 -36.5 -2t-46.5 -2h-33t-35 1t-32 3.5t-25 5.5q-14 5 -11.5 15.5t22.5 21.5q11 6 24.5 15t23.5 17q11 8 21.5 10.5t29.5 0.5q17 -2 36 -3t51 0q20 1 41.5 3t61.5 4q18 1 32 -5.5
t22 -22.5z" />
    <glyph glyph-name="uniAC02" unicode="&#xac02;" 
d="M186 -63q11 6 24.5 15t23.5 17q11 8 20 10.5t28 1.5q28 -1 63 -0.5t58 1.5q18 1 29 -3t22 -15q2 -2 3.5 -4t3.5 -5l19 14q11 8 20 10.5t28 1.5q28 -1 63 -0.5t58 1.5q18 1 42 -1.5t39 -16.5q20 -17 22.5 -49t-5.5 -69q-5 -20 -12 -42t-19.5 -45t-30.5 -45.5t-44 -43.5
q-11 -8 -21 -11t-14 0q-5 5 -4 15.5t5 17.5q14 28 22.5 58.5t10.5 59.5q2 27 0.5 43.5t-10.5 25.5q-6 6 -17 10t-23 5.5t-24 1.5h-21q-32 -2 -68 0q0 -23 -6 -50q-5 -20 -12 -42t-19.5 -45t-30.5 -45.5t-44 -43.5q-11 -8 -21 -11t-14 0q-5 5 -4 15.5t5 17.5q28 57 34 118
q2 19 -0.5 39t-10.5 30q-10 12 -23 15t-32 2q-15 -1 -34 -1t-37 0.5t-32.5 1.5t-20.5 3q-14 4 -11.5 15t22.5 22zM865 290q20 0 20 -10q0 -9 -19 -21q-14 -9 -26.5 -19t-23.5 -21q-14 -14 -50 -14h-37v-57q0 -23 -12 -35q-9 -9 -30 -27.5t-41 -33.5q-13 -10 -25.5 -4.5
t-12.5 24.5v328q0 12 -7 14q-6 2 -20 -8q-9 -7 -19 -7t-15 7q-6 8 -2.5 18t14.5 18l130 93q18 13 29 7.5t11 -30.5v-234q13 12 29 12h107zM417 389q34 -70 -5 -169q-8 -19 -23 -42t-34 -45t-39 -41t-37 -29q-14 -8 -26.5 -9t-16.5 4q-5 8 -1.5 19.5t9.5 19.5
q11 16 19.5 28.5t15.5 25t13 26t13 31.5q7 20 10 45t-2 39q-5 18 -16.5 27t-25.5 8q-19 -1 -36.5 -2t-46.5 -2h-33t-35 1t-32 3.5t-25 5.5q-14 5 -11.5 15.5t22.5 21.5q11 6 24.5 15t23.5 17q11 8 21.5 10.5t29.5 0.5q17 -2 36 -3t51 0q20 1 41.5 3t61.5 4q18 1 32 -5.5
t22 -22.5z" />
    <glyph glyph-name="uniAC04" unicode="&#xac04;" 
d="M865 290q20 0 20 -10q0 -9 -19 -21q-14 -9 -26.5 -19t-23.5 -21q-14 -14 -50 -14h-37v-159q0 -23 -12 -35q-9 -9 -30 -27.5t-41 -33.5q-13 -10 -25.5 -4.5t-12.5 24.5v430q0 12 -7 14q-6 2 -20 -8q-9 -7 -19 -7t-15 7q-6 8 -2.5 18t14.5 18l130 93q18 13 29 7.5t11 -30.5
v-234q13 12 29 12h107zM407 399q34 -70 -5 -169q-8 -19 -23 -42t-34 -45t-39 -41t-37 -29q-14 -8 -26.5 -9t-16.5 4q-5 8 -1.5 19.5t9.5 19.5q11 16 19.5 28.5t15.5 25t13 26t13 31.5q7 20 10 45t-2 39q-5 18 -16.5 27t-25.5 8q-19 -1 -36.5 -2t-46.5 -2h-33t-35 1t-32 3.5
t-25 5.5q-14 5 -11.5 15.5t22.5 21.5q11 6 24.5 15t23.5 17q11 8 21.5 10.5t29.5 0.5q17 -2 36 -3t51 0q20 1 41.5 3t61.5 4q18 1 32 -5.5t22 -22.5zM271 -107q14 14 32.5 27t52.5 23q21 6 34 -3q15 -9 30 -37q27 -51 59.5 -81.5t63.5 -41.5q43 -15 92 -11.5t96 38.5
q8 6 14 6t9 -3q11 -11 -6 -28q-32 -31 -66.5 -52.5t-69.5 -33.5t-69.5 -13.5t-64.5 7.5q-51 15 -89 47t-60 74q-13 25 -21 32.5t-21 6.5q-9 -1 -16.5 1t-10.5 7q-4 7 -0.5 17t11.5 18z" />
    <glyph glyph-name="uniAC07" unicode="&#xac07;" 
d="M708 0q20 0 20 -10q0 -9 -19 -21q-14 -9 -26.5 -19t-23.5 -21q-14 -14 -50 -14h-186q-4 -19 5 -52t32 -59q26 -29 58.5 -45t64.5 -17q30 -1 54 9.5t42 26.5q15 13 24 7q11 -7 2 -24q-18 -36 -50.5 -64t-85.5 -39q-25 -5 -53 -2.5t-55 12.5t-51 27t-40 41q-26 39 -38.5 75
t-5.5 57q4 13 18 24.5t32 22.5h-76q-9 0 -15 3t-6 8t8 10.5t16 10.5t20 15t23 20q19 18 61 18h301zM865 290q20 0 20 -10q0 -9 -19 -21q-14 -9 -26.5 -19t-23.5 -21q-14 -14 -50 -14h-37v-30q0 -23 -12 -35q-9 -9 -30 -27.5t-41 -33.5q-13 -10 -25.5 -4.5t-12.5 24.5v301
q0 12 -7 14q-6 2 -20 -8q-9 -7 -19 -7t-15 7q-6 8 -2.5 18t14.5 18l130 93q18 13 29 7.5t11 -30.5v-234q13 12 29 12h107zM407 399q34 -70 -5 -169q-8 -19 -23 -42t-34 -45t-39 -41t-37 -29q-14 -8 -26.5 -9t-16.5 4q-5 8 -1.5 19.5t9.5 19.5q11 16 19.5 28.5t15.5 25t13 26
t13 31.5q7 20 10 45t-2 39q-5 18 -16.5 27t-25.5 8q-19 -1 -36.5 -2t-46.5 -2h-33t-35 1t-32 3.5t-25 5.5q-14 5 -11.5 15.5t22.5 21.5q11 6 24.5 15t23.5 17q11 8 21.5 10.5t29.5 0.5q17 -2 36 -3t51 0q20 1 41.5 3t61.5 4q18 1 32 -5.5t22 -22.5z" />
    <glyph glyph-name="uniAC08" unicode="&#xac08;" 
d="M331 -193q0 2 2 2v1q1 0 1 1q7 6 14 11.5t17 10.5q13 10 25.5 20t16.5 12q6 5 18 7.5t23 2.5h155q10 28 12 47q1 8 -0.5 15.5t-6.5 12.5q-8 8 -25.5 9t-30.5 0q-14 -1 -29.5 -2t-40.5 -2h-33t-35 1t-32 3.5t-25 5.5q-14 5 -11.5 15.5t22.5 21.5q11 6 24.5 15t23.5 17
q11 8 21.5 11t29.5 0q13 -2 31.5 -3.5t45.5 -0.5q15 1 37 3t48 4q23 2 42 -4.5t29 -14.5q17 -15 20.5 -30.5t-4.5 -46.5q-5 -20 -14.5 -38.5t-26.5 -38.5h31q5 0 12.5 -1t10.5 -4q4 -4 4 -6.5t-6 -8.5q-3 -3 -13 -11.5t-21.5 -17.5t-21.5 -17t-14 -10q-8 -5 -14.5 -7
t-20.5 -2h-146q18 -32 36 -55t50 -38q29 -13 63 -9t82 39q15 10 21 4q4 -4 2 -11t-8 -15q-32 -39 -63.5 -61.5t-61.5 -31.5t-58 -5.5t-53 16.5q-32 17 -58 47t-44 66q-11 22 -19.5 28.5t-19.5 5.5q-18 -2 -24 7q-3 6 0 15t10 15zM865 290q20 0 20 -10q0 -9 -19 -21
q-14 -9 -26.5 -19t-23.5 -21q-14 -14 -50 -14h-37v-30q0 -23 -12 -35q-9 -9 -30 -27.5t-41 -33.5q-13 -10 -25.5 -4.5t-12.5 24.5v301q0 12 -7 14q-6 2 -20 -8q-9 -7 -19 -7t-15 7q-6 8 -2.5 18t14.5 18l130 93q18 13 29 7.5t11 -30.5v-234q13 12 29 12h107zM417 399
q34 -70 -5 -169q-8 -19 -23 -42t-34 -45t-39 -41t-37 -29q-14 -8 -26.5 -9t-16.5 4q-5 8 -1.5 19.5t9.5 19.5q11 16 19.5 28.5t15.5 25t13 26t13 31.5q7 20 10 45t-2 39q-5 18 -16.5 27t-25.5 8q-19 -1 -36.5 -2t-46.5 -2h-33t-35 1t-32 3.5t-25 5.5q-14 5 -11.5 15.5
t22.5 21.5q11 6 24.5 15t23.5 17q11 8 21.5 10.5t29.5 0.5q17 -2 36 -3t51 0q20 1 41.5 3t61.5 4q18 1 32 -5.5t22 -22.5z" />
    <glyph glyph-name="uniAC09" unicode="&#xac09;" 
d="M281 7q13 -1 37 0t45 3t39 -2.5t32 -16.5q16 -13 20 -32l8 4q11 6 24.5 15t23.5 17q11 8 20 10.5t28 1.5q28 -1 53 -0.5t48 1.5q18 1 38.5 -5.5t34.5 -21.5q25 -27 26 -68t-21 -111q-12 -38 -33.5 -83.5t-62.5 -90.5q-20 -21 -34 -14q-11 6 -2 33q10 30 16.5 60t10.5 59
q7 54 3 90t-15 49q-12 14 -29 16t-36 1q-30 -2 -59.5 -0.5t-42.5 4.5l-3 -12q-5 -20 -14.5 -38.5t-26.5 -38.5h31q5 0 12.5 -1t10.5 -4q4 -4 4 -6.5t-6 -8.5q-3 -3 -13 -11.5t-21.5 -17.5t-21.5 -17t-14 -10q-8 -5 -14.5 -7t-20.5 -2h-63q11 -36 18.5 -57.5t29.5 -35.5
q23 -14 52.5 -7.5t67.5 40.5q8 7 13.5 6t8.5 -4q9 -9 -6 -27q-32 -38 -58.5 -60.5t-49.5 -32t-44 -8t-42 10.5q-33 14 -55 45t-30 76q-5 24 -16.5 29t-22.5 5q-19 0 -25 10q-4 6 0 13.5t11 13.5q0 2 2 2v1q7 6 14.5 12t17.5 11q13 10 25.5 20t16.5 12q6 5 18 7.5t23 2.5h75
q10 28 12 47q1 8 -0.5 15.5t-6.5 12.5q-15 15 -52 14q-14 -1 -29.5 -2t-40.5 -2q-33 -1 -49 5q-14 5 -11.5 15.5t22.5 21.5q11 6 24.5 15t23.5 17q11 8 24.5 10t26.5 1zM865 290q20 0 20 -10q0 -9 -19 -21q-14 -9 -26.5 -19t-23.5 -21q-14 -14 -50 -14h-37v-48
q0 -23 -12 -35q-9 -9 -30 -27.5t-41 -33.5q-13 -10 -25.5 -4.5t-12.5 24.5v319q0 12 -7 14q-6 2 -20 -8q-9 -7 -19 -7t-15 7q-6 8 -2.5 18t14.5 18l130 93q18 13 29 7.5t11 -30.5v-234q13 12 29 12h107zM417 399q34 -70 -5 -169q-8 -19 -23 -42t-34 -45t-39 -41t-37 -29
q-14 -8 -26.5 -9t-16.5 4q-5 8 -1.5 19.5t9.5 19.5q11 16 19.5 28.5t15.5 25t13 26t13 31.5q7 20 10 45t-2 39q-5 18 -16.5 27t-25.5 8q-19 -1 -36.5 -2t-46.5 -2h-33t-35 1t-32 3.5t-25 5.5q-14 5 -11.5 15.5t22.5 21.5q11 6 24.5 15t23.5 17q11 8 21.5 10.5t29.5 0.5
q17 -2 36 -3t51 0q20 1 41.5 3t61.5 4q18 1 32 -5.5t22 -22.5z" />
    <glyph glyph-name="uniAC0A" unicode="&#xac0a;" 
d="M137 -228q1 0 1 1q7 6 14 11.5t17 10.5q13 10 25.5 20t16.5 12q6 5 18 7.5t23 2.5h75q10 28 12 47q1 8 -0.5 15.5t-6.5 12.5q-15 15 -52 14q-14 -1 -29.5 -2t-40.5 -2q-33 -1 -49 5q-14 5 -11.5 15.5t22.5 21.5q11 6 24.5 15t23.5 17q11 8 24.5 10t26.5 1t37 0t45 3
t39 -2.5t32 -16.5q11 -9 16.5 -21.5t3.5 -31.5q7 4 21 14.5t30.5 21.5t31.5 22t24 17q18 13 29 7.5t11 -30.5v-49q45 38 85.5 48.5t66.5 -0.5q42 -17 53.5 -52.5t-2.5 -88.5q-12 -44 -34.5 -80.5t-49.5 -62.5h78q20 0 20 -10q0 -9 -19 -21q-14 -9 -26.5 -19t-23.5 -21
q-14 -14 -50 -14h-134l-27 -22q-13 -10 -25.5 -4.5t-12.5 24.5v275q0 12 -7 14q-6 2 -20 -8q-15 -11 -29 -4q-10 -29 -35 -58h31q5 0 12.5 -1t10.5 -4q4 -4 4 -6.5t-6 -8.5q-3 -3 -13 -11.5t-21.5 -17.5t-21.5 -17t-14 -10q-8 -5 -14.5 -7t-20.5 -2h-63q11 -36 18.5 -57.5
t29.5 -35.5q23 -14 52.5 -7.5t67.5 40.5q8 7 13.5 6t8.5 -4q9 -9 -6 -27q-32 -38 -58.5 -60.5t-49.5 -32t-44 -8t-42 10.5q-33 14 -55 45t-30 76q-5 24 -16.5 29t-22.5 5q-19 0 -25 10q-4 6 0 13.5t11 13.5zM865 290q20 0 20 -10q0 -9 -19 -21q-14 -9 -26.5 -19t-23.5 -21
q-14 -14 -50 -14h-37v-40q0 -23 -12 -35q-9 -9 -30 -27.5t-41 -33.5q-13 -10 -25.5 -4.5t-12.5 24.5v311q0 12 -7 14q-6 2 -20 -8q-9 -7 -19 -7t-15 7q-6 8 -2.5 18t14.5 18l130 93q18 13 29 7.5t11 -30.5v-234q13 12 29 12h107zM417 399q34 -70 -5 -169q-8 -19 -23 -42
t-34 -45t-39 -41t-37 -29q-14 -8 -26.5 -9t-16.5 4q-5 8 -1.5 19.5t9.5 19.5q11 16 19.5 28.5t15.5 25t13 26t13 31.5q7 20 10 45t-2 39q-5 18 -16.5 27t-25.5 8q-19 -1 -36.5 -2t-46.5 -2h-33t-35 1t-32 3.5t-25 5.5q-14 5 -11.5 15.5t22.5 21.5q11 6 24.5 15t23.5 17
q11 8 21.5 10.5t29.5 0.5q17 -2 36 -3t51 0q20 1 41.5 3t61.5 4q18 1 32 -5.5t22 -22.5zM656 -94q-18 6 -33 4.5t-32 -12.5v-193h39q13 16 22.5 30t16 27.5t11.5 27.5t8 31q7 32 2 53t-34 32z" />
    <glyph glyph-name="uniAC10" unicode="&#xac10;" 
d="M439 -67q51 35 101.5 40.5t88.5 -7.5q48 -16 73 -49.5t11 -86.5q-9 -32 -27.5 -61t-41.5 -52h60q20 0 20 -10q0 -9 -19 -21q-14 -9 -26.5 -19t-23.5 -21q-14 -14 -50 -14h-181q-9 -8 -19.5 -18t-28.5 -24q-13 -10 -25.5 -4.5t-12.5 24.5v254q0 12 -7 14q-6 2 -20 -8
q-9 -7 -19 -7t-15 7q-6 8 -2.5 18t14.5 18l110 78q18 13 29 7.5t11 -30.5v-28zM865 290q20 0 20 -10q0 -9 -19 -21q-14 -9 -26.5 -19t-23.5 -21q-14 -14 -50 -14h-37v-77q0 -23 -12 -35q-9 -9 -30 -27.5t-41 -33.5q-13 -10 -25.5 -4.5t-12.5 24.5v348q0 12 -7 14
q-6 2 -20 -8q-9 -7 -19 -7t-15 7q-6 8 -2.5 18t14.5 18l130 93q18 13 29 7.5t11 -30.5v-234q13 12 29 12h107zM397 389q34 -70 -5 -169q-8 -19 -23 -42t-34 -45t-39 -41t-37 -29q-14 -8 -26.5 -9t-16.5 4q-5 8 -1.5 19.5t9.5 19.5q11 16 19.5 28.5t15.5 25t13 26t13 31.5
q7 20 10 45t-2 39q-5 18 -16.5 27t-25.5 8q-19 -1 -36.5 -2t-46.5 -2h-33t-35 1t-32 3.5t-25 5.5q-14 5 -11.5 15.5t22.5 21.5q11 6 24.5 15t23.5 17q11 8 21.5 10.5t29.5 0.5q17 -2 36 -3t51 0q20 1 41.5 3t61.5 4q18 1 32 -5.5t22 -22.5zM559 -112q-30 11 -61.5 9
t-58.5 -13v-167h118q17 21 29.5 41t20.5 45q11 32 -4 53t-44 32z" />
    <glyph glyph-name="uniAC11" unicode="&#xac11;" 
d="M670 -10q18 13 29 7.5t11 -30.5v-39t-0.5 -60.5t-0.5 -58v-31.5q0 -23 -12 -35q-7 -7 -21.5 -19.5t-30.5 -26.5h61q5 0 12.5 -1t10.5 -4q2 -2 2.5 -6t-4.5 -9q-3 -3 -12 -10.5t-19.5 -16t-20 -15.5t-13.5 -9q-8 -5 -14.5 -7t-20.5 -2h-245h-1l-8 -6q-13 -10 -25.5 -4.5
t-12.5 24.5v224q0 12 -7 14q-6 2 -20 -8q-9 -7 -19 -7t-15 7q-6 8 -2.5 18t14.5 18l130 93q18 13 29 7.5t11 -30.5v-119h133v50q0 20 5 30.5t24 24.5zM865 290q20 0 20 -10q0 -9 -19 -21q-14 -9 -26.5 -19t-23.5 -21q-14 -14 -50 -14h-37v-76q0 -23 -12 -35q-9 -9 -30 -27.5
t-41 -33.5q-13 -10 -25.5 -4.5t-12.5 24.5v347q0 12 -7 14q-6 2 -20 -8q-9 -7 -19 -7t-15 7q-6 8 -2.5 18t14.5 18l130 93q18 13 29 7.5t11 -30.5v-234q13 12 29 12h107zM397 389q34 -70 -5 -169q-8 -19 -23 -42t-34 -45t-39 -41t-37 -29q-14 -8 -26.5 -9t-16.5 4
q-5 8 -1.5 19.5t9.5 19.5q11 16 19.5 28.5t15.5 25t13 26t13 31.5q7 20 10 45t-2 39q-5 18 -16.5 27t-25.5 8q-19 -1 -36.5 -2t-46.5 -2h-33t-35 1t-32 3.5t-25 5.5q-14 5 -11.5 15.5t22.5 21.5q11 6 24.5 15t23.5 17q11 8 21.5 10.5t29.5 0.5q17 -2 36 -3t51 0q20 1 41.5 3
t61.5 4q18 1 32 -5.5t22 -22.5zM456 -293q0 -7 -1 -10h10h123v5v95l-27 -20q-8 -5 -14.5 -7t-20.5 -2h-70v-61z" />
    <glyph glyph-name="uniAC12" unicode="&#xac12;" 
d="M399 19q18 13 29 7.5t11 -30.5v-214q0 -23 -12 -35l-12 -11h29q5 0 12.5 -1t10.5 -4q2 -2 2.5 -6t-4.5 -9q-3 -3 -12 -10.5t-19.5 -16t-20 -15.5t-13.5 -9q-8 -5 -14.5 -7t-20.5 -2h-145h-2l-7 -6q-13 -10 -25.5 -4.5t-12.5 24.5v236q0 5 -1 3.5t-6 0.5q-6 2 -20 -8
q-9 -7 -19 -7t-15 7q-6 8 -2.5 18t14.5 18l100 72q18 13 29 7.5t11 -30.5v-112q6 2 13.5 3t15.5 1h45v60q0 23 5 32.5t16 17.5zM865 290q20 0 20 -10q0 -9 -19 -21q-14 -9 -26.5 -19t-23.5 -21q-14 -14 -50 -14h-37v-40q0 -23 -12 -35q-9 -9 -30 -27.5t-41 -33.5
q-13 -10 -25.5 -4.5t-12.5 24.5v311q0 12 -7 14q-6 2 -20 -8q-9 -7 -19 -7t-15 7q-6 8 -2.5 18t14.5 18l130 93q18 13 29 7.5t11 -30.5v-234q13 12 29 12h107zM417 399q34 -70 -5 -169q-8 -19 -23 -42t-34 -45t-39 -41t-37 -29q-14 -8 -26.5 -9t-16.5 4q-5 8 -1.5 19.5
t9.5 19.5q11 16 19.5 28.5t15.5 25t13 26t13 31.5q7 20 10 45t-2 39q-5 18 -16.5 27t-25.5 8q-19 -1 -36.5 -2t-46.5 -2h-33t-35 1t-32 3.5t-25 5.5q-14 5 -11.5 15.5t22.5 21.5q11 6 24.5 15t23.5 17q11 8 21.5 10.5t29.5 0.5q17 -2 36 -3t51 0q20 1 41.5 3t61.5 4
q18 1 32 -5.5t22 -22.5zM571 -23q14 10 36.5 21.5t52.5 16.5q11 1 17.5 -0.5t14.5 -6.5q20 -17 23 -55q3 -25 -1.5 -47t-14.5 -47q-17 -42 -46 -81t-67 -71q-32 -25 -63.5 -39t-59.5 -19q-13 -2 -21.5 1t-8.5 6q-4 7 20 24q10 7 34.5 26.5t47.5 45.5q23 25 39.5 55.5
t21.5 53.5q8 38 2 59q-4 11 -8 14.5t-10 4.5q-16 -1 -21 10q-2 6 0 13t12 15zM725 -192q4 5 10.5 5t14.5 -3q12 -5 25 -10.5t30 -15.5t28.5 -26.5t11.5 -38.5q0 -31 -49 -70q-8 -6 -15.5 -3.5t-7.5 11.5q-1 6 -3.5 13t-10.5 20q-19 33 -47 45q-22 7 -32 13q-8 3 -9 11t4 14
q5 5 12 10t12 7q8 5 14.5 9t11.5 9zM264 -272q6 4 17 6t22 2h35v70q-7 -3 -13.5 -5t-18.5 -2h-42v-71z" />
    <glyph glyph-name="uniAC13" unicode="&#xac13;" 
d="M865 290q20 0 20 -10q0 -9 -19 -21q-14 -9 -26.5 -19t-23.5 -21q-14 -14 -50 -14h-37v-96q0 -23 -12 -35q-9 -9 -30 -27.5t-41 -33.5q-13 -10 -25.5 -4.5t-12.5 24.5v367q0 12 -7 14q-6 2 -20 -8q-9 -7 -19 -7t-15 7q-6 8 -2.5 18t14.5 18l130 93q18 13 29 7.5t11 -30.5
v-234q13 12 29 12h107zM407 399q34 -70 -5 -169q-8 -19 -23 -42t-34 -45t-39 -41t-37 -29q-14 -8 -26.5 -9t-16.5 4q-5 8 -1.5 19.5t9.5 19.5q11 16 19.5 28.5t15.5 25t13 26t13 31.5q7 20 10 45t-2 39q-5 18 -16.5 27t-25.5 8q-19 -1 -36.5 -2t-46.5 -2h-33t-35 1t-32 3.5
t-25 5.5q-14 5 -11.5 15.5t22.5 21.5q11 6 24.5 15t23.5 17q11 8 21.5 10.5t29.5 0.5q17 -2 36 -3t51 0q20 1 41.5 3t61.5 4q18 1 32 -5.5t22 -22.5zM437 -18q16 8 47.5 12.5t61.5 1.5q17 -1 28 -14q17 -21 14 -60q-3 -31 -13.5 -61.5t-32.5 -59.5q-26 -35 -65 -62.5
t-77 -41.5t-79.5 -20t-69.5 -3q-29 3 -31 13q-2 5 6.5 9.5t19.5 8.5q6 2 18 6.5t27.5 11t32 14t31.5 15.5q28 15 48.5 36t30.5 39q16 29 19 51.5t0 43.5q-2 11 -6.5 14.5t-10.5 5.5q-17 6 -18 15q-2 7 4.5 14.5t14.5 10.5zM600 -185q5 5 15 6t21 -1q6 -1 16.5 -3.5
t22.5 -5.5t23.5 -7.5t19.5 -8.5q20 -11 32 -26t13 -35q1 -15 -9 -34t-33 -40q-8 -8 -15 -5.5t-10 11.5q-2 5 -8 17t-17 23q-14 13 -29 20.5t-30 12.5q-12 3 -28 6t-24 6q-8 5 -9.5 12.5t3.5 12.5q5 7 11.5 12.5t11.5 8.5q8 4 13 8.5t10 9.5z" />
    <glyph glyph-name="uniAC14" unicode="&#xac14;" 
d="M865 290q20 0 20 -10q0 -9 -19 -21q-14 -9 -26.5 -19t-23.5 -21q-14 -14 -50 -14h-37v-57q0 -23 -12 -35q-9 -9 -30 -27.5t-41 -33.5q-13 -10 -25.5 -4.5t-12.5 24.5v328q0 12 -7 14q-6 2 -20 -8q-9 -7 -19 -7t-15 7q-6 8 -2.5 18t14.5 18l130 93q18 13 29 7.5t11 -30.5
v-234q13 12 29 12h107zM417 389q34 -70 -5 -169q-8 -19 -23 -42t-34 -45t-39 -41t-37 -29q-14 -8 -26.5 -9t-16.5 4q-5 8 -1.5 19.5t9.5 19.5q11 16 19.5 28.5t15.5 25t13 26t13 31.5q7 20 10 45t-2 39q-5 18 -16.5 27t-25.5 8q-19 -1 -36.5 -2t-46.5 -2h-33t-35 1t-32 3.5
t-25 5.5q-14 5 -11.5 15.5t22.5 21.5q11 6 24.5 15t23.5 17q11 8 21.5 10.5t29.5 0.5q17 -2 36 -3t51 0q20 1 41.5 3t61.5 4q18 1 32 -5.5t22 -22.5zM297 -59q14 10 38 24t53 19q19 3 31 -5q19 -14 25 -54q2 -17 -0.5 -37t-12.5 -45q-17 -41 -46 -77.5t-62 -61.5
q-32 -24 -70.5 -41t-66.5 -22q-13 -2 -17.5 -0.5t-5.5 4.5q-2 5 2.5 10t16.5 15q5 4 15.5 11.5t23.5 17.5t27 22t26 24q23 23 35.5 46t19.5 47q4 14 3.5 26.5t-3.5 23.5t-9.5 13t-12.5 2q-18 2 -22 10q-3 5 1 14t11 14zM500 -59q14 10 38 24t53 19q19 3 31 -5q19 -14 25 -54
q2 -17 -0.5 -37t-12.5 -45q-17 -41 -46 -77.5t-62 -61.5q-32 -24 -70.5 -41t-66.5 -22q-13 -2 -17.5 -0.5t-5.5 4.5q-2 5 2.5 10t16.5 15q5 4 15.5 11.5t23.5 17.5t27 22t26 24q23 23 35.5 46t19.5 47q4 14 3.5 26.5t-3.5 23.5t-9.5 13t-12.5 2q-18 2 -22 10q-3 5 1 14
t11 14zM699 -180q11 7 25 -4q11 -8 23 -15.5t26 -21.5q14 -13 22.5 -31.5t3.5 -39.5q-6 -31 -62 -59q-9 -5 -16 -0.5t-6 13.5q1 8 -6 34q-12 37 -37 54q-11 7 -17 11t-12 9t-5.5 12.5t6.5 12.5q6 4 14 7t13 5q9 3 16 6t12 7z" />
    <glyph glyph-name="uniAC15" unicode="&#xac15;" 
d="M391 -91q36 37 83 60t87 24q40 2 74.5 -18t58.5 -52q27 -37 24 -84t-34 -84q-59 -72 -147 -95q-21 -6 -45.5 -4t-47.5 11t-43.5 24t-35.5 36t-19.5 45t-0.5 48t16 47t30 42zM865 290q20 0 20 -10q0 -9 -19 -21q-14 -9 -26.5 -19t-23.5 -21q-14 -14 -50 -14h-37v-86
q0 -23 -12 -35q-9 -9 -30 -27.5t-41 -33.5q-13 -10 -25.5 -4.5t-12.5 24.5v357q0 12 -7 14q-6 2 -20 -8q-9 -7 -19 -7t-15 7q-6 8 -2.5 18t14.5 18l130 93q18 13 29 7.5t11 -30.5v-234q13 12 29 12h107zM407 399q34 -70 -5 -169q-8 -19 -23 -42t-34 -45t-39 -41t-37 -29
q-14 -8 -26.5 -9t-16.5 4q-5 8 -1.5 19.5t9.5 19.5q11 16 19.5 28.5t15.5 25t13 26t13 31.5q7 20 10 45t-2 39q-5 18 -16.5 27t-25.5 8q-19 -1 -36.5 -2t-46.5 -2h-33t-35 1t-32 3.5t-25 5.5q-14 5 -11.5 15.5t22.5 21.5q11 6 24.5 15t23.5 17q11 8 21.5 10.5t29.5 0.5
q17 -2 36 -3t51 0q20 1 41.5 3t61.5 4q18 1 32 -5.5t22 -22.5zM588 -119q-10 12 -26.5 24t-35 18t-37.5 5t-34 -14q-14 -12 -16.5 -30t2 -37.5t14 -37.5t20.5 -30q15 -16 33.5 -27t37 -15.5t35 -2t27.5 13.5q11 10 14.5 26t0.5 34.5t-12 37t-23 35.5z" />
    <glyph glyph-name="uniAC16" unicode="&#xac16;" 
d="M865 290q20 0 20 -10q0 -9 -19 -21q-14 -9 -26.5 -19t-23.5 -21q-14 -14 -50 -14h-37v-86q0 -23 -12 -35q-9 -9 -30 -27.5t-41 -33.5q-13 -10 -25.5 -4.5t-12.5 24.5v357q0 12 -7 14q-6 2 -20 -8q-9 -7 -19 -7t-15 7q-6 8 -2.5 18t14.5 18l130 93q18 13 29 7.5t11 -30.5
v-234q13 12 29 12h107zM702 -34q20 0 20 -10q0 -9 -19 -21q-14 -9 -26.5 -19t-23.5 -21q-14 -14 -50 -14h-39q6 -6 9 -15q5 -14 0.5 -34t-15.5 -41q-11 -20 -23 -36t-28 -29.5t-35.5 -26.5t-45.5 -26q-35 -18 -72 -27t-65 -14q-14 -2 -22.5 -1t-10.5 6t4 11t16 13l15 9
t23.5 13.5t28.5 16.5l30 18q53 34 67 73q5 16 4 30t-3 28q-2 12 5.5 16.5t14.5 6.5q5 2 16.5 4.5t24.5 4.5h-200q-9 0 -15 3t-6 8t8 10.5t16 10.5t20 15t23 20q19 18 61 18h293zM407 399q34 -70 -5 -169q-8 -19 -23 -42t-34 -45t-39 -41t-37 -29q-14 -8 -26.5 -9t-16.5 4
q-5 8 -1.5 19.5t9.5 19.5q11 16 19.5 28.5t15.5 25t13 26t13 31.5q7 20 10 45t-2 39q-5 18 -16.5 27t-25.5 8q-19 -1 -36.5 -2t-46.5 -2h-33t-35 1t-32 3.5t-25 5.5q-14 5 -11.5 15.5t22.5 21.5q11 6 24.5 15t23.5 17q11 8 21.5 10.5t29.5 0.5q17 -2 36 -3t51 0q20 1 41.5 3
t61.5 4q18 1 32 -5.5t22 -22.5zM585 -233q7 9 25 7q13 -2 33 -5t38 -11t32 -21.5t18 -34.5q6 -32 -35 -78q-7 -8 -14 -6.5t-11 10.5q-2 5 -5.5 11.5t-13.5 17.5q-26 27 -55 35q-12 3 -25 4.5t-21 3.5t-10 10t2 14t10.5 12t10.5 10q13 12 21 21z" />
    <glyph glyph-name="uniAC17" unicode="&#xac17;" 
d="M865 290q20 0 20 -10q0 -9 -19 -21q-14 -9 -26.5 -19t-23.5 -21q-14 -14 -50 -14h-37v-26q0 -23 -12 -35q-9 -9 -30 -27.5t-41 -33.5q-13 -10 -25.5 -4.5t-12.5 24.5v297q0 12 -7 14q-6 2 -20 -8q-9 -7 -19 -7t-15 7q-6 8 -2.5 18t14.5 18l130 93q18 13 29 7.5t11 -30.5
v-234q13 12 29 12h107zM697 -82q20 0 20 -10q0 -9 -19 -21q-14 -9 -26.5 -19t-23.5 -21q-14 -14 -50 -14h-39q6 -6 9 -15q5 -14 0.5 -34t-15.5 -41q-11 -20 -23 -36t-28 -29.5t-35.5 -26.5t-45.5 -26q-35 -18 -72 -27t-65 -14q-14 -2 -22.5 -1t-10.5 6t4 11t16 13l15 9
t23.5 13.5t28.5 16.5l30 18q53 34 67 73q5 16 4 30t-3 28q-2 12 5.5 16.5t14.5 6.5q5 2 16.5 4.5t24.5 4.5h-200q-9 0 -15 3t-6 8t8 10.5t16 10.5t20 15t23 20q19 18 61 18h293zM407 399q34 -70 -5 -169q-8 -19 -23 -42t-34 -45t-39 -41t-37 -29q-14 -8 -26.5 -9t-16.5 4
q-5 8 -1.5 19.5t9.5 19.5q11 16 19.5 28.5t15.5 25t13 26t13 31.5q7 20 10 45t-2 39q-5 18 -16.5 27t-25.5 8q-19 -1 -36.5 -2t-46.5 -2h-33t-35 1t-32 3.5t-25 5.5q-14 5 -11.5 15.5t22.5 21.5q11 6 24.5 15t23.5 17q11 8 21.5 10.5t29.5 0.5q17 -2 36 -3t51 0q20 1 41.5 3
t61.5 4q18 1 32 -5.5t22 -22.5zM580 -276q7 9 25 7q13 -2 33 -5t38 -11t32 -21.5t18 -34.5q6 -32 -35 -78q-7 -8 -14 -6.5t-11 10.5q-2 5 -5.5 11.5t-13.5 17.5q-26 27 -55 35q-12 3 -25 4.5t-21 3.5t-10 10t2 14t10.5 12t10.5 10q13 12 21 21zM621 40q20 0 20 -10
q0 -9 -19 -21q-9 -6 -18.5 -14t-18.5 -16q-14 -14 -50 -14h-128q-9 0 -15 3t-6 8t8 10.5t16 10.5q5 3 13 10t17 15q19 18 61 18h120z" />
    <glyph glyph-name="uniAC18" unicode="&#xac18;" 
d="M610 -190q-5 34 -18 48t-30 16q-13 2 -35 2.5t-47 0t-49 -1t-40 -0.5q-15 0 -33 0.5t-35.5 1.5t-32.5 3t-24 5q-12 4 -11.5 14t20.5 24l56 36q9 6 20 7.5t26 -0.5q19 -2 45.5 -2t47.5 1q13 0 33.5 1.5t43.5 2.5t47 1t44 -1q60 -5 81 -52t2 -132q-6 -28 -21 -57t-33 -54.5
t-36.5 -45t-31.5 -27.5q-14 -8 -20.5 -7.5t-8.5 5.5t-0.5 12t4.5 13q3 5 8 17.5t10.5 30t10.5 39.5t7 45q0 5 0.5 10t0.5 10q-26 -18 -45 -37q-14 -14 -50 -14h-215q-9 0 -15 3t-6 8t8 10.5t16 10.5t20 15t23 20q19 18 61 18h202zM865 290q20 0 20 -10q0 -9 -19 -21
q-14 -9 -26.5 -19t-23.5 -21q-14 -14 -50 -14h-37v-66q0 -23 -12 -35q-9 -9 -30 -27.5t-41 -33.5q-13 -10 -25.5 -4.5t-12.5 24.5v337q0 12 -7 14q-6 2 -20 -8q-9 -7 -19 -7t-15 7q-6 8 -2.5 18t14.5 18l130 93q18 13 29 7.5t11 -30.5v-234q13 12 29 12h107zM407 399
q34 -70 -5 -169q-8 -19 -23 -42t-34 -45t-39 -41t-37 -29q-14 -8 -26.5 -9t-16.5 4q-5 8 -1.5 19.5t9.5 19.5q11 16 19.5 28.5t15.5 25t13 26t13 31.5q7 20 10 45t-2 39q-5 18 -16.5 27t-25.5 8q-19 -1 -36.5 -2t-46.5 -2h-33t-35 1t-32 3.5t-25 5.5q-14 5 -11.5 15.5
t22.5 21.5q11 6 24.5 15t23.5 17q11 8 21.5 10.5t29.5 0.5q17 -2 36 -3t51 0q20 1 41.5 3t61.5 4q18 1 32 -5.5t22 -22.5z" />
    <glyph glyph-name="uniAC19" unicode="&#xac19;" 
d="M718 -142q20 0 20 -10q0 -9 -19 -21q-14 -9 -26.5 -19t-23.5 -21q-14 -14 -50 -14h-150q-4 -19 -2 -45.5t14 -52.5q14 -31 41.5 -50.5t53.5 -23.5t51 6.5t42 28.5q14 14 26 7q5 -3 5.5 -11t-3.5 -13q-14 -21 -28 -37.5t-30.5 -28.5t-37 -21t-47.5 -16q-53 -13 -95 9.5
t-68 74.5q-11 21 -16.5 41.5t-7.5 37.5t-1 29.5t3 18.5q5 12 18.5 23.5t32.5 22.5h-99q-9 0 -15 3t-6 8t8 10.5t16 10.5t20 15t23 20q19 18 61 18h290zM865 290q20 0 20 -10q0 -9 -19 -21q-14 -9 -26.5 -19t-23.5 -21q-14 -14 -50 -14h-37v-57q0 -23 -12 -35
q-9 -9 -30 -27.5t-41 -33.5q-13 -10 -25.5 -4.5t-12.5 24.5v328q0 12 -7 14q-6 2 -20 -8q-9 -7 -19 -7t-15 7q-6 8 -2.5 18t14.5 18l130 93q18 13 29 7.5t11 -30.5v-234q13 12 29 12h107zM417 389q34 -70 -5 -169q-8 -19 -23 -42t-34 -45t-39 -41t-37 -29q-14 -8 -26.5 -9
t-16.5 4q-5 8 -1.5 19.5t9.5 19.5q11 16 19.5 28.5t15.5 25t13 26t13 31.5q7 20 10 45t-2 39q-5 18 -16.5 27t-25.5 8q-19 -1 -36.5 -2t-46.5 -2h-33t-35 1t-32 3.5t-25 5.5q-14 5 -11.5 15.5t22.5 21.5q11 6 24.5 15t23.5 17q11 8 21.5 10.5t29.5 0.5q17 -2 36 -3t51 0
q20 1 41.5 3t61.5 4q18 1 32 -5.5t22 -22.5zM668 0q20 0 20 -10q0 -9 -19 -21q-14 -9 -26.5 -19t-23.5 -21q-14 -14 -50 -14h-184q-9 0 -15 3t-6 8t8 10.5t16 10.5t20 15t23 20q19 18 61 18h176z" />
    <glyph glyph-name="uniAC1A" unicode="&#xac1a;" 
d="M865 290q20 0 20 -10q0 -9 -19 -21q-14 -9 -26.5 -19t-23.5 -21q-14 -14 -50 -14h-37v-57q0 -23 -12 -35q-9 -9 -30 -27.5t-41 -33.5q-13 -10 -25.5 -4.5t-12.5 24.5v328q0 12 -7 14q-6 2 -20 -8q-9 -7 -19 -7t-15 7q-6 8 -2.5 18t14.5 18l130 93q18 13 29 7.5t11 -30.5
v-234q13 12 29 12h107zM417 389q34 -70 -5 -169q-8 -19 -23 -42t-34 -45t-39 -41t-37 -29q-14 -8 -26.5 -9t-16.5 4q-5 8 -1.5 19.5t9.5 19.5q11 16 19.5 28.5t15.5 25t13 26t13 31.5q7 20 10 45t-2 39q-5 18 -16.5 27t-25.5 8q-19 -1 -36.5 -2t-46.5 -2h-33t-35 1t-32 3.5
t-25 5.5q-14 5 -11.5 15.5t22.5 21.5q11 6 24.5 15t23.5 17q11 8 21.5 10.5t29.5 0.5q17 -2 36 -3t51 0q20 1 41.5 3t61.5 4q18 1 32 -5.5t22 -22.5zM712 -6q20 0 20 -10q0 -9 -19 -21q-14 -9 -26.5 -19t-23.5 -21q-14 -14 -50 -14h-162l-3 -20q-2 -23 1 -47t14 -41
q9 -12 13.5 -17.5t9.5 -9.5q8 -6 7.5 -13t-10.5 -12q-28 -14 -54.5 -19.5t-40.5 0.5q-19 8 -28.5 25t-12.5 40q-2 19 -1 43.5t6 43.5q3 18 11 27h-70q-9 0 -15 3t-6 8t8 10.5t16 10.5t20 15t23 20q19 18 61 18h312zM533 -286q6 11 13 19q14 20 18.5 43.5t-6.5 40.5
q-7 10 -12.5 16.5t-9.5 10.5q-16 16 2 25q19 10 37.5 15t33.5 7q19 2 27 -5q11 -9 21 -25t9 -39q-1 -27 -16 -50.5t-26 -38.5l-15 -19h113q20 0 20 -10q0 -9 -19 -21q-14 -9 -26.5 -19t-23.5 -21q-14 -14 -50 -14h-340q-9 0 -15 3t-6 8t8 10.5t16 10.5t20 15t23 20
q19 18 61 18h143z" />
    <glyph glyph-name="uniAC1B" unicode="&#xac1b;" 
d="M865 290q20 0 20 -10q0 -9 -19 -21q-14 -9 -26.5 -19t-23.5 -21q-14 -14 -50 -14h-37v-57q0 -23 -12 -35q-9 -9 -30 -27.5t-41 -33.5q-13 -10 -25.5 -4.5t-12.5 24.5v328q0 12 -7 14q-6 2 -20 -8q-9 -7 -19 -7t-15 7q-6 8 -2.5 18t14.5 18l130 93q18 13 29 7.5t11 -30.5
v-234q13 12 29 12h107zM368 -432q-13 19 -17.5 43t2.5 49.5t26.5 51.5t54.5 50q31 21 61.5 26.5t57.5 0.5t49 -19.5t35 -32.5t16 -43.5t-5 -52.5t-27 -53t-50 -45q-30 -19 -60.5 -25t-58 -1.5t-49.5 18t-35 33.5zM417 389q34 -70 -5 -169q-8 -19 -23 -42t-34 -45t-39 -41
t-37 -29q-14 -8 -26.5 -9t-16.5 4q-5 8 -1.5 19.5t9.5 19.5q11 16 19.5 28.5t15.5 25t13 26t13 31.5q7 20 10 45t-2 39q-5 18 -16.5 27t-25.5 8q-19 -1 -36.5 -2t-46.5 -2h-33t-35 1t-32 3.5t-25 5.5q-14 5 -11.5 15.5t22.5 21.5q11 6 24.5 15t23.5 17q11 8 21.5 10.5
t29.5 0.5q17 -2 36 -3t51 0q20 1 41.5 3t61.5 4q18 1 32 -5.5t22 -22.5zM693 -114q20 0 20 -10q0 -9 -19 -21q-9 -6 -18.5 -14t-18.5 -16q-14 -14 -50 -14h-310q-9 0 -15 3t-6 8t8 10.5t16 10.5q5 3 13 10t17 15q19 18 61 18h302zM643 0q20 0 20 -10q0 -9 -19 -21
q-9 -6 -18.5 -14t-18.5 -16q-14 -14 -50 -14h-158q-9 0 -15 3t-6 8t8 10.5t16 10.5q5 3 13 10t17 15q19 18 61 18h150zM459 -375q10 -13 24 -20.5t27.5 -11t24.5 -3t16 3.5q4 3 7.5 13t4 23t-4 28t-14.5 28q-11 13 -26 20.5t-29 11.5t-25.5 4t-15.5 -3t-7 -13t-2.5 -23.5
t5 -29t15.5 -28.5z" />
    <glyph glyph-name="uniAC1C" unicode="&#xac1c;" horiz-adv-x="950" 
d="M877 707q18 13 29 7.5t11 -30.5v-649q0 -23 -12 -35q-9 -9 -23.5 -22t-34.5 -28q-13 -10 -25.5 -4.5t-12.5 24.5v278q-10 -7 -18 -14t-16 -15q-14 -14 -50 -14h-18v-170q0 -23 -12 -35q-9 -9 -23.5 -22t-34.5 -28q-13 -10 -25.5 -4.5t-12.5 24.5v573q0 12 -7 14
q-6 2 -20 -8q-9 -7 -19 -7t-15 7q-6 8 -2.5 18t14.5 18l117 82q18 13 29 7.5t11 -30.5v-354h102v293q0 12 -7 14q-6 2 -20 -8q-9 -7 -19 -7t-15 7q-6 8 -2.5 18t14.5 18zM447 389q34 -70 -5 -169q-8 -19 -23 -42t-34 -45t-39 -41t-37 -29q-14 -8 -26.5 -9t-16.5 4
q-5 8 -1.5 19.5t9.5 19.5q11 16 19.5 28.5t15.5 25t13 26t13 31.5q7 20 10 45t-2 39q-5 18 -16.5 27t-25.5 8q-19 -1 -36.5 -2t-46.5 -2h-33t-35 1t-32 3.5t-25 5.5q-14 5 -11.5 15.5t22.5 21.5q11 6 24.5 15t23.5 17q11 8 21.5 10.5t29.5 0.5q17 -2 36 -3t51 0q20 1 41.5 3
t61.5 4q18 1 32 -5.5t22 -22.5z" />
    <glyph glyph-name="uniAC1D" unicode="&#xac1d;" horiz-adv-x="950" 
d="M877 575q18 13 29 7.5t11 -30.5v-434q0 -23 -12 -35q-9 -9 -23.5 -22t-34.5 -28q-13 -10 -25.5 -4.5t-12.5 24.5v195q-10 -7 -18 -14t-16 -15q-14 -14 -50 -14h-18v-87q0 -23 -12 -35q-9 -9 -23.5 -22t-34.5 -28q-13 -10 -25.5 -4.5t-12.5 24.5v358q0 12 -7 14
q-6 2 -20 -8q-9 -7 -19 -7t-15 7q-6 8 -2.5 18t14.5 18l117 82q18 13 29 7.5t11 -30.5v-222h102v161q0 12 -7 14q-6 2 -20 -8q-9 -7 -19 -7t-15 7q-6 8 -2.5 18t14.5 18zM491 -51q9 6 20 7.5t26 -0.5q19 -2 45.5 -2t47.5 1q13 0 33.5 1.5t43.5 2.5t47 1t44 -1
q30 -2 48.5 -14t28.5 -30t11 -41.5t-5 -48.5q-6 -26 -21 -54.5t-33 -54.5t-36.5 -46.5t-31.5 -28.5q-14 -8 -20.5 -7.5t-8.5 5.5t-0.5 12t4.5 13q3 5 8.5 17.5t11.5 30t10.5 39.5t5.5 45q1 29 -12 47t-36 21q-13 2 -35 2.5t-47 0t-49 -1t-40 -0.5q-15 0 -33 0.5t-35.5 1.5
t-32.5 3t-24 5q-12 4 -11.5 14t20.5 24zM437 379q34 -70 -5 -169q-8 -19 -23 -42t-34 -45t-39 -41t-37 -29q-14 -8 -26.5 -9t-16.5 4q-5 8 -1.5 19.5t9.5 19.5q11 16 19.5 28.5t15.5 25t13 26t13 31.5q7 20 10 45t-2 39q-5 18 -16.5 27t-25.5 8q-19 -1 -36.5 -2t-46.5 -2
h-33t-35 1t-32 3.5t-25 5.5q-14 5 -11.5 15.5t22.5 21.5q11 6 24.5 15t23.5 17q11 8 21.5 10.5t29.5 0.5q17 -2 36 -3t51 0q20 1 41.5 3t61.5 4q18 1 32 -5.5t22 -22.5z" />
    <glyph glyph-name="uniAC20" unicode="&#xac20;" horiz-adv-x="950" 
d="M877 575q18 13 29 7.5t11 -30.5v-500q0 -23 -12 -35q-9 -9 -23.5 -22t-34.5 -28q-13 -10 -25.5 -4.5t-12.5 24.5v261q-10 -7 -18 -14t-16 -15q-14 -14 -50 -14h-18v-130q0 -23 -12 -35q-9 -9 -23.5 -22t-34.5 -28q-13 -10 -25.5 -4.5t-12.5 24.5v401q0 12 -7 14
q-6 2 -20 -8q-9 -7 -19 -7t-15 7q-6 8 -2.5 18t14.5 18l117 82q18 13 29 7.5t11 -30.5v-222h102v161q0 12 -7 14q-6 2 -20 -8q-9 -7 -19 -7t-15 7q-6 8 -2.5 18t14.5 18zM437 379q34 -70 -5 -169q-8 -19 -23 -42t-34 -45t-39 -41t-37 -29q-14 -8 -26.5 -9t-16.5 4
q-5 8 -1.5 19.5t9.5 19.5q11 16 19.5 28.5t15.5 25t13 26t13 31.5q7 20 10 45t-2 39q-5 18 -16.5 27t-25.5 8q-19 -1 -36.5 -2t-46.5 -2h-33t-35 1t-32 3.5t-25 5.5q-14 5 -11.5 15.5t22.5 21.5q11 6 24.5 15t23.5 17q11 8 21.5 10.5t29.5 0.5q17 -2 36 -3t51 0q20 1 41.5 3
t61.5 4q18 1 32 -5.5t22 -22.5zM413 -127q14 14 32.5 27t52.5 23q21 6 34 -3q15 -9 30 -37q27 -51 59.5 -81.5t63.5 -41.5q43 -15 92 -11.5t96 38.5q8 6 14 6t9 -3q11 -11 -6 -28q-32 -31 -66.5 -52.5t-69.5 -33.5t-69.5 -13.5t-64.5 7.5q-51 15 -89 47t-60 74
q-13 25 -21 32.5t-21 6.5q-9 -1 -16.5 1t-10.5 7q-4 7 -0.5 17t11.5 18z" />
    <glyph glyph-name="uniAC23" unicode="&#xac23;" horiz-adv-x="950" 
d="M877 575q18 13 29 7.5t11 -30.5v-434q0 -23 -12 -35q-9 -9 -23.5 -22t-34.5 -28q-13 -10 -25.5 -4.5t-12.5 24.5v195q-10 -7 -18 -14t-16 -15q-14 -14 -50 -14h-18v-87q0 -23 -12 -35q-9 -9 -23.5 -22t-34.5 -28q-13 -10 -25.5 -4.5t-12.5 24.5v358q0 12 -7 14
q-6 2 -20 -8q-9 -7 -19 -7t-15 7q-6 8 -2.5 18t14.5 18l117 82q18 13 29 7.5t11 -30.5v-222h102v161q0 12 -7 14q-6 2 -20 -8q-9 -7 -19 -7t-15 7q-6 8 -2.5 18t14.5 18zM868 -30q20 0 20 -10q0 -9 -19 -21q-14 -9 -26.5 -19t-23.5 -21q-14 -14 -50 -14h-186q-4 -19 5 -52
t32 -59q26 -29 58.5 -45t64.5 -17q30 -1 54 9.5t42 26.5q15 13 24 7q11 -7 2 -24q-18 -36 -50.5 -64t-85.5 -39q-25 -5 -53 -2.5t-55 12.5t-51 27t-40 41q-26 39 -38.5 75t-5.5 57q4 13 18 24.5t32 22.5h-76q-9 0 -15 3t-6 8t8 10.5t16 10.5t20 15t23 20q19 18 61 18h301z
M437 379q34 -70 -5 -169q-8 -19 -23 -42t-34 -45t-39 -41t-37 -29q-14 -8 -26.5 -9t-16.5 4q-5 8 -1.5 19.5t9.5 19.5q11 16 19.5 28.5t15.5 25t13 26t13 31.5q7 20 10 45t-2 39q-5 18 -16.5 27t-25.5 8q-19 -1 -36.5 -2t-46.5 -2h-33t-35 1t-32 3.5t-25 5.5
q-14 5 -11.5 15.5t22.5 21.5q11 6 24.5 15t23.5 17q11 8 21.5 10.5t29.5 0.5q17 -2 36 -3t51 0q20 1 41.5 3t61.5 4q18 1 32 -5.5t22 -22.5z" />
    <glyph glyph-name="uniAC24" unicode="&#xac24;" horiz-adv-x="950" 
d="M877 575q18 13 29 7.5t11 -30.5v-424q0 -23 -12 -35q-9 -9 -23.5 -22t-34.5 -28q-13 -10 -25.5 -4.5t-12.5 24.5v185q-10 -7 -18 -14t-16 -15q-14 -14 -50 -14h-18v-77q0 -23 -12 -35q-9 -9 -23.5 -22t-34.5 -28q-13 -10 -25.5 -4.5t-12.5 24.5v348q0 12 -7 14
q-6 2 -20 -8q-9 -7 -19 -7t-15 7q-6 8 -2.5 18t14.5 18l117 82q18 13 29 7.5t11 -30.5v-222h102v161q0 12 -7 14q-6 2 -20 -8q-9 -7 -19 -7t-15 7q-6 8 -2.5 18t14.5 18zM451 -253q0 2 2 2q7 7 14.5 13t17.5 11q13 10 25.5 20t16.5 12q6 5 18 7.5t23 2.5h155q10 28 12 47
q1 8 -0.5 15.5t-6.5 12.5q-8 8 -25.5 9t-30.5 0q-14 -1 -29.5 -2t-40.5 -2h-33t-35 1t-32 3.5t-25 5.5q-14 5 -11.5 15.5t22.5 21.5q11 6 24.5 15t23.5 17q11 8 21.5 11t29.5 0q13 -2 31.5 -3.5t45.5 -0.5q15 1 37 3t48 4q23 2 42 -4.5t29 -14.5q17 -15 20.5 -30.5
t-4.5 -46.5q-5 -20 -14.5 -38.5t-26.5 -38.5h31q5 0 12.5 -1t10.5 -4q4 -4 4 -6.5t-6 -8.5q-3 -3 -13 -11.5t-21.5 -17.5t-21.5 -17t-14 -10q-8 -5 -14.5 -7t-20.5 -2h-146q18 -32 36 -55t50 -38q29 -13 63 -9t82 39q15 10 21 4q4 -4 2 -11t-8 -15q-32 -39 -63.5 -61.5
t-61.5 -31.5t-58 -5.5t-53 16.5q-32 17 -58 47t-44 66q-11 22 -19.5 28.5t-19.5 5.5q-18 -2 -24 7q-3 6 0 15t10 15zM437 379q34 -70 -5 -169q-8 -19 -23 -42t-34 -45t-39 -41t-37 -29q-14 -8 -26.5 -9t-16.5 4q-5 8 -1.5 19.5t9.5 19.5q11 16 19.5 28.5t15.5 25t13 26
t13 31.5q7 20 10 45t-2 39q-5 18 -16.5 27t-25.5 8q-19 -1 -36.5 -2t-46.5 -2h-33t-35 1t-32 3.5t-25 5.5q-14 5 -11.5 15.5t22.5 21.5q11 6 24.5 15t23.5 17q11 8 21.5 10.5t29.5 0.5q17 -2 36 -3t51 0q20 1 41.5 3t61.5 4q18 1 32 -5.5t22 -22.5z" />
    <glyph glyph-name="uniAC2C" unicode="&#xac2c;" horiz-adv-x="950" 
d="M579 -67q51 35 101.5 40.5t88.5 -7.5q48 -16 73 -49.5t11 -86.5q-9 -32 -27.5 -61t-41.5 -52h60q20 0 20 -10q0 -9 -19 -21q-14 -9 -26.5 -19t-23.5 -21q-14 -14 -50 -14h-181q-9 -8 -19.5 -18t-28.5 -24q-13 -10 -25.5 -4.5t-12.5 24.5v254q0 12 -7 14q-6 2 -20 -8
q-9 -7 -19 -7t-15 7q-6 8 -2.5 18t14.5 18l110 78q18 13 29 7.5t11 -30.5v-28zM877 575q18 13 29 7.5t11 -30.5v-424q0 -23 -12 -35q-9 -9 -23.5 -22t-34.5 -28q-13 -10 -25.5 -4.5t-12.5 24.5v185q-10 -7 -18 -14t-16 -15q-14 -14 -50 -14h-18v-77q0 -23 -12 -35
q-9 -9 -23.5 -22t-34.5 -28q-13 -10 -25.5 -4.5t-12.5 24.5v348q0 12 -7 14q-6 2 -20 -8q-9 -7 -19 -7t-15 7q-6 8 -2.5 18t14.5 18l117 82q18 13 29 7.5t11 -30.5v-222h102v161q0 12 -7 14q-6 2 -20 -8q-9 -7 -19 -7t-15 7q-6 8 -2.5 18t14.5 18zM437 379q34 -70 -5 -169
q-8 -19 -23 -42t-34 -45t-39 -41t-37 -29q-14 -8 -26.5 -9t-16.5 4q-5 8 -1.5 19.5t9.5 19.5q11 16 19.5 28.5t15.5 25t13 26t13 31.5q7 20 10 45t-2 39q-5 18 -16.5 27t-25.5 8q-19 -1 -36.5 -2t-46.5 -2h-33t-35 1t-32 3.5t-25 5.5q-14 5 -11.5 15.5t22.5 21.5
q11 6 24.5 15t23.5 17q11 8 21.5 10.5t29.5 0.5q17 -2 36 -3t51 0q20 1 41.5 3t61.5 4q18 1 32 -5.5t22 -22.5zM699 -112q-30 11 -61.5 9t-58.5 -13v-167h118q17 21 29.5 41t20.5 45q11 32 -4 53t-44 32z" />
    <glyph glyph-name="uniAC2D" unicode="&#xac2d;" horiz-adv-x="950" 
d="M877 575q18 13 29 7.5t11 -30.5v-424q0 -23 -12 -35q-9 -9 -23.5 -22t-34.5 -28q-13 -10 -25.5 -4.5t-12.5 24.5v185q-10 -7 -18 -14t-16 -15q-14 -14 -50 -14h-18v-77q0 -23 -12 -35q-9 -9 -23.5 -22t-34.5 -28q-13 -10 -25.5 -4.5t-12.5 24.5v348q0 12 -7 14
q-6 2 -20 -8q-9 -7 -19 -7t-15 7q-6 8 -2.5 18t14.5 18l117 82q18 13 29 7.5t11 -30.5v-222h102v161q0 12 -7 14q-6 2 -20 -8q-9 -7 -19 -7t-15 7q-6 8 -2.5 18t14.5 18zM819 -19q18 13 29 7.5t11 -30.5v-39t-0.5 -61.5t-0.5 -59v-31.5q0 -23 -12 -35q-7 -7 -21.5 -19.5
t-30.5 -26.5h61q5 0 12.5 -1t10.5 -4q2 -2 2.5 -6t-4.5 -9q-3 -3 -12 -10.5t-19.5 -16t-20 -15.5t-13.5 -9q-8 -5 -14.5 -7t-20.5 -2h-245h-1l-8 -6q-13 -10 -25.5 -4.5t-12.5 24.5v226q0 12 -7 14q-6 2 -20 -8q-9 -7 -19 -7t-15 7q-6 8 -2.5 18t14.5 18l130 93
q18 13 29 7.5t11 -30.5v-129h133v60q0 20 5 30.5t24 24.5zM437 379q34 -70 -5 -169q-8 -19 -23 -42t-34 -45t-39 -41t-37 -29q-14 -8 -26.5 -9t-16.5 4q-5 8 -1.5 19.5t9.5 19.5q11 16 19.5 28.5t15.5 25t13 26t13 31.5q7 20 10 45t-2 39q-5 18 -16.5 27t-25.5 8
q-19 -1 -36.5 -2t-46.5 -2h-33t-35 1t-32 3.5t-25 5.5q-14 5 -11.5 15.5t22.5 21.5q11 6 24.5 15t23.5 17q11 8 21.5 10.5t29.5 0.5q17 -2 36 -3t51 0q20 1 41.5 3t61.5 4q18 1 32 -5.5t22 -22.5zM605 -304q0 -7 -1 -10h10h123v5v87l-27 -20q-8 -5 -14.5 -7t-20.5 -2h-70
v-53z" />
    <glyph glyph-name="uniAC2F" unicode="&#xac2f;" horiz-adv-x="950" 
d="M877 575q18 13 29 7.5t11 -30.5v-434q0 -23 -12 -35q-9 -9 -23.5 -22t-34.5 -28q-13 -10 -25.5 -4.5t-12.5 24.5v195q-10 -7 -18 -14t-16 -15q-14 -14 -50 -14h-18v-87q0 -23 -12 -35q-9 -9 -23.5 -22t-34.5 -28q-13 -10 -25.5 -4.5t-12.5 24.5v358q0 12 -7 14
q-6 2 -20 -8q-9 -7 -19 -7t-15 7q-6 8 -2.5 18t14.5 18l117 82q18 13 29 7.5t11 -30.5v-222h102v161q0 12 -7 14q-6 2 -20 -8q-9 -7 -19 -7t-15 7q-6 8 -2.5 18t14.5 18zM437 379q34 -70 -5 -169q-8 -19 -23 -42t-34 -45t-39 -41t-37 -29q-14 -8 -26.5 -9t-16.5 4
q-5 8 -1.5 19.5t9.5 19.5q11 16 19.5 28.5t15.5 25t13 26t13 31.5q7 20 10 45t-2 39q-5 18 -16.5 27t-25.5 8q-19 -1 -36.5 -2t-46.5 -2h-33t-35 1t-32 3.5t-25 5.5q-14 5 -11.5 15.5t22.5 21.5q11 6 24.5 15t23.5 17q11 8 21.5 10.5t29.5 0.5q17 -2 36 -3t51 0q20 1 41.5 3
t61.5 4q18 1 32 -5.5t22 -22.5zM567 -38q16 8 47.5 12.5t61.5 1.5q17 -1 28 -14q17 -21 14 -60q-3 -31 -13.5 -61.5t-32.5 -59.5q-26 -35 -65 -62.5t-77 -41.5t-79.5 -20t-69.5 -3q-29 3 -31 13q-2 5 6.5 9.5t19.5 8.5q6 2 18 6.5t27.5 11t32 14t31.5 15.5q28 15 48.5 36
t30.5 39q16 29 19 51.5t0 43.5q-2 11 -6.5 14.5t-10.5 5.5q-17 6 -18 15q-2 7 4.5 14.5t14.5 10.5zM730 -205q5 5 15 6t21 -1q6 -1 16.5 -3.5t22.5 -5.5t23.5 -7.5t19.5 -8.5q20 -11 32 -26t13 -35q1 -15 -9 -34t-33 -40q-8 -8 -15 -5.5t-10 11.5q-2 5 -8 17t-17 23
q-14 13 -29 20.5t-30 12.5q-12 3 -28 6t-24 6q-8 5 -9.5 12.5t3.5 12.5q5 7 11.5 12.5t11.5 8.5q8 4 13 8.5t10 9.5z" />
    <glyph glyph-name="uniAC30" unicode="&#xac30;" horiz-adv-x="950" 
d="M877 575q18 13 29 7.5t11 -30.5v-434q0 -23 -12 -35q-9 -9 -23.5 -22t-34.5 -28q-13 -10 -25.5 -4.5t-12.5 24.5v195q-10 -7 -18 -14t-16 -15q-14 -14 -50 -14h-18v-87q0 -23 -12 -35q-9 -9 -23.5 -22t-34.5 -28q-13 -10 -25.5 -4.5t-12.5 24.5v358q0 12 -7 14
q-6 2 -20 -8q-9 -7 -19 -7t-15 7q-6 8 -2.5 18t14.5 18l117 82q18 13 29 7.5t11 -30.5v-222h102v161q0 12 -7 14q-6 2 -20 -8q-9 -7 -19 -7t-15 7q-6 8 -2.5 18t14.5 18zM437 379q34 -70 -5 -169q-8 -19 -23 -42t-34 -45t-39 -41t-37 -29q-14 -8 -26.5 -9t-16.5 4
q-5 8 -1.5 19.5t9.5 19.5q11 16 19.5 28.5t15.5 25t13 26t13 31.5q7 20 10 45t-2 39q-5 18 -16.5 27t-25.5 8q-19 -1 -36.5 -2t-46.5 -2h-33t-35 1t-32 3.5t-25 5.5q-14 5 -11.5 15.5t22.5 21.5q11 6 24.5 15t23.5 17q11 8 21.5 10.5t29.5 0.5q17 -2 36 -3t51 0q20 1 41.5 3
t61.5 4q18 1 32 -5.5t22 -22.5zM397 -59q14 10 38 24t53 19q19 3 31 -5q19 -14 25 -54q2 -17 -0.5 -37t-12.5 -45q-17 -41 -46 -77.5t-62 -61.5q-32 -24 -70.5 -41t-66.5 -22q-13 -2 -17.5 -0.5t-5.5 4.5q-2 5 2.5 10t16.5 15q5 4 15.5 11.5t23.5 17.5t27 22t26 24
q23 23 35.5 46t19.5 47q4 14 3.5 26.5t-3.5 23.5t-9.5 13t-12.5 2q-18 2 -22 10q-3 5 1 14t11 14zM600 -59q14 10 38 24t53 19q19 3 31 -5q19 -14 25 -54q2 -17 -0.5 -37t-12.5 -45q-17 -41 -46 -77.5t-62 -61.5q-32 -24 -70.5 -41t-66.5 -22q-13 -2 -17.5 -0.5t-5.5 4.5
q-2 5 2.5 10t16.5 15q5 4 15.5 11.5t23.5 17.5t27 22t26 24q23 23 35.5 46t19.5 47q4 14 3.5 26.5t-3.5 23.5t-9.5 13t-12.5 2q-18 2 -22 10q-3 5 1 14t11 14zM799 -180q11 7 25 -4q11 -8 23 -15.5t26 -21.5q14 -13 22.5 -31.5t3.5 -39.5q-6 -31 -62 -59q-9 -5 -16 -0.5
t-6 13.5q1 8 -6 34q-12 37 -37 54q-11 7 -17 11t-12 9t-5.5 12.5t6.5 12.5q6 4 14 7t13 5q9 3 16 6t12 7z" />
    <glyph glyph-name="uniAC31" unicode="&#xac31;" horiz-adv-x="950" 
d="M877 575q18 13 29 7.5t11 -30.5v-424q0 -23 -12 -35q-9 -9 -23.5 -22t-34.5 -28q-13 -10 -25.5 -4.5t-12.5 24.5v185q-10 -7 -18 -14t-16 -15q-14 -14 -50 -14h-18v-77q0 -23 -12 -35q-9 -9 -23.5 -22t-34.5 -28q-13 -10 -25.5 -4.5t-12.5 24.5v348q0 12 -7 14
q-6 2 -20 -8q-9 -7 -19 -7t-15 7q-6 8 -2.5 18t14.5 18l117 82q18 13 29 7.5t11 -30.5v-222h102v161q0 12 -7 14q-6 2 -20 -8q-9 -7 -19 -7t-15 7q-6 8 -2.5 18t14.5 18zM531 -101q36 37 83 60t87 24q40 2 74.5 -18t58.5 -52q27 -37 24 -84t-34 -84q-59 -72 -147 -95
q-21 -6 -45.5 -4t-47.5 11t-43.5 24t-35.5 36t-19.5 45t-0.5 48t16 47t30 42zM437 379q34 -70 -5 -169q-8 -19 -23 -42t-34 -45t-39 -41t-37 -29q-14 -8 -26.5 -9t-16.5 4q-5 8 -1.5 19.5t9.5 19.5q11 16 19.5 28.5t15.5 25t13 26t13 31.5q7 20 10 45t-2 39q-5 18 -16.5 27
t-25.5 8q-19 -1 -36.5 -2t-46.5 -2h-33t-35 1t-32 3.5t-25 5.5q-14 5 -11.5 15.5t22.5 21.5q11 6 24.5 15t23.5 17q11 8 21.5 10.5t29.5 0.5q17 -2 36 -3t51 0q20 1 41.5 3t61.5 4q18 1 32 -5.5t22 -22.5zM728 -129q-10 12 -26.5 24t-35 18t-37.5 5t-34 -14
q-14 -12 -16.5 -30t2 -37.5t14 -37.5t20.5 -30q15 -16 33.5 -27t37 -15.5t35 -2t27.5 13.5q11 10 14.5 26t0.5 34.5t-12 37t-23 35.5z" />
    <glyph glyph-name="uniAC32" unicode="&#xac32;" horiz-adv-x="950" 
d="M877 575q18 13 29 7.5t11 -30.5v-434q0 -23 -12 -35q-9 -9 -23.5 -22t-34.5 -28q-13 -10 -25.5 -4.5t-12.5 24.5v195q-10 -7 -18 -14t-16 -15q-14 -14 -50 -14h-18v-87q0 -23 -12 -35q-9 -9 -23.5 -22t-34.5 -28q-13 -10 -25.5 -4.5t-12.5 24.5v358q0 12 -7 14
q-6 2 -20 -8q-9 -7 -19 -7t-15 7q-6 8 -2.5 18t14.5 18l117 82q18 13 29 7.5t11 -30.5v-222h102v161q0 12 -7 14q-6 2 -20 -8q-9 -7 -19 -7t-15 7q-6 8 -2.5 18t14.5 18zM832 -34q20 0 20 -10q0 -9 -19 -21q-14 -9 -26.5 -19t-23.5 -21q-14 -14 -50 -14h-39q6 -6 9 -15
q5 -14 0.5 -34t-15.5 -41q-11 -20 -23 -36t-28 -29.5t-35.5 -26.5t-45.5 -26q-35 -18 -72 -27t-65 -14q-14 -2 -22.5 -1t-10.5 6t4 11t16 13l15 9t23.5 13.5t28.5 16.5l30 18q53 34 67 73q5 16 4 30t-3 28q-2 12 5.5 16.5t14.5 6.5q5 2 16.5 4.5t24.5 4.5h-200q-9 0 -15 3
t-6 8t8 10.5t16 10.5t20 15t23 20q19 18 61 18h293zM437 379q34 -70 -5 -169q-8 -19 -23 -42t-34 -45t-39 -41t-37 -29q-14 -8 -26.5 -9t-16.5 4q-5 8 -1.5 19.5t9.5 19.5q11 16 19.5 28.5t15.5 25t13 26t13 31.5q7 20 10 45t-2 39q-5 18 -16.5 27t-25.5 8q-19 -1 -36.5 -2
t-46.5 -2h-33t-35 1t-32 3.5t-25 5.5q-14 5 -11.5 15.5t22.5 21.5q11 6 24.5 15t23.5 17q11 8 21.5 10.5t29.5 0.5q17 -2 36 -3t51 0q20 1 41.5 3t61.5 4q18 1 32 -5.5t22 -22.5zM715 -233q7 9 25 7q13 -2 33 -5t38 -11t32 -21.5t18 -34.5q6 -32 -35 -78q-7 -8 -14 -6.5
t-11 10.5q-2 5 -5.5 11.5t-13.5 17.5q-26 27 -55 35q-12 3 -25 4.5t-21 3.5t-10 10t2 14t10.5 12t10.5 10q13 12 21 21z" />
    <glyph glyph-name="uniAC33" unicode="&#xac33;" horiz-adv-x="950" 
d="M877 575q18 13 29 7.5t11 -30.5v-424q0 -23 -12 -35q-9 -9 -23.5 -22t-34.5 -28q-13 -10 -25.5 -4.5t-12.5 24.5v185q-10 -7 -18 -14t-16 -15q-14 -14 -50 -14h-18v-77q0 -23 -12 -35q-9 -9 -23.5 -22t-34.5 -28q-13 -10 -25.5 -4.5t-12.5 24.5v348q0 12 -7 14
q-6 2 -20 -8q-9 -7 -19 -7t-15 7q-6 8 -2.5 18t14.5 18l117 82q18 13 29 7.5t11 -30.5v-222h102v161q0 12 -7 14q-6 2 -20 -8q-9 -7 -19 -7t-15 7q-6 8 -2.5 18t14.5 18zM817 -122q20 0 20 -10q0 -9 -19 -21q-14 -9 -26.5 -19t-23.5 -21q-14 -14 -50 -14h-39q6 -6 9 -15
q5 -14 0.5 -34t-15.5 -41q-11 -20 -23 -36t-28 -29.5t-35.5 -26.5t-45.5 -26q-35 -18 -72 -27t-65 -14q-14 -2 -22.5 -1t-10.5 6t4 11t16 13l15 9t23.5 13.5t28.5 16.5l30 18q53 34 67 73q5 16 4 30t-3 28q-2 12 5.5 16.5t14.5 6.5q5 2 16.5 4.5t24.5 4.5h-200q-9 0 -15 3
t-6 8t8 10.5t16 10.5t20 15t23 20q19 18 61 18h293zM437 379q34 -70 -5 -169q-8 -19 -23 -42t-34 -45t-39 -41t-37 -29q-14 -8 -26.5 -9t-16.5 4q-5 8 -1.5 19.5t9.5 19.5q11 16 19.5 28.5t15.5 25t13 26t13 31.5q7 20 10 45t-2 39q-5 18 -16.5 27t-25.5 8q-19 -1 -36.5 -2
t-46.5 -2h-33t-35 1t-32 3.5t-25 5.5q-14 5 -11.5 15.5t22.5 21.5q11 6 24.5 15t23.5 17q11 8 21.5 10.5t29.5 0.5q17 -2 36 -3t51 0q20 1 41.5 3t61.5 4q18 1 32 -5.5t22 -22.5zM700 -316q7 9 25 7q13 -2 33 -5t38 -11t32 -21.5t18 -34.5q6 -32 -35 -78q-7 -8 -14 -6.5
t-11 10.5q-2 5 -5.5 11.5t-13.5 17.5q-26 27 -55 35q-12 3 -25 4.5t-21 3.5t-10 10t2 14t10.5 12t10.5 10q13 12 21 21zM741 0q20 0 20 -10q0 -9 -19 -21q-9 -6 -18.5 -14t-18.5 -16q-14 -14 -50 -14h-128q-9 0 -15 3t-6 8t8 10.5t16 10.5q5 3 13 10t17 15q19 18 61 18h120z
" />
    <glyph glyph-name="uniAC34" unicode="&#xac34;" horiz-adv-x="950" 
d="M877 575q18 13 29 7.5t11 -30.5v-434q0 -23 -12 -35q-9 -9 -23.5 -22t-34.5 -28q-13 -10 -25.5 -4.5t-12.5 24.5v195q-10 -7 -18 -14t-16 -15q-14 -14 -50 -14h-18v-87q0 -23 -12 -35q-9 -9 -23.5 -22t-34.5 -28q-13 -10 -25.5 -4.5t-12.5 24.5v358q0 12 -7 14
q-6 2 -20 -8q-9 -7 -19 -7t-15 7q-6 8 -2.5 18t14.5 18l117 82q18 13 29 7.5t11 -30.5v-222h102v161q0 12 -7 14q-6 2 -20 -8q-9 -7 -19 -7t-15 7q-6 8 -2.5 18t14.5 18zM740 -190q-5 34 -18 48t-30 16q-13 2 -35 2.5t-47 0t-49 -1t-40 -0.5q-15 0 -33 0.5t-35.5 1.5
t-32.5 3t-24 5q-12 4 -11.5 14t20.5 24l56 36q9 6 20 7.5t26 -0.5q19 -2 45.5 -2t47.5 1q13 0 33.5 1.5t43.5 2.5t47 1t44 -1q60 -5 81 -52t2 -132q-6 -28 -21 -57t-33 -54.5t-36.5 -45t-31.5 -27.5q-14 -8 -20.5 -7.5t-8.5 5.5t-0.5 12t4.5 13q3 5 8 17.5t10.5 30
t10.5 39.5t7 45q0 5 0.5 10t0.5 10q-26 -18 -45 -37q-14 -14 -50 -14h-215q-9 0 -15 3t-6 8t8 10.5t16 10.5t20 15t23 20q19 18 61 18h202zM437 379q34 -70 -5 -169q-8 -19 -23 -42t-34 -45t-39 -41t-37 -29q-14 -8 -26.5 -9t-16.5 4q-5 8 -1.5 19.5t9.5 19.5
q11 16 19.5 28.5t15.5 25t13 26t13 31.5q7 20 10 45t-2 39q-5 18 -16.5 27t-25.5 8q-19 -1 -36.5 -2t-46.5 -2h-33t-35 1t-32 3.5t-25 5.5q-14 5 -11.5 15.5t22.5 21.5q11 6 24.5 15t23.5 17q11 8 21.5 10.5t29.5 0.5q17 -2 36 -3t51 0q20 1 41.5 3t61.5 4q18 1 32 -5.5
t22 -22.5z" />
    <glyph glyph-name="uniAC35" unicode="&#xac35;" horiz-adv-x="950" 
d="M877 575q18 13 29 7.5t11 -30.5v-424q0 -23 -12 -35q-9 -9 -23.5 -22t-34.5 -28q-13 -10 -25.5 -4.5t-12.5 24.5v185q-10 -7 -18 -14t-16 -15q-14 -14 -50 -14h-18v-77q0 -23 -12 -35q-9 -9 -23.5 -22t-34.5 -28q-13 -10 -25.5 -4.5t-12.5 24.5v348q0 12 -7 14
q-6 2 -20 -8q-9 -7 -19 -7t-15 7q-6 8 -2.5 18t14.5 18l117 82q18 13 29 7.5t11 -30.5v-222h102v161q0 12 -7 14q-6 2 -20 -8q-9 -7 -19 -7t-15 7q-6 8 -2.5 18t14.5 18zM828 -142q20 0 20 -10q0 -9 -19 -21q-14 -9 -26.5 -19t-23.5 -21q-14 -14 -50 -14h-150
q-4 -19 -2 -45.5t14 -52.5q14 -31 41.5 -50.5t53.5 -23.5t51 6.5t42 28.5q14 14 26 7q5 -3 5.5 -11t-3.5 -13q-14 -21 -28 -37.5t-30.5 -28.5t-37 -21t-47.5 -16q-53 -13 -95 9.5t-68 74.5q-11 21 -16.5 41.5t-7.5 37.5t-1 29.5t3 18.5q5 12 18.5 23.5t32.5 22.5h-99
q-9 0 -15 3t-6 8t8 10.5t16 10.5t20 15t23 20q19 18 61 18h290zM437 379q34 -70 -5 -169q-8 -19 -23 -42t-34 -45t-39 -41t-37 -29q-14 -8 -26.5 -9t-16.5 4q-5 8 -1.5 19.5t9.5 19.5q11 16 19.5 28.5t15.5 25t13 26t13 31.5q7 20 10 45t-2 39q-5 18 -16.5 27t-25.5 8
q-19 -1 -36.5 -2t-46.5 -2h-33t-35 1t-32 3.5t-25 5.5q-14 5 -11.5 15.5t22.5 21.5q11 6 24.5 15t23.5 17q11 8 21.5 10.5t29.5 0.5q17 -2 36 -3t51 0q20 1 41.5 3t61.5 4q18 1 32 -5.5t22 -22.5zM778 0q20 0 20 -10q0 -9 -19 -21q-14 -9 -26.5 -19t-23.5 -21
q-14 -14 -50 -14h-184q-9 0 -15 3t-6 8t8 10.5t16 10.5t20 15t23 20q19 18 61 18h176z" />
    <glyph glyph-name="uniAC36" unicode="&#xac36;" horiz-adv-x="950" 
d="M877 575q18 13 29 7.5t11 -30.5v-429q0 -23 -12 -35q-9 -9 -23.5 -22t-34.5 -28q-13 -10 -25.5 -4.5t-12.5 24.5v190q-10 -7 -18 -14t-16 -15q-14 -14 -50 -14h-18v-82q0 -23 -12 -35q-9 -9 -23.5 -22t-34.5 -28q-13 -10 -25.5 -4.5t-12.5 24.5v353q0 12 -7 14
q-6 2 -20 -8q-9 -7 -19 -7t-15 7q-6 8 -2.5 18t14.5 18l117 82q18 13 29 7.5t11 -30.5v-222h102v161q0 12 -7 14q-6 2 -20 -8q-9 -7 -19 -7t-15 7q-6 8 -2.5 18t14.5 18zM437 379q34 -70 -5 -169q-8 -19 -23 -42t-34 -45t-39 -41t-37 -29q-14 -8 -26.5 -9t-16.5 4
q-5 8 -1.5 19.5t9.5 19.5q11 16 19.5 28.5t15.5 25t13 26t13 31.5q7 20 10 45t-2 39q-5 18 -16.5 27t-25.5 8q-19 -1 -36.5 -2t-46.5 -2h-33t-35 1t-32 3.5t-25 5.5q-14 5 -11.5 15.5t22.5 21.5q11 6 24.5 15t23.5 17q11 8 21.5 10.5t29.5 0.5q17 -2 36 -3t51 0q20 1 41.5 3
t61.5 4q18 1 32 -5.5t22 -22.5zM852 -16q20 0 20 -10q0 -9 -19 -21q-14 -9 -26.5 -19t-23.5 -21q-14 -14 -50 -14h-162l-3 -20q-2 -23 1 -47t14 -41q9 -12 13.5 -17.5t9.5 -9.5q8 -6 7.5 -13t-10.5 -12q-28 -14 -54.5 -19.5t-40.5 0.5q-19 8 -28.5 25t-12.5 40
q-2 19 -1 43.5t6 43.5q3 18 11 27h-70q-9 0 -15 3t-6 8t8 10.5t16 10.5t20 15t23 20q19 18 61 18h312zM673 -296q6 11 13 19q14 20 18.5 43.5t-6.5 40.5q-7 10 -12.5 16.5t-9.5 10.5q-16 16 2 25q19 10 37.5 15t33.5 7q19 2 27 -5q11 -9 21 -25t9 -39q-1 -27 -16 -50.5
t-26 -38.5l-15 -19h113q20 0 20 -10q0 -9 -19 -21q-14 -9 -26.5 -19t-23.5 -21q-14 -14 -50 -14h-340q-9 0 -15 3t-6 8t8 10.5t16 10.5t20 15t23 20q19 18 61 18h143z" />
    <glyph glyph-name="uniAC37" unicode="&#xac37;" horiz-adv-x="950" 
d="M877 575q18 13 29 7.5t11 -30.5v-424q0 -23 -12 -35q-9 -9 -23.5 -22t-34.5 -28q-13 -10 -25.5 -4.5t-12.5 24.5v185q-10 -7 -18 -14t-16 -15q-14 -14 -50 -14h-18v-77q0 -23 -12 -35q-9 -9 -23.5 -22t-34.5 -28q-13 -10 -25.5 -4.5t-12.5 24.5v348q0 12 -7 14
q-6 2 -20 -8q-9 -7 -19 -7t-15 7q-6 8 -2.5 18t14.5 18l117 82q18 13 29 7.5t11 -30.5v-222h102v161q0 12 -7 14q-6 2 -20 -8q-9 -7 -19 -7t-15 7q-6 8 -2.5 18t14.5 18zM498 -432q-13 19 -17.5 43t2.5 49.5t26.5 51.5t54.5 50q31 21 61.5 26.5t57.5 0.5t49 -19.5t35 -32.5
t16 -43.5t-5 -52.5t-27 -53t-50 -45q-30 -19 -60.5 -25t-58 -1.5t-49.5 18t-35 33.5zM437 379q34 -70 -5 -169q-8 -19 -23 -42t-34 -45t-39 -41t-37 -29q-14 -8 -26.5 -9t-16.5 4q-5 8 -1.5 19.5t9.5 19.5q11 16 19.5 28.5t15.5 25t13 26t13 31.5q7 20 10 45t-2 39
q-5 18 -16.5 27t-25.5 8q-19 -1 -36.5 -2t-46.5 -2h-33t-35 1t-32 3.5t-25 5.5q-14 5 -11.5 15.5t22.5 21.5q11 6 24.5 15t23.5 17q11 8 21.5 10.5t29.5 0.5q17 -2 36 -3t51 0q20 1 41.5 3t61.5 4q18 1 32 -5.5t22 -22.5zM823 -114q20 0 20 -10q0 -9 -19 -21
q-9 -6 -18.5 -14t-18.5 -16q-14 -14 -50 -14h-310q-9 0 -15 3t-6 8t8 10.5t16 10.5q5 3 13 10t17 15q19 18 61 18h302zM773 0q20 0 20 -10q0 -9 -19 -21q-9 -6 -18.5 -14t-18.5 -16q-14 -14 -50 -14h-158q-9 0 -15 3t-6 8t8 10.5t16 10.5q5 3 13 10t17 15q19 18 61 18h150z
M589 -375q10 -13 24 -20.5t27.5 -11t24.5 -3t16 3.5q4 3 7.5 13t4 23t-4 28t-14.5 28q-11 13 -26 20.5t-29 11.5t-25.5 4t-15.5 -3t-7 -13t-2.5 -23.5t5 -29t15.5 -28.5z" />
    <glyph glyph-name="uniAC38" unicode="&#xac38;" 
d="M689 669q18 13 29 7.5t11 -30.5v-294q18 13 29 13h107q20 0 20 -10q0 -9 -19 -21q-14 -9 -26.5 -19t-23.5 -21q-14 -14 -50 -14h-37v-88q18 13 29 13h107q20 0 20 -10q0 -9 -19 -21q-14 -9 -26.5 -19t-23.5 -21q-14 -14 -50 -14h-37v-76q0 -23 -12 -35q-9 -9 -30 -27.5
t-41 -33.5q-13 -10 -25.5 -4.5t-12.5 24.5v566q0 12 -7 14q-6 2 -20 -8q-9 -7 -19 -7t-15 7q-6 8 -2.5 18t14.5 18zM427 399q34 -70 -5 -169q-8 -19 -23 -42t-34 -45t-39 -41t-37 -29q-14 -8 -26.5 -9t-16.5 4q-5 8 -1.5 19.5t9.5 19.5q11 16 19.5 28.5t15.5 25t13 26
t13 31.5q7 20 10 45t-2 39q-5 18 -16.5 27t-25.5 8q-19 -1 -36.5 -2t-46.5 -2h-33t-35 1t-32 3.5t-25 5.5q-14 5 -11.5 15.5t22.5 21.5q11 6 24.5 15t23.5 17q11 8 21.5 10.5t29.5 0.5q17 -2 36 -3t51 0q20 1 41.5 3t61.5 4q18 1 32 -5.5t22 -22.5z" />
    <glyph glyph-name="uniAC39" unicode="&#xac39;" 
d="M865 205q20 0 20 -10q0 -9 -19 -21q-14 -9 -26.5 -19t-23.5 -21q-14 -14 -50 -14h-38q-1 -17 -11 -27q-9 -9 -30 -27.5t-41 -33.5q-13 -10 -25.5 -4.5t-12.5 24.5v348q0 12 -7 14q-6 2 -20 -8q-9 -7 -19 -7t-15 7q-6 8 -2.5 18t14.5 18l130 93q18 13 29 7.5t11 -30.5
v-160q18 13 29 13h107q20 0 20 -10q0 -9 -19 -21q-14 -9 -26.5 -19t-23.5 -21q-14 -14 -50 -14h-37v-88q18 13 29 13h107zM331 -41q9 6 20 7.5t26 -0.5q19 -2 45.5 -2t47.5 1q13 0 33.5 1.5t43.5 2.5t47 1t44 -1q30 -2 48.5 -14t28.5 -30t11 -41.5t-5 -48.5
q-6 -26 -21 -54.5t-33 -54.5t-36.5 -46.5t-31.5 -28.5q-14 -8 -20.5 -7.5t-8.5 5.5t-0.5 12t4.5 13q3 5 8.5 17.5t11.5 30t10.5 39.5t5.5 45q1 29 -12 47t-36 21q-13 2 -35 2.5t-47 0t-49 -1t-40 -0.5q-15 0 -33 0.5t-35.5 1.5t-32.5 3t-24 5q-12 4 -11.5 14t20.5 24z
M407 399q34 -70 -5 -169q-8 -19 -23 -42t-34 -45t-39 -41t-37 -29q-14 -8 -26.5 -9t-16.5 4q-5 8 -1.5 19.5t9.5 19.5q11 16 19.5 28.5t15.5 25t13 26t13 31.5q7 20 10 45t-2 39q-5 18 -16.5 27t-25.5 8q-19 -1 -36.5 -2t-46.5 -2h-33t-35 1t-32 3.5t-25 5.5
q-14 5 -11.5 15.5t22.5 21.5q11 6 24.5 15t23.5 17q11 8 21.5 10.5t29.5 0.5q17 -2 36 -3t51 0q20 1 41.5 3t61.5 4q18 1 32 -5.5t22 -22.5z" />
    <glyph glyph-name="uniAC3C" unicode="&#xac3c;" 
d="M865 205q20 0 20 -10q0 -9 -19 -21q-14 -9 -26.5 -19t-23.5 -21q-14 -14 -50 -14h-37v-51q0 -23 -12 -35q-9 -9 -30 -27.5t-41 -33.5q-13 -10 -25.5 -4.5t-12.5 24.5v407q0 12 -7 14q-6 2 -20 -8q-9 -7 -19 -7t-15 7q-6 8 -2.5 18t14.5 18l130 93q18 13 29 7.5t11 -30.5
v-160q18 13 29 13h107q20 0 20 -10q0 -9 -19 -21q-14 -9 -26.5 -19t-23.5 -21q-14 -14 -50 -14h-37v-88q18 13 29 13h107zM407 399q34 -70 -5 -169q-8 -19 -23 -42t-34 -45t-39 -41t-37 -29q-14 -8 -26.5 -9t-16.5 4q-5 8 -1.5 19.5t9.5 19.5q11 16 19.5 28.5t15.5 25t13 26
t13 31.5q7 20 10 45t-2 39q-5 18 -16.5 27t-25.5 8q-19 -1 -36.5 -2t-46.5 -2h-33t-35 1t-32 3.5t-25 5.5q-14 5 -11.5 15.5t22.5 21.5q11 6 24.5 15t23.5 17q11 8 21.5 10.5t29.5 0.5q17 -2 36 -3t51 0q20 1 41.5 3t61.5 4q18 1 32 -5.5t22 -22.5zM277 -107q14 14 32.5 27
t52.5 23q21 6 34 -3q15 -9 30 -37q27 -51 59.5 -81.5t63.5 -41.5q43 -15 92 -11.5t96 38.5q8 6 14 6t9 -3q11 -11 -6 -28q-32 -31 -66.5 -52.5t-69.5 -33.5t-69.5 -13.5t-64.5 7.5q-51 15 -89 47t-60 74q-13 25 -21 32.5t-21 6.5q-9 -1 -16.5 1t-10.5 7q-4 7 -0.5 17
t11.5 18z" />
    <glyph glyph-name="uniAC40" unicode="&#xac40;" 
d="M331 -203q0 1 2 3q7 6 14.5 12t17.5 11q13 10 25.5 20t16.5 12q6 5 18 7.5t23 2.5h155q10 28 12 47q1 8 -0.5 15.5t-6.5 12.5q-8 8 -25.5 9t-30.5 0q-14 -1 -29.5 -2t-40.5 -2h-33t-35 1t-32 3.5t-25 5.5q-14 5 -11.5 15.5t22.5 21.5q11 6 24.5 15t23.5 17q11 8 21.5 11
t29.5 0q13 -2 31.5 -3.5t45.5 -0.5q15 1 37 3t48 4q23 2 42 -4.5t29 -14.5q17 -15 20.5 -30.5t-4.5 -46.5q-5 -20 -14.5 -38.5t-26.5 -38.5h31q5 0 12.5 -1t10.5 -4q4 -4 4 -6.5t-6 -8.5q-3 -3 -13 -11.5t-21.5 -17.5t-21.5 -17t-14 -10q-8 -5 -14.5 -7t-20.5 -2h-146
q18 -32 36 -55t50 -38q29 -13 63 -9t82 39q15 10 21 4q4 -4 2 -11t-8 -15q-32 -39 -63.5 -61.5t-61.5 -31.5t-58 -5.5t-53 16.5q-32 17 -58 47t-44 66q-11 22 -19.5 28.5t-19.5 5.5q-18 -2 -24 7q-3 6 0 15t10 15zM865 205q20 0 20 -10q0 -9 -19 -21q-14 -9 -26.5 -19
t-23.5 -21q-14 -14 -50 -14h-60q-11 -11 -28 -25.5t-32 -25.5q-13 -10 -25.5 -4.5t-12.5 24.5v311q0 12 -7 14q-6 2 -20 -8q-9 -7 -19 -7t-15 7q-6 8 -2.5 18t14.5 18l130 93q18 13 29 7.5t11 -30.5v-160q18 13 29 13h107q20 0 20 -10q0 -9 -19 -21q-14 -9 -26.5 -19
t-23.5 -21q-14 -14 -50 -14h-37v-88q18 13 29 13h107zM417 399q34 -70 -5 -169q-8 -19 -23 -42t-34 -45t-39 -41t-37 -29q-14 -8 -26.5 -9t-16.5 4q-5 8 -1.5 19.5t9.5 19.5q11 16 19.5 28.5t15.5 25t13 26t13 31.5q7 20 10 45t-2 39q-5 18 -16.5 27t-25.5 8
q-19 -1 -36.5 -2t-46.5 -2h-33t-35 1t-32 3.5t-25 5.5q-14 5 -11.5 15.5t22.5 21.5q11 6 24.5 15t23.5 17q11 8 21.5 10.5t29.5 0.5q17 -2 36 -3t51 0q20 1 41.5 3t61.5 4q18 1 32 -5.5t22 -22.5z" />
    <glyph glyph-name="uniAC4B" unicode="&#xac4b;" 
d="M865 205q20 0 20 -10q0 -9 -19 -21q-14 -9 -26.5 -19t-23.5 -21q-14 -14 -50 -14h-37v-11q0 -23 -12 -35q-9 -9 -30 -27.5t-41 -33.5q-13 -10 -25.5 -4.5t-12.5 24.5v367q0 12 -7 14q-6 2 -20 -8q-9 -7 -19 -7t-15 7q-6 8 -2.5 18t14.5 18l130 93q18 13 29 7.5t11 -30.5
v-160q18 13 29 13h107q20 0 20 -10q0 -9 -19 -21q-14 -9 -26.5 -19t-23.5 -21q-14 -14 -50 -14h-37v-88q18 13 29 13h107zM407 399q34 -70 -5 -169q-8 -19 -23 -42t-34 -45t-39 -41t-37 -29q-14 -8 -26.5 -9t-16.5 4q-5 8 -1.5 19.5t9.5 19.5q11 16 19.5 28.5t15.5 25t13 26
t13 31.5q7 20 10 45t-2 39q-5 18 -16.5 27t-25.5 8q-19 -1 -36.5 -2t-46.5 -2h-33t-35 1t-32 3.5t-25 5.5q-14 5 -11.5 15.5t22.5 21.5q11 6 24.5 15t23.5 17q11 8 21.5 10.5t29.5 0.5q17 -2 36 -3t51 0q20 1 41.5 3t61.5 4q18 1 32 -5.5t22 -22.5zM437 -18q16 8 47.5 12.5
t61.5 1.5q17 -1 28 -14q17 -21 14 -60q-3 -31 -13.5 -61.5t-32.5 -59.5q-26 -35 -65 -62.5t-77 -41.5t-79.5 -20t-69.5 -3q-29 3 -31 13q-2 5 6.5 9.5t19.5 8.5q6 2 18 6.5t27.5 11t32 14t31.5 15.5q28 15 48.5 36t30.5 39q16 29 19 51.5t0 43.5q-2 11 -6.5 14.5t-10.5 5.5
q-17 6 -18 15q-2 7 4.5 14.5t14.5 10.5zM600 -185q5 5 15 6t21 -1q6 -1 16.5 -3.5t22.5 -5.5t23.5 -7.5t19.5 -8.5q20 -11 32 -26t13 -35q1 -15 -9 -34t-33 -40q-8 -8 -15 -5.5t-10 11.5q-2 5 -8 17t-17 23q-14 13 -29 20.5t-30 12.5q-12 3 -28 6t-24 6q-8 5 -9.5 12.5
t3.5 12.5q5 7 11.5 12.5t11.5 8.5q8 4 13 8.5t10 9.5z" />
    <glyph glyph-name="uniAC4D" unicode="&#xac4d;" 
d="M391 -91q36 37 83 60t87 24q40 2 74.5 -18t58.5 -52q27 -37 24 -84t-34 -84q-59 -72 -147 -95q-21 -6 -45.5 -4t-47.5 11t-43.5 24t-35.5 36t-19.5 45t-0.5 48t16 47t30 42zM865 205q20 0 20 -10q0 -9 -19 -21q-14 -9 -26.5 -19t-23.5 -21q-14 -14 -50 -14h-37v-1
q0 -23 -12 -35q-9 -9 -30 -27.5t-41 -33.5q-13 -10 -25.5 -4.5t-12.5 24.5v357q0 12 -7 14q-6 2 -20 -8q-9 -7 -19 -7t-15 7q-6 8 -2.5 18t14.5 18l130 93q18 13 29 7.5t11 -30.5v-160q18 13 29 13h107q20 0 20 -10q0 -9 -19 -21q-14 -9 -26.5 -19t-23.5 -21
q-14 -14 -50 -14h-37v-88q18 13 29 13h107zM407 399q34 -70 -5 -169q-8 -19 -23 -42t-34 -45t-39 -41t-37 -29q-14 -8 -26.5 -9t-16.5 4q-5 8 -1.5 19.5t9.5 19.5q11 16 19.5 28.5t15.5 25t13 26t13 31.5q7 20 10 45t-2 39q-5 18 -16.5 27t-25.5 8q-19 -1 -36.5 -2t-46.5 -2
h-33t-35 1t-32 3.5t-25 5.5q-14 5 -11.5 15.5t22.5 21.5q11 6 24.5 15t23.5 17q11 8 21.5 10.5t29.5 0.5q17 -2 36 -3t51 0q20 1 41.5 3t61.5 4q18 1 32 -5.5t22 -22.5zM588 -119q-10 12 -26.5 24t-35 18t-37.5 5t-34 -14q-14 -12 -16.5 -30t2 -37.5t14 -37.5t20.5 -30
q15 -16 33.5 -27t37 -15.5t35 -2t27.5 13.5q11 10 14.5 26t0.5 34.5t-12 37t-23 35.5z" />
    <glyph glyph-name="uniAC54" unicode="&#xac54;" horiz-adv-x="950" 
d="M877 707q18 13 29 7.5t11 -30.5v-649q0 -23 -12 -35q-9 -9 -23.5 -22t-34.5 -28q-13 -10 -25.5 -4.5t-12.5 24.5v147l-8 -5q-8 -5 -14.5 -7t-20.5 -2h-49v-68q0 -23 -12 -35q-9 -9 -23.5 -22t-34.5 -28q-13 -10 -25.5 -4.5t-12.5 24.5v573q0 12 -7 14q-6 2 -20 -8
q-9 -7 -19 -7t-15 7q-6 8 -2.5 18t14.5 18l117 82q18 13 29 7.5t11 -30.5v-296h4h88v235q0 12 -7 14q-6 2 -20 -8q-9 -7 -19 -7t-15 7q-6 8 -2.5 18t14.5 18zM447 389q34 -70 -5 -169q-8 -19 -23 -42t-34 -45t-39 -41t-37 -29q-14 -8 -26.5 -9t-16.5 4q-5 8 -1.5 19.5
t9.5 19.5q11 16 19.5 28.5t15.5 25t13 26t13 31.5q7 20 10 45t-2 39q-5 18 -16.5 27t-25.5 8q-19 -1 -36.5 -2t-46.5 -2h-33t-35 1t-32 3.5t-25 5.5q-14 5 -11.5 15.5t22.5 21.5q11 6 24.5 15t23.5 17q11 8 21.5 10.5t29.5 0.5q17 -2 36 -3t51 0q20 1 41.5 3t61.5 4
q18 1 32 -5.5t22 -22.5zM717 186q5 1 10 1.5t10 0.5h72v89l-8 -5q-8 -5 -14.5 -7t-20.5 -2h-49v-77z" />
    <glyph glyph-name="uniAC58" unicode="&#xac58;" horiz-adv-x="950" 
d="M877 575q18 13 29 7.5t11 -30.5v-500q0 -23 -12 -35q-9 -9 -23.5 -22t-34.5 -28q-13 -10 -25.5 -4.5t-12.5 24.5v130l-8 -5q-8 -5 -14.5 -7t-20.5 -2h-59v-28q0 -23 -12 -35q-9 -9 -23.5 -22t-34.5 -28q-13 -10 -25.5 -4.5t-12.5 24.5v401q0 12 -7 14q-6 2 -20 -8
q-9 -7 -19 -7t-15 7q-6 8 -2.5 18t14.5 18l117 82q18 13 29 7.5t11 -30.5v-165q3 0 6.5 0.5t7.5 0.5h88v103q0 12 -7 14q-6 2 -20 -8q-9 -7 -19 -7t-15 7q-6 8 -2.5 18t14.5 18zM437 379q34 -70 -5 -169q-8 -19 -23 -42t-34 -45t-39 -41t-37 -29q-14 -8 -26.5 -9t-16.5 4
q-5 8 -1.5 19.5t9.5 19.5q11 16 19.5 28.5t15.5 25t13 26t13 31.5q7 20 10 45t-2 39q-5 18 -16.5 27t-25.5 8q-19 -1 -36.5 -2t-46.5 -2h-33t-35 1t-32 3.5t-25 5.5q-14 5 -11.5 15.5t22.5 21.5q11 6 24.5 15t23.5 17q11 8 21.5 10.5t29.5 0.5q17 -2 36 -3t51 0q20 1 41.5 3
t61.5 4q18 1 32 -5.5t22 -22.5zM413 -127q14 14 32.5 27t52.5 23q21 6 34 -3q15 -9 30 -37q27 -51 59.5 -81.5t63.5 -41.5q43 -15 92 -11.5t96 38.5q8 6 14 6t9 -3q11 -11 -6 -28q-32 -31 -66.5 -52.5t-69.5 -33.5t-69.5 -13.5t-64.5 7.5q-51 15 -89 47t-60 74
q-13 25 -21 32.5t-21 6.5q-9 -1 -16.5 1t-10.5 7q-4 7 -0.5 17t11.5 18zM707 183q15 5 30 5h72v89l-8 -5q-8 -5 -14.5 -7t-20.5 -2h-59v-80z" />
    <glyph glyph-name="uniAC5C" unicode="&#xac5c;" horiz-adv-x="950" 
d="M877 575q18 13 29 7.5t11 -30.5v-424q0 -23 -12 -35q-9 -9 -23.5 -22t-34.5 -28q-13 -10 -25.5 -4.5t-12.5 24.5v54l-8 -5q-8 -5 -14.5 -7t-20.5 -2h-64q-3 -6 -7 -10q-9 -9 -23.5 -22t-34.5 -28q-13 -10 -25.5 -4.5t-12.5 24.5v348q0 12 -7 14q-6 2 -20 -8q-9 -7 -19 -7
t-15 7q-6 8 -2.5 18t14.5 18l117 82q18 13 29 7.5t11 -30.5v-165q3 0 6.5 0.5t7.5 0.5h88v103q0 12 -7 14q-6 2 -20 -8q-9 -7 -19 -7t-15 7q-6 8 -2.5 18t14.5 18zM451 -253q0 2 2 2q7 7 14.5 13t17.5 11q13 10 25.5 20t16.5 12q6 5 18 7.5t23 2.5h155q10 28 12 47
q1 8 -0.5 15.5t-6.5 12.5q-8 8 -25.5 9t-30.5 0q-14 -1 -29.5 -2t-40.5 -2h-33t-35 1t-32 3.5t-25 5.5q-14 5 -11.5 15.5t22.5 21.5q11 6 24.5 15t23.5 17q11 8 21.5 11t29.5 0q13 -2 31.5 -3.5t45.5 -0.5q15 1 37 3t48 4q23 2 42 -4.5t29 -14.5q17 -15 20.5 -30.5
t-4.5 -46.5q-5 -20 -14.5 -38.5t-26.5 -38.5h31q5 0 12.5 -1t10.5 -4q4 -4 4 -6.5t-6 -8.5q-3 -3 -13 -11.5t-21.5 -17.5t-21.5 -17t-14 -10q-8 -5 -14.5 -7t-20.5 -2h-146q18 -32 36 -55t50 -38q29 -13 63 -9t82 39q15 10 21 4q4 -4 2 -11t-8 -15q-32 -39 -63.5 -61.5
t-61.5 -31.5t-58 -5.5t-53 16.5q-32 17 -58 47t-44 66q-11 22 -19.5 28.5t-19.5 5.5q-18 -2 -24 7q-3 6 0 15t10 15zM437 379q34 -70 -5 -169q-8 -19 -23 -42t-34 -45t-39 -41t-37 -29q-14 -8 -26.5 -9t-16.5 4q-5 8 -1.5 19.5t9.5 19.5q11 16 19.5 28.5t15.5 25t13 26
t13 31.5q7 20 10 45t-2 39q-5 18 -16.5 27t-25.5 8q-19 -1 -36.5 -2t-46.5 -2h-33t-35 1t-32 3.5t-25 5.5q-14 5 -11.5 15.5t22.5 21.5q11 6 24.5 15t23.5 17q11 8 21.5 10.5t29.5 0.5q17 -2 36 -3t51 0q20 1 41.5 3t61.5 4q18 1 32 -5.5t22 -22.5zM707 183q15 5 30 5h72v89
l-8 -5q-8 -5 -14.5 -7t-20.5 -2h-59v-80z" />
    <glyph glyph-name="uniAC70" unicode="&#xac70;" 
d="M723 667q18 13 29 7.5t11 -30.5v-598q0 -23 -12 -35q-9 -9 -30 -27.5t-41 -33.5q-13 -10 -25.5 -4.5t-12.5 24.5v235h-162q-14 0 -18.5 1t-9.5 6t-1.5 9t11.5 10q5 3 14.5 10.5t20 15.5t19 14.5t11.5 8.5q6 5 18 7.5t23 2.5h74v242q0 12 -7 14q-6 2 -20 -8q-9 -7 -19 -7
t-15 7q-6 8 -2.5 18t14.5 18zM427 399q34 -70 -5 -169q-8 -19 -23 -42t-34 -45t-39 -41t-37 -29q-14 -8 -26.5 -9t-16.5 4q-5 8 -1.5 19.5t9.5 19.5q11 16 19.5 28.5t15.5 25t13 26t13 31.5q7 20 10 45t-2 39q-5 18 -16.5 27t-25.5 8q-19 -1 -36.5 -2t-46.5 -2h-33t-35 1
t-32 3.5t-25 5.5q-14 5 -11.5 15.5t22.5 21.5q11 6 24.5 15t23.5 17q11 8 21.5 10.5t29.5 0.5q17 -2 36 -3t51 0q20 1 41.5 3t61.5 4q18 1 32 -5.5t22 -22.5z" />
    <glyph glyph-name="uniAC71" unicode="&#xac71;" 
d="M723 535q18 13 29 7.5t11 -30.5v-371q0 -23 -12 -35q-9 -9 -30 -27.5t-41 -33.5q-13 -10 -25.5 -4.5t-12.5 24.5v140h-162q-14 0 -18.5 1t-9.5 6t-1.5 9t11.5 10q5 3 14.5 10.5t20 15.5t19 14.5t11.5 8.5q6 5 18 7.5t23 2.5h74v110q0 12 -7 14q-6 2 -20 -8q-9 -7 -19 -7
t-15 7q-6 8 -2.5 18t14.5 18zM351 -21q9 6 20 7.5t26 -0.5q19 -2 45.5 -2t47.5 1q13 0 33.5 1.5t43.5 2.5t47 1t44 -1q30 -2 48.5 -14t28.5 -30t11 -41.5t-5 -48.5q-6 -26 -21 -54.5t-33 -54.5t-36.5 -46.5t-31.5 -28.5q-14 -8 -20.5 -7.5t-8.5 5.5t-0.5 12t4.5 13
q3 5 8.5 17.5t11.5 30t10.5 39.5t5.5 45q1 29 -12 47t-36 21q-13 2 -35 2.5t-47 0t-49 -1t-40 -0.5q-15 0 -33 0.5t-35.5 1.5t-32.5 3t-24 5q-12 4 -11.5 14t20.5 24zM407 389q34 -70 -5 -169q-8 -19 -23 -42t-34 -45t-39 -41t-37 -29q-14 -8 -26.5 -9t-16.5 4
q-5 8 -1.5 19.5t9.5 19.5q11 16 19.5 28.5t15.5 25t13 26t13 31.5q7 20 10 45t-2 39q-5 18 -16.5 27t-25.5 8q-19 -1 -36.5 -2t-46.5 -2h-33t-35 1t-32 3.5t-25 5.5q-14 5 -11.5 15.5t22.5 21.5q11 6 24.5 15t23.5 17q11 8 21.5 10.5t29.5 0.5q17 -2 36 -3t51 0q20 1 41.5 3
t61.5 4q18 1 32 -5.5t22 -22.5z" />
    <glyph glyph-name="uniAC74" unicode="&#xac74;" 
d="M723 535q18 13 29 7.5t11 -30.5v-466q0 -23 -12 -35q-9 -9 -30 -27.5t-41 -33.5q-13 -10 -25.5 -4.5t-12.5 24.5v235h-162q-14 0 -18.5 1t-9.5 6t-1.5 9t11.5 10q5 3 14.5 10.5t20 15.5t19 14.5t11.5 8.5q6 5 18 7.5t23 2.5h74v110q0 12 -7 14q-6 2 -20 -8q-9 -7 -19 -7
t-15 7q-6 8 -2.5 18t14.5 18zM407 389q34 -70 -5 -169q-8 -19 -23 -42t-34 -45t-39 -41t-37 -29q-14 -8 -26.5 -9t-16.5 4q-5 8 -1.5 19.5t9.5 19.5q11 16 19.5 28.5t15.5 25t13 26t13 31.5q7 20 10 45t-2 39q-5 18 -16.5 27t-25.5 8q-19 -1 -36.5 -2t-46.5 -2h-33t-35 1
t-32 3.5t-25 5.5q-14 5 -11.5 15.5t22.5 21.5q11 6 24.5 15t23.5 17q11 8 21.5 10.5t29.5 0.5q17 -2 36 -3t51 0q20 1 41.5 3t61.5 4q18 1 32 -5.5t22 -22.5zM287 -107q14 14 32.5 27t52.5 23q21 6 34 -3q15 -9 30 -37q27 -51 59.5 -81.5t63.5 -41.5q43 -15 92 -11.5
t96 38.5q8 6 14 6t9 -3q11 -11 -6 -28q-32 -31 -66.5 -52.5t-69.5 -33.5t-69.5 -13.5t-64.5 7.5q-51 15 -89 47t-60 74q-13 25 -21 32.5t-21 6.5q-9 -1 -16.5 1t-10.5 7q-4 7 -0.5 17t11.5 18z" />
    <glyph glyph-name="uniAC77" unicode="&#xac77;" 
d="M728 0q20 0 20 -10q0 -9 -19 -21q-14 -9 -26.5 -19t-23.5 -21q-14 -14 -50 -14h-186q-4 -19 5 -52t32 -59q26 -29 58.5 -45t64.5 -17q30 -1 54 9.5t42 26.5q15 13 24 7q11 -7 2 -24q-18 -36 -50.5 -64t-85.5 -39q-25 -5 -53 -2.5t-55 12.5t-51 27t-40 41q-26 39 -38.5 75
t-5.5 57q4 13 18 24.5t32 22.5h-76q-9 0 -15 3t-6 8t8 10.5t16 10.5t20 15t23 20q19 18 61 18h301zM723 535q18 13 29 7.5t11 -30.5v-371q0 -23 -12 -35q-9 -9 -30 -27.5t-41 -33.5q-13 -10 -25.5 -4.5t-12.5 24.5v140h-162q-14 0 -18.5 1t-9.5 6t-1.5 9t11.5 10
q5 3 14.5 10.5t20 15.5t19 14.5t11.5 8.5q6 5 18 7.5t23 2.5h74v110q0 12 -7 14q-6 2 -20 -8q-9 -7 -19 -7t-15 7q-6 8 -2.5 18t14.5 18zM407 389q34 -70 -5 -169q-8 -19 -23 -42t-34 -45t-39 -41t-37 -29q-14 -8 -26.5 -9t-16.5 4q-5 8 -1.5 19.5t9.5 19.5q11 16 19.5 28.5
t15.5 25t13 26t13 31.5q7 20 10 45t-2 39q-5 18 -16.5 27t-25.5 8q-19 -1 -36.5 -2t-46.5 -2h-33t-35 1t-32 3.5t-25 5.5q-14 5 -11.5 15.5t22.5 21.5q11 6 24.5 15t23.5 17q11 8 21.5 10.5t29.5 0.5q17 -2 36 -3t51 0q20 1 41.5 3t61.5 4q18 1 32 -5.5t22 -22.5z" />
    <glyph glyph-name="uniAC78" unicode="&#xac78;" 
d="M329 -253q0 2 2 2q0 1 0.5 1t0.5 1q7 6 14 11.5t17 10.5q13 10 25.5 20t16.5 12q6 5 18 7.5t23 2.5h155q10 28 12 47q1 8 -0.5 15.5t-6.5 12.5q-8 8 -25.5 9t-30.5 0q-14 -1 -29.5 -2t-40.5 -2h-33t-35 1t-32 3.5t-25 5.5q-14 5 -11.5 15.5t22.5 21.5q11 6 24.5 15
t23.5 17q11 8 21.5 11t29.5 0q13 -2 31.5 -3.5t45.5 -0.5q15 1 37 3t48 4q23 2 42 -4.5t29 -14.5q17 -15 20.5 -30.5t-4.5 -46.5q-5 -20 -14.5 -38.5t-26.5 -38.5h31q5 0 12.5 -1t10.5 -4q4 -4 4 -6.5t-6 -8.5q-3 -3 -13 -11.5t-21.5 -17.5t-21.5 -17t-14 -10
q-8 -5 -14.5 -7t-20.5 -2h-146q18 -32 36 -55t50 -38q29 -13 63 -9t82 39q15 10 21 4q4 -4 2 -11t-8 -15q-32 -39 -63.5 -61.5t-61.5 -31.5t-58 -5.5t-53 16.5q-32 17 -58 47t-44 66q-11 22 -19.5 28.5t-19.5 5.5q-18 -2 -24 7q-3 6 0 15t10 15zM723 535q18 13 29 7.5
t11 -30.5v-381q0 -23 -12 -35q-9 -9 -30 -27.5t-41 -33.5q-13 -10 -25.5 -4.5t-12.5 24.5v150h-162q-14 0 -18.5 1t-9.5 6t-1.5 9t11.5 10q5 3 14.5 10.5t20 15.5t19 14.5t11.5 8.5q6 5 18 7.5t23 2.5h74v110q0 12 -7 14q-6 2 -20 -8q-9 -7 -19 -7t-15 7q-6 8 -2.5 18
t14.5 18zM417 389q34 -70 -5 -169q-8 -19 -23 -42t-34 -45t-39 -41t-37 -29q-14 -8 -26.5 -9t-16.5 4q-5 8 -1.5 19.5t9.5 19.5q11 16 19.5 28.5t15.5 25t13 26t13 31.5q7 20 10 45t-2 39q-5 18 -16.5 27t-25.5 8q-19 -1 -36.5 -2t-46.5 -2h-33t-35 1t-32 3.5t-25 5.5
q-14 5 -11.5 15.5t22.5 21.5q11 6 24.5 15t23.5 17q11 8 21.5 10.5t29.5 0.5q17 -2 36 -3t51 0q20 1 41.5 3t61.5 4q18 1 32 -5.5t22 -22.5z" />
    <glyph glyph-name="uniAC7A" unicode="&#xac7a;" 
d="M127 -238q1 0 1 1q7 6 14 11.5t17 10.5q13 10 25.5 20t16.5 12q6 5 18 7.5t23 2.5h75q10 28 12 47q1 8 -0.5 15.5t-6.5 12.5q-15 15 -52 14q-14 -1 -29.5 -2t-40.5 -2q-33 -1 -49 5q-14 5 -11.5 15.5t22.5 21.5q11 6 24.5 15t23.5 17q11 8 24.5 10t26.5 1t37 0t45 3
t39 -2.5t32 -16.5q11 -9 16.5 -21.5t3.5 -31.5q7 4 21 14.5t30.5 21.5t31.5 22t24 17q18 13 29 7.5t11 -30.5v-49q45 38 85.5 48.5t66.5 -0.5q42 -17 53.5 -52.5t-2.5 -88.5q-12 -44 -34.5 -80.5t-49.5 -62.5h78q20 0 20 -10q0 -9 -19 -21q-14 -9 -26.5 -19t-23.5 -21
q-14 -14 -50 -14h-134l-27 -22q-13 -10 -25.5 -4.5t-12.5 24.5v275q0 12 -7 14q-6 2 -20 -8q-15 -11 -29 -4q-10 -29 -35 -58h31q5 0 12.5 -1t10.5 -4q4 -4 4 -6.5t-6 -8.5q-3 -3 -13 -11.5t-21.5 -17.5t-21.5 -17t-14 -10q-8 -5 -14.5 -7t-20.5 -2h-63q11 -36 18.5 -57.5
t29.5 -35.5q23 -14 52.5 -7.5t67.5 40.5q8 7 13.5 6t8.5 -4q9 -9 -6 -27q-32 -38 -58.5 -60.5t-49.5 -32t-44 -8t-42 10.5q-33 14 -55 45t-30 76q-5 24 -16.5 29t-22.5 5q-19 0 -25 10q-4 6 0 13.5t11 13.5zM723 535q18 13 29 7.5t11 -30.5v-381q0 -23 -12 -35
q-9 -9 -30 -27.5t-41 -33.5q-13 -10 -25.5 -4.5t-12.5 24.5v150h-162q-14 0 -18.5 1t-9.5 6t-1.5 9t11.5 10q5 3 14.5 10.5t20 15.5t19 14.5t11.5 8.5q6 5 18 7.5t23 2.5h74v110q0 12 -7 14q-6 2 -20 -8q-9 -7 -19 -7t-15 7q-6 8 -2.5 18t14.5 18zM407 389q34 -70 -5 -169
q-8 -19 -23 -42t-34 -45t-39 -41t-37 -29q-14 -8 -26.5 -9t-16.5 4q-5 8 -1.5 19.5t9.5 19.5q11 16 19.5 28.5t15.5 25t13 26t13 31.5q7 20 10 45t-2 39q-5 18 -16.5 27t-25.5 8q-19 -1 -36.5 -2t-46.5 -2h-33t-35 1t-32 3.5t-25 5.5q-14 5 -11.5 15.5t22.5 21.5
q11 6 24.5 15t23.5 17q11 8 21.5 10.5t29.5 0.5q17 -2 36 -3t51 0q20 1 41.5 3t61.5 4q18 1 32 -5.5t22 -22.5zM646 -104q-18 6 -33 4.5t-32 -12.5v-193h39q13 16 22.5 30t16 27.5t11.5 27.5t8 31q7 32 2 53t-34 32z" />
    <glyph glyph-name="uniAC80" unicode="&#xac80;" 
d="M479 -57q51 35 101.5 40.5t88.5 -7.5q48 -16 73 -49.5t11 -86.5q-9 -32 -27.5 -61t-41.5 -52h60q20 0 20 -10q0 -9 -19 -21q-14 -9 -26.5 -19t-23.5 -21q-14 -14 -50 -14h-181q-9 -8 -19.5 -18t-28.5 -24q-13 -10 -25.5 -4.5t-12.5 24.5v254q0 12 -7 14q-6 2 -20 -8
q-9 -7 -19 -7t-15 7q-6 8 -2.5 18t14.5 18l110 78q18 13 29 7.5t11 -30.5v-28zM723 535q18 13 29 7.5t11 -30.5v-374q0 -23 -12 -35q-9 -9 -30 -27.5t-41 -33.5q-13 -10 -25.5 -4.5t-12.5 24.5v143h-162q-14 0 -18.5 1t-9.5 6t-1.5 9t11.5 10q5 3 14.5 10.5t20 15.5t19 14.5
t11.5 8.5q6 5 18 7.5t23 2.5h74v110q0 12 -7 14q-6 2 -20 -8q-9 -7 -19 -7t-15 7q-6 8 -2.5 18t14.5 18zM417 399q34 -70 -5 -169q-8 -19 -23 -42t-34 -45t-39 -41t-37 -29q-14 -8 -26.5 -9t-16.5 4q-5 8 -1.5 19.5t9.5 19.5q11 16 19.5 28.5t15.5 25t13 26t13 31.5
q7 20 10 45t-2 39q-5 18 -16.5 27t-25.5 8q-19 -1 -36.5 -2t-46.5 -2h-33t-35 1t-32 3.5t-25 5.5q-14 5 -11.5 15.5t22.5 21.5q11 6 24.5 15t23.5 17q11 8 21.5 10.5t29.5 0.5q17 -2 36 -3t51 0q20 1 41.5 3t61.5 4q18 1 32 -5.5t22 -22.5zM599 -102q-30 11 -61.5 9
t-58.5 -13v-167h118q17 21 29.5 41t20.5 45q11 32 -4 53t-44 32z" />
    <glyph glyph-name="uniAC81" unicode="&#xac81;" 
d="M710 -10q18 13 29 7.5t11 -30.5v-39t-0.5 -60.5t-0.5 -58v-31.5q0 -23 -12 -35q-7 -7 -21.5 -19.5t-30.5 -26.5h61q5 0 12.5 -1t10.5 -4q2 -2 2.5 -6t-4.5 -9q-3 -3 -12 -10.5t-19.5 -16t-20 -15.5t-13.5 -9q-8 -5 -14.5 -7t-20.5 -2h-245h-1l-8 -6q-13 -10 -25.5 -4.5
t-12.5 24.5v224q0 12 -7 14q-6 2 -20 -8q-9 -7 -19 -7t-15 7q-6 8 -2.5 18t14.5 18l130 93q18 13 29 7.5t11 -30.5v-119h133v50q0 20 5 30.5t24 24.5zM723 535q18 13 29 7.5t11 -30.5v-374q0 -23 -12 -35q-9 -9 -30 -27.5t-41 -33.5q-13 -10 -25.5 -4.5t-12.5 24.5v143h-162
q-14 0 -18.5 1t-9.5 6t-1.5 9t11.5 10q5 3 14.5 10.5t20 15.5t19 14.5t11.5 8.5q6 5 18 7.5t23 2.5h74v110q0 12 -7 14q-6 2 -20 -8q-9 -7 -19 -7t-15 7q-6 8 -2.5 18t14.5 18zM407 389q34 -70 -5 -169q-8 -19 -23 -42t-34 -45t-39 -41t-37 -29q-14 -8 -26.5 -9t-16.5 4
q-5 8 -1.5 19.5t9.5 19.5q11 16 19.5 28.5t15.5 25t13 26t13 31.5q7 20 10 45t-2 39q-5 18 -16.5 27t-25.5 8q-19 -1 -36.5 -2t-46.5 -2h-33t-35 1t-32 3.5t-25 5.5q-14 5 -11.5 15.5t22.5 21.5q11 6 24.5 15t23.5 17q11 8 21.5 10.5t29.5 0.5q17 -2 36 -3t51 0q20 1 41.5 3
t61.5 4q18 1 32 -5.5t22 -22.5zM496 -293q0 -7 -1 -10h10h123v5v95l-27 -20q-8 -5 -14.5 -7t-20.5 -2h-70v-61z" />
    <glyph glyph-name="uniAC83" unicode="&#xac83;" 
d="M723 535q18 13 29 7.5t11 -30.5v-391q0 -23 -12 -35q-9 -9 -30 -27.5t-41 -33.5q-13 -10 -25.5 -4.5t-12.5 24.5v160h-162q-14 0 -18.5 1t-9.5 6t-1.5 9t11.5 10q5 3 14.5 10.5t20 15.5t19 14.5t11.5 8.5q6 5 18 7.5t23 2.5h74v110q0 12 -7 14q-6 2 -20 -8q-9 -7 -19 -7
t-15 7q-6 8 -2.5 18t14.5 18zM417 389q34 -70 -5 -169q-8 -19 -23 -42t-34 -45t-39 -41t-37 -29q-14 -8 -26.5 -9t-16.5 4q-5 8 -1.5 19.5t9.5 19.5q11 16 19.5 28.5t15.5 25t13 26t13 31.5q7 20 10 45t-2 39q-5 18 -16.5 27t-25.5 8q-19 -1 -36.5 -2t-46.5 -2h-33t-35 1
t-32 3.5t-25 5.5q-14 5 -11.5 15.5t22.5 21.5q11 6 24.5 15t23.5 17q11 8 21.5 10.5t29.5 0.5q17 -2 36 -3t51 0q20 1 41.5 3t61.5 4q18 1 32 -5.5t22 -22.5zM457 -18q16 8 47.5 12.5t61.5 1.5q17 -1 28 -14q17 -21 14 -60q-3 -31 -13.5 -61.5t-32.5 -59.5
q-26 -35 -65 -62.5t-77 -41.5t-79.5 -20t-69.5 -3q-29 3 -31 13q-2 5 6.5 9.5t19.5 8.5q6 2 18 6.5t27.5 11t32 14t31.5 15.5q28 15 48.5 36t30.5 39q16 29 19 51.5t0 43.5q-2 11 -6.5 14.5t-10.5 5.5q-17 6 -18 15q-2 7 4.5 14.5t14.5 10.5zM620 -185q5 5 15 6t21 -1
q6 -1 16.5 -3.5t22.5 -5.5t23.5 -7.5t19.5 -8.5q20 -11 32 -26t13 -35q1 -15 -9 -34t-33 -40q-8 -8 -15 -5.5t-10 11.5q-2 5 -8 17t-17 23q-14 13 -29 20.5t-30 12.5q-12 3 -28 6t-24 6q-8 5 -9.5 12.5t3.5 12.5q5 7 11.5 12.5t11.5 8.5q8 4 13 8.5t10 9.5z" />
    <glyph glyph-name="uniAC84" unicode="&#xac84;" 
d="M723 535q18 13 29 7.5t11 -30.5v-391q0 -23 -12 -35q-9 -9 -30 -27.5t-41 -33.5q-13 -10 -25.5 -4.5t-12.5 24.5v160h-162q-14 0 -18.5 1t-9.5 6t-1.5 9t11.5 10q5 3 14.5 10.5t20 15.5t19 14.5t11.5 8.5q6 5 18 7.5t23 2.5h74v110q0 12 -7 14q-6 2 -20 -8q-9 -7 -19 -7
t-15 7q-6 8 -2.5 18t14.5 18zM417 389q34 -70 -5 -169q-8 -19 -23 -42t-34 -45t-39 -41t-37 -29q-14 -8 -26.5 -9t-16.5 4q-5 8 -1.5 19.5t9.5 19.5q11 16 19.5 28.5t15.5 25t13 26t13 31.5q7 20 10 45t-2 39q-5 18 -16.5 27t-25.5 8q-19 -1 -36.5 -2t-46.5 -2h-33t-35 1
t-32 3.5t-25 5.5q-14 5 -11.5 15.5t22.5 21.5q11 6 24.5 15t23.5 17q11 8 21.5 10.5t29.5 0.5q17 -2 36 -3t51 0q20 1 41.5 3t61.5 4q18 1 32 -5.5t22 -22.5zM297 -59q14 10 38 24t53 19q19 3 31 -5q19 -14 25 -54q2 -17 -0.5 -37t-12.5 -45q-17 -41 -46 -77.5t-62 -61.5
q-32 -24 -70.5 -41t-66.5 -22q-13 -2 -17.5 -0.5t-5.5 4.5q-2 5 2.5 10t16.5 15q5 4 15.5 11.5t23.5 17.5t27 22t26 24q23 23 35.5 46t19.5 47q4 14 3.5 26.5t-3.5 23.5t-9.5 13t-12.5 2q-18 2 -22 10q-3 5 1 14t11 14zM500 -59q14 10 38 24t53 19q19 3 31 -5q19 -14 25 -54
q2 -17 -0.5 -37t-12.5 -45q-17 -41 -46 -77.5t-62 -61.5q-32 -24 -70.5 -41t-66.5 -22q-13 -2 -17.5 -0.5t-5.5 4.5q-2 5 2.5 10t16.5 15q5 4 15.5 11.5t23.5 17.5t27 22t26 24q23 23 35.5 46t19.5 47q4 14 3.5 26.5t-3.5 23.5t-9.5 13t-12.5 2q-18 2 -22 10q-3 5 1 14
t11 14zM699 -180q11 7 25 -4q11 -8 23 -15.5t26 -21.5q14 -13 22.5 -31.5t3.5 -39.5q-6 -31 -62 -59q-9 -5 -16 -0.5t-6 13.5q1 8 -6 34q-12 37 -37 54q-11 7 -17 11t-12 9t-5.5 12.5t6.5 12.5q6 4 14 7t13 5q9 3 16 6t12 7z" />
    <glyph glyph-name="uniAC85" unicode="&#xac85;" 
d="M401 -91q36 37 83 60t87 24q40 2 74.5 -18t58.5 -52q27 -37 24 -84t-34 -84q-59 -72 -147 -95q-21 -6 -45.5 -4t-47.5 11t-43.5 24t-35.5 36t-19.5 45t-0.5 48t16 47t30 42zM723 535q18 13 29 7.5t11 -30.5v-391q0 -23 -12 -35q-9 -9 -30 -27.5t-41 -33.5
q-13 -10 -25.5 -4.5t-12.5 24.5v160h-162q-14 0 -18.5 1t-9.5 6t-1.5 9t11.5 10q5 3 14.5 10.5t20 15.5t19 14.5t11.5 8.5q6 5 18 7.5t23 2.5h74v110q0 12 -7 14q-6 2 -20 -8q-9 -7 -19 -7t-15 7q-6 8 -2.5 18t14.5 18zM407 389q34 -70 -5 -169q-8 -19 -23 -42t-34 -45
t-39 -41t-37 -29q-14 -8 -26.5 -9t-16.5 4q-5 8 -1.5 19.5t9.5 19.5q11 16 19.5 28.5t15.5 25t13 26t13 31.5q7 20 10 45t-2 39q-5 18 -16.5 27t-25.5 8q-19 -1 -36.5 -2t-46.5 -2h-33t-35 1t-32 3.5t-25 5.5q-14 5 -11.5 15.5t22.5 21.5q11 6 24.5 15t23.5 17
q11 8 21.5 10.5t29.5 0.5q17 -2 36 -3t51 0q20 1 41.5 3t61.5 4q18 1 32 -5.5t22 -22.5zM598 -119q-10 12 -26.5 24t-35 18t-37.5 5t-34 -14q-14 -12 -16.5 -30t2 -37.5t14 -37.5t20.5 -30q15 -16 33.5 -27t37 -15.5t35 -2t27.5 13.5q11 10 14.5 26t0.5 34.5t-12 37
t-23 35.5z" />
    <glyph glyph-name="uniAC86" unicode="&#xac86;" 
d="M723 535q18 13 29 7.5t11 -30.5v-391q0 -23 -12 -35q-9 -9 -30 -27.5t-41 -33.5q-13 -10 -25.5 -4.5t-12.5 24.5v160h-162q-14 0 -18.5 1t-9.5 6t-1.5 9t11.5 10q5 3 14.5 10.5t20 15.5t19 14.5t11.5 8.5q6 5 18 7.5t23 2.5h74v110q0 12 -7 14q-6 2 -20 -8q-9 -7 -19 -7
t-15 7q-6 8 -2.5 18t14.5 18zM712 -34q20 0 20 -10q0 -9 -19 -21q-14 -9 -26.5 -19t-23.5 -21q-14 -14 -50 -14h-39q6 -6 9 -15q5 -14 0.5 -34t-15.5 -41q-11 -20 -23 -36t-28 -29.5t-35.5 -26.5t-45.5 -26q-35 -18 -72 -27t-65 -14q-14 -2 -22.5 -1t-10.5 6t4 11t16 13
l15 9t23.5 13.5t28.5 16.5l30 18q53 34 67 73q5 16 4 30t-3 28q-2 12 5.5 16.5t14.5 6.5q5 2 16.5 4.5t24.5 4.5h-200q-9 0 -15 3t-6 8t8 10.5t16 10.5t20 15t23 20q19 18 61 18h293zM407 389q34 -70 -5 -169q-8 -19 -23 -42t-34 -45t-39 -41t-37 -29q-14 -8 -26.5 -9
t-16.5 4q-5 8 -1.5 19.5t9.5 19.5q11 16 19.5 28.5t15.5 25t13 26t13 31.5q7 20 10 45t-2 39q-5 18 -16.5 27t-25.5 8q-19 -1 -36.5 -2t-46.5 -2h-33t-35 1t-32 3.5t-25 5.5q-14 5 -11.5 15.5t22.5 21.5q11 6 24.5 15t23.5 17q11 8 21.5 10.5t29.5 0.5q17 -2 36 -3t51 0
q20 1 41.5 3t61.5 4q18 1 32 -5.5t22 -22.5zM595 -233q7 9 25 7q13 -2 33 -5t38 -11t32 -21.5t18 -34.5q6 -32 -35 -78q-7 -8 -14 -6.5t-11 10.5q-2 5 -5.5 11.5t-13.5 17.5q-26 27 -55 35q-12 3 -25 4.5t-21 3.5t-10 10t2 14t10.5 12t10.5 10q13 12 21 21z" />
    <glyph glyph-name="uniAC89" unicode="&#xac89;" 
d="M723 535q18 13 29 7.5t11 -30.5v-381q0 -23 -12 -35q-9 -9 -30 -27.5t-41 -33.5q-13 -10 -25.5 -4.5t-12.5 24.5v150h-162q-14 0 -18.5 1t-9.5 6t-1.5 9t11.5 10q5 3 14.5 10.5t20 15.5t19 14.5t11.5 8.5q6 5 18 7.5t23 2.5h74v110q0 12 -7 14q-6 2 -20 -8q-9 -7 -19 -7
t-15 7q-6 8 -2.5 18t14.5 18zM718 -142q20 0 20 -10q0 -9 -19 -21q-14 -9 -26.5 -19t-23.5 -21q-14 -14 -50 -14h-150q-4 -19 -2 -45.5t14 -52.5q14 -31 41.5 -50.5t53.5 -23.5t51 6.5t42 28.5q14 14 26 7q5 -3 5.5 -11t-3.5 -13q-14 -21 -28 -37.5t-30.5 -28.5t-37 -21
t-47.5 -16q-53 -13 -95 9.5t-68 74.5q-11 21 -16.5 41.5t-7.5 37.5t-1 29.5t3 18.5q5 12 18.5 23.5t32.5 22.5h-99q-9 0 -15 3t-6 8t8 10.5t16 10.5t20 15t23 20q19 18 61 18h290zM407 389q34 -70 -5 -169q-8 -19 -23 -42t-34 -45t-39 -41t-37 -29q-14 -8 -26.5 -9t-16.5 4
q-5 8 -1.5 19.5t9.5 19.5q11 16 19.5 28.5t15.5 25t13 26t13 31.5q7 20 10 45t-2 39q-5 18 -16.5 27t-25.5 8q-19 -1 -36.5 -2t-46.5 -2h-33t-35 1t-32 3.5t-25 5.5q-14 5 -11.5 15.5t22.5 21.5q11 6 24.5 15t23.5 17q11 8 21.5 10.5t29.5 0.5q17 -2 36 -3t51 0q20 1 41.5 3
t61.5 4q18 1 32 -5.5t22 -22.5zM668 0q20 0 20 -10q0 -9 -19 -21q-14 -9 -26.5 -19t-23.5 -21q-14 -14 -50 -14h-184q-9 0 -15 3t-6 8t8 10.5t16 10.5t20 15t23 20q19 18 61 18h176z" />
    <glyph glyph-name="uniAC8A" unicode="&#xac8a;" 
d="M723 535q18 13 29 7.5t11 -30.5v-371q0 -23 -12 -35q-9 -9 -30 -27.5t-41 -33.5q-13 -10 -25.5 -4.5t-12.5 24.5v140h-162q-14 0 -18.5 1t-9.5 6t-1.5 9t11.5 10q5 3 14.5 10.5t20 15.5t19 14.5t11.5 8.5q6 5 18 7.5t23 2.5h74v110q0 12 -7 14q-6 2 -20 -8q-9 -7 -19 -7
t-15 7q-6 8 -2.5 18t14.5 18zM407 389q34 -70 -5 -169q-8 -19 -23 -42t-34 -45t-39 -41t-37 -29q-14 -8 -26.5 -9t-16.5 4q-5 8 -1.5 19.5t9.5 19.5q11 16 19.5 28.5t15.5 25t13 26t13 31.5q7 20 10 45t-2 39q-5 18 -16.5 27t-25.5 8q-19 -1 -36.5 -2t-46.5 -2h-33t-35 1
t-32 3.5t-25 5.5q-14 5 -11.5 15.5t22.5 21.5q11 6 24.5 15t23.5 17q11 8 21.5 10.5t29.5 0.5q17 -2 36 -3t51 0q20 1 41.5 3t61.5 4q18 1 32 -5.5t22 -22.5zM732 -16q20 0 20 -10q0 -9 -19 -21q-14 -9 -26.5 -19t-23.5 -21q-14 -14 -50 -14h-162l-3 -20q-2 -23 1 -47
t14 -41q9 -12 13.5 -17.5t9.5 -9.5q8 -6 7.5 -13t-10.5 -12q-28 -14 -54.5 -19.5t-40.5 0.5q-19 8 -28.5 25t-12.5 40q-2 19 -1 43.5t6 43.5q3 18 11 27h-70q-9 0 -15 3t-6 8t8 10.5t16 10.5t20 15t23 20q19 18 61 18h312zM553 -296q6 11 13 19q14 20 18.5 43.5t-6.5 40.5
q-7 10 -12.5 16.5t-9.5 10.5q-16 16 2 25q19 10 37.5 15t33.5 7q19 2 27 -5q11 -9 21 -25t9 -39q-1 -27 -16 -50.5t-26 -38.5l-15 -19h113q20 0 20 -10q0 -9 -19 -21q-14 -9 -26.5 -19t-23.5 -21q-14 -14 -50 -14h-340q-9 0 -15 3t-6 8t8 10.5t16 10.5t20 15t23 20
q19 18 61 18h143z" />
    <glyph glyph-name="uniAC8B" unicode="&#xac8b;" 
d="M723 535q18 13 29 7.5t11 -30.5v-371q0 -23 -12 -35q-9 -9 -30 -27.5t-41 -33.5q-13 -10 -25.5 -4.5t-12.5 24.5v140h-162q-14 0 -18.5 1t-9.5 6t-1.5 9t11.5 10q5 3 14.5 10.5t20 15.5t19 14.5t11.5 8.5q6 5 18 7.5t23 2.5h74v110q0 12 -7 14q-6 2 -20 -8q-9 -7 -19 -7
t-15 7q-6 8 -2.5 18t14.5 18zM368 -432q-13 19 -17.5 43t2.5 49.5t26.5 51.5t54.5 50q31 21 61.5 26.5t57.5 0.5t49 -19.5t35 -32.5t16 -43.5t-5 -52.5t-27 -53t-50 -45q-30 -19 -60.5 -25t-58 -1.5t-49.5 18t-35 33.5zM407 389q34 -70 -5 -169q-8 -19 -23 -42t-34 -45
t-39 -41t-37 -29q-14 -8 -26.5 -9t-16.5 4q-5 8 -1.5 19.5t9.5 19.5q11 16 19.5 28.5t15.5 25t13 26t13 31.5q7 20 10 45t-2 39q-5 18 -16.5 27t-25.5 8q-19 -1 -36.5 -2t-46.5 -2h-33t-35 1t-32 3.5t-25 5.5q-14 5 -11.5 15.5t22.5 21.5q11 6 24.5 15t23.5 17
q11 8 21.5 10.5t29.5 0.5q17 -2 36 -3t51 0q20 1 41.5 3t61.5 4q18 1 32 -5.5t22 -22.5zM693 -114q20 0 20 -10q0 -9 -19 -21q-9 -6 -18.5 -14t-18.5 -16q-14 -14 -50 -14h-310q-9 0 -15 3t-6 8t8 10.5t16 10.5q5 3 13 10t17 15q19 18 61 18h302zM643 0q20 0 20 -10
q0 -9 -19 -21q-9 -6 -18.5 -14t-18.5 -16q-14 -14 -50 -14h-158q-9 0 -15 3t-6 8t8 10.5t16 10.5q5 3 13 10t17 15q19 18 61 18h150zM459 -375q10 -13 24 -20.5t27.5 -11t24.5 -3t16 3.5q4 3 7.5 13t4 23t-4 28t-14.5 28q-11 13 -26 20.5t-29 11.5t-25.5 4t-15.5 -3t-7 -13
t-2.5 -23.5t5 -29t15.5 -28.5z" />
    <glyph glyph-name="uniAC8C" unicode="&#xac8c;" horiz-adv-x="950" 
d="M677 667q18 13 29 7.5t11 -30.5v-609q0 -23 -12 -35q-9 -9 -23.5 -22t-34.5 -28q-13 -10 -25.5 -4.5t-12.5 24.5v235h-159q-14 0 -18.5 1t-9.5 6t-1.5 9t11.5 10q5 3 14.5 10.5t20 15.5t19 14.5t11.5 8.5q6 5 18 7.5t23 2.5h71v253q0 12 -7 14q-6 2 -20 -8q-9 -7 -19 -7
t-15 7q-6 8 -2.5 18t14.5 18zM877 707q18 13 29 7.5t11 -30.5v-649q0 -23 -12 -35q-9 -9 -23.5 -22t-34.5 -28q-13 -10 -25.5 -4.5t-12.5 24.5v613q0 12 -7 14q-6 2 -20 -8q-9 -7 -19 -7t-15 7q-6 8 -2.5 18t14.5 18zM407 369q34 -70 -5 -169q-8 -19 -23 -42t-34 -45
t-39 -41t-37 -29q-14 -8 -26.5 -9t-16.5 4q-5 8 -1.5 19.5t9.5 19.5q11 16 19.5 28.5t15.5 25t13 26t13 31.5q7 20 10 45t-2 39q-5 18 -16.5 27t-25.5 8q-19 -1 -36.5 -2t-46.5 -2h-33t-35 1t-32 3.5t-25 5.5q-14 5 -11.5 15.5t22.5 21.5q11 6 24.5 15t23.5 17
q11 8 21.5 10.5t29.5 0.5q17 -2 36 -3t51 0q20 1 41.5 3t61.5 4q18 1 32 -5.5t22 -22.5z" />
    <glyph glyph-name="uniAC90" unicode="&#xac90;" horiz-adv-x="950" 
d="M677 535q18 13 29 7.5t11 -30.5v-437q0 -23 -12 -35q-9 -9 -23.5 -22t-34.5 -28q-13 -10 -25.5 -4.5t-12.5 24.5v195h-159q-16 0 -20 1q-8 -19 -23 -41.5t-33.5 -44t-38 -39.5t-36.5 -28q-14 -8 -26.5 -9t-16.5 4q-5 8 -1.5 19.5t9.5 19.5q11 16 19.5 28.5t15.5 25t13 26
t13 31.5q7 20 10 45t-2 39q-5 18 -16.5 27t-25.5 8q-19 -1 -36.5 -2t-46.5 -2h-33t-35 1t-32 3.5t-25 5.5q-14 5 -11.5 15.5t22.5 21.5q11 6 24.5 15t23.5 17q11 8 21.5 10.5t29.5 0.5q17 -2 36 -3t51 0q20 1 41.5 3t61.5 4q18 1 32 -5.5t22 -22.5q28 -58 4 -141
q7 5 15.5 11.5t16.5 13t14.5 11t9.5 6.5q6 5 18 7.5t23 2.5h71v121q0 12 -7 14q-6 2 -20 -8q-9 -7 -19 -7t-15 7q-6 8 -2.5 18t14.5 18zM877 575q18 13 29 7.5t11 -30.5v-500q0 -23 -12 -35q-9 -9 -23.5 -22t-34.5 -28q-13 -10 -25.5 -4.5t-12.5 24.5v464q0 12 -7 14
q-6 2 -20 -8q-9 -7 -19 -7t-15 7q-6 8 -2.5 18t14.5 18zM413 -127q14 14 32.5 27t52.5 23q21 6 34 -3q15 -9 30 -37q27 -51 59.5 -81.5t63.5 -41.5q43 -15 92 -11.5t96 38.5q8 6 14 6t9 -3q11 -11 -6 -28q-32 -31 -66.5 -52.5t-69.5 -33.5t-69.5 -13.5t-64.5 7.5
q-51 15 -89 47t-60 74q-13 25 -21 32.5t-21 6.5q-9 -1 -16.5 1t-10.5 7q-4 7 -0.5 17t11.5 18z" />
    <glyph glyph-name="uniAC94" unicode="&#xac94;" horiz-adv-x="950" 
d="M677 535q18 13 29 7.5t11 -30.5v-384q0 -23 -12 -35q-9 -9 -23.5 -22t-34.5 -28q-13 -10 -25.5 -4.5t-12.5 24.5v142h-159q-16 0 -20 1q-8 -19 -23 -41.5t-33.5 -44t-38 -39.5t-36.5 -28q-14 -8 -26.5 -9t-16.5 4q-5 8 -1.5 19.5t9.5 19.5q11 16 19.5 28.5t15.5 25t13 26
t13 31.5q7 20 10 45t-2 39q-5 18 -16.5 27t-25.5 8q-19 -1 -36.5 -2t-46.5 -2h-33t-35 1t-32 3.5t-25 5.5q-14 5 -11.5 15.5t22.5 21.5q11 6 24.5 15t23.5 17q11 8 21.5 10.5t29.5 0.5q17 -2 36 -3t51 0q20 1 41.5 3t61.5 4q18 1 32 -5.5t22 -22.5q28 -58 4 -141
q7 5 15.5 11.5t16.5 13t14.5 11t9.5 6.5q6 5 18 7.5t23 2.5h71v121q0 12 -7 14q-6 2 -20 -8q-9 -7 -19 -7t-15 7q-6 8 -2.5 18t14.5 18zM451 -253q0 2 2 2v1q7 6 14.5 12t17.5 11q13 10 25.5 20t16.5 12q6 5 18 7.5t23 2.5h155q10 28 12 47q1 8 -0.5 15.5t-6.5 12.5
q-8 8 -25.5 9t-30.5 0q-14 -1 -29.5 -2t-40.5 -2h-33t-35 1t-32 3.5t-25 5.5q-14 5 -11.5 15.5t22.5 21.5q11 6 24.5 15t23.5 17q11 8 21.5 11t29.5 0q13 -2 31.5 -3.5t45.5 -0.5q15 1 37 3t48 4q23 2 42 -4.5t29 -14.5q17 -15 20.5 -30.5t-4.5 -46.5q-5 -20 -14.5 -38.5
t-26.5 -38.5h31q5 0 12.5 -1t10.5 -4q4 -4 4 -6.5t-6 -8.5q-3 -3 -13 -11.5t-21.5 -17.5t-21.5 -17t-14 -10q-8 -5 -14.5 -7t-20.5 -2h-146q18 -32 36 -55t50 -38q29 -13 63 -9t82 39q15 10 21 4q4 -4 2 -11t-8 -15q-32 -39 -63.5 -61.5t-61.5 -31.5t-58 -5.5t-53 16.5
q-32 17 -58 47t-44 66q-11 22 -19.5 28.5t-19.5 5.5q-18 -2 -24 7q-3 6 0 15t10 15zM877 575q18 13 29 7.5t11 -30.5v-424q0 -23 -12 -35q-9 -9 -23.5 -22t-34.5 -28q-13 -10 -25.5 -4.5t-12.5 24.5v388q0 12 -7 14q-6 2 -20 -8q-9 -7 -19 -7t-15 7q-6 8 -2.5 18t14.5 18z
" />
    <glyph glyph-name="uniAC9C" unicode="&#xac9c;" horiz-adv-x="950" 
d="M579 -67q51 35 101.5 40.5t88.5 -7.5q48 -16 73 -49.5t11 -86.5q-9 -32 -27.5 -61t-41.5 -52h60q20 0 20 -10q0 -9 -19 -21q-14 -9 -26.5 -19t-23.5 -21q-14 -14 -50 -14h-181q-9 -8 -19.5 -18t-28.5 -24q-13 -10 -25.5 -4.5t-12.5 24.5v254q0 12 -7 14q-6 2 -20 -8
q-9 -7 -19 -7t-15 7q-6 8 -2.5 18t14.5 18l110 78q18 13 29 7.5t11 -30.5v-28zM677 535q18 13 29 7.5t11 -30.5v-384q0 -23 -12 -35q-9 -9 -23.5 -22t-34.5 -28q-13 -10 -25.5 -4.5t-12.5 24.5v142h-159q-16 0 -20 1q-8 -19 -23 -41.5t-33.5 -44t-38 -39.5t-36.5 -28
q-14 -8 -26.5 -9t-16.5 4q-5 8 -1.5 19.5t9.5 19.5q11 16 19.5 28.5t15.5 25t13 26t13 31.5q7 20 10 45t-2 39q-5 18 -16.5 27t-25.5 8q-19 -1 -36.5 -2t-46.5 -2h-33t-35 1t-32 3.5t-25 5.5q-14 5 -11.5 15.5t22.5 21.5q11 6 24.5 15t23.5 17q11 8 21.5 10.5t29.5 0.5
q17 -2 36 -3t51 0q20 1 41.5 3t61.5 4q18 1 32 -5.5t22 -22.5q28 -58 4 -141q7 5 15.5 11.5t16.5 13t14.5 11t9.5 6.5q6 5 18 7.5t23 2.5h71v121q0 12 -7 14q-6 2 -20 -8q-9 -7 -19 -7t-15 7q-6 8 -2.5 18t14.5 18zM877 575q18 13 29 7.5t11 -30.5v-424q0 -23 -12 -35
q-9 -9 -23.5 -22t-34.5 -28q-13 -10 -25.5 -4.5t-12.5 24.5v388q0 12 -7 14q-6 2 -20 -8q-9 -7 -19 -7t-15 7q-6 8 -2.5 18t14.5 18zM699 -112q-30 11 -61.5 9t-58.5 -13v-167h118q17 21 29.5 41t20.5 45q11 32 -4 53t-44 32z" />
    <glyph glyph-name="uniAC9D" unicode="&#xac9d;" horiz-adv-x="950" 
d="M677 535q18 13 29 7.5t11 -30.5v-384q0 -23 -12 -35q-9 -9 -23.5 -22t-34.5 -28q-13 -10 -25.5 -4.5t-12.5 24.5v142h-159q-16 0 -20 1q-8 -19 -23 -41.5t-33.5 -44t-38 -39.5t-36.5 -28q-14 -8 -26.5 -9t-16.5 4q-5 8 -1.5 19.5t9.5 19.5q11 16 19.5 28.5t15.5 25t13 26
t13 31.5q7 20 10 45t-2 39q-5 18 -16.5 27t-25.5 8q-19 -1 -36.5 -2t-46.5 -2h-33t-35 1t-32 3.5t-25 5.5q-14 5 -11.5 15.5t22.5 21.5q11 6 24.5 15t23.5 17q11 8 21.5 10.5t29.5 0.5q17 -2 36 -3t51 0q20 1 41.5 3t61.5 4q18 1 32 -5.5t22 -22.5q28 -58 4 -141
q7 5 15.5 11.5t16.5 13t14.5 11t9.5 6.5q6 5 18 7.5t23 2.5h71v121q0 12 -7 14q-6 2 -20 -8q-9 -7 -19 -7t-15 7q-6 8 -2.5 18t14.5 18zM819 -19q18 13 29 7.5t11 -30.5v-39t-0.5 -61.5t-0.5 -59v-31.5q0 -23 -12 -35q-7 -7 -21.5 -19.5t-30.5 -26.5h61q5 0 12.5 -1t10.5 -4
q2 -2 2.5 -6t-4.5 -9q-3 -3 -12 -10.5t-19.5 -16t-20 -15.5t-13.5 -9q-8 -5 -14.5 -7t-20.5 -2h-245h-1l-8 -6q-13 -10 -25.5 -4.5t-12.5 24.5v226q0 12 -7 14q-6 2 -20 -8q-9 -7 -19 -7t-15 7q-6 8 -2.5 18t14.5 18l130 93q18 13 29 7.5t11 -30.5v-129h133v60q0 20 5 30.5
t24 24.5zM877 575q18 13 29 7.5t11 -30.5v-424q0 -23 -12 -35q-9 -9 -23.5 -22t-34.5 -28q-13 -10 -25.5 -4.5t-12.5 24.5v388q0 12 -7 14q-6 2 -20 -8q-9 -7 -19 -7t-15 7q-6 8 -2.5 18t14.5 18zM605 -304q0 -7 -1 -10h10h123v5v87l-27 -20q-8 -5 -14.5 -7t-20.5 -2h-70
v-53z" />
    <glyph glyph-name="uniAC9F" unicode="&#xac9f;" horiz-adv-x="950" 
d="M677 535q18 13 29 7.5t11 -30.5v-394q0 -23 -12 -35q-9 -9 -23.5 -22t-34.5 -28q-13 -10 -25.5 -4.5t-12.5 24.5v152h-159q-16 0 -20 1q-8 -19 -23 -41.5t-33.5 -44t-38 -39.5t-36.5 -28q-14 -8 -26.5 -9t-16.5 4q-5 8 -1.5 19.5t9.5 19.5q11 16 19.5 28.5t15.5 25t13 26
t13 31.5q7 20 10 45t-2 39q-5 18 -16.5 27t-25.5 8q-19 -1 -36.5 -2t-46.5 -2h-33t-35 1t-32 3.5t-25 5.5q-14 5 -11.5 15.5t22.5 21.5q11 6 24.5 15t23.5 17q11 8 21.5 10.5t29.5 0.5q17 -2 36 -3t51 0q20 1 41.5 3t61.5 4q18 1 32 -5.5t22 -22.5q28 -58 4 -141
q7 5 15.5 11.5t16.5 13t14.5 11t9.5 6.5q6 5 18 7.5t23 2.5h71v121q0 12 -7 14q-6 2 -20 -8q-9 -7 -19 -7t-15 7q-6 8 -2.5 18t14.5 18zM877 575q18 13 29 7.5t11 -30.5v-434q0 -23 -12 -35q-9 -9 -23.5 -22t-34.5 -28q-13 -10 -25.5 -4.5t-12.5 24.5v398q0 12 -7 14
q-6 2 -20 -8q-9 -7 -19 -7t-15 7q-6 8 -2.5 18t14.5 18zM567 -38q16 8 47.5 12.5t61.5 1.5q17 -1 28 -14q17 -21 14 -60q-3 -31 -13.5 -61.5t-32.5 -59.5q-26 -35 -65 -62.5t-77 -41.5t-79.5 -20t-69.5 -3q-29 3 -31 13q-2 5 6.5 9.5t19.5 8.5q6 2 18 6.5t27.5 11t32 14
t31.5 15.5q28 15 48.5 36t30.5 39q16 29 19 51.5t0 43.5q-2 11 -6.5 14.5t-10.5 5.5q-17 6 -18 15q-2 7 4.5 14.5t14.5 10.5zM730 -205q5 5 15 6t21 -1q6 -1 16.5 -3.5t22.5 -5.5t23.5 -7.5t19.5 -8.5q20 -11 32 -26t13 -35q1 -15 -9 -34t-33 -40q-8 -8 -15 -5.5t-10 11.5
q-2 5 -8 17t-17 23q-14 13 -29 20.5t-30 12.5q-12 3 -28 6t-24 6q-8 5 -9.5 12.5t3.5 12.5q5 7 11.5 12.5t11.5 8.5q8 4 13 8.5t10 9.5z" />
    <glyph glyph-name="uniACA0" unicode="&#xaca0;" horiz-adv-x="950" 
d="M677 535q18 13 29 7.5t11 -30.5v-394q0 -23 -12 -35q-9 -9 -23.5 -22t-34.5 -28q-13 -10 -25.5 -4.5t-12.5 24.5v152h-159q-16 0 -20 1q-8 -19 -23 -41.5t-33.5 -44t-38 -39.5t-36.5 -28q-14 -8 -26.5 -9t-16.5 4q-5 8 -1.5 19.5t9.5 19.5q11 16 19.5 28.5t15.5 25t13 26
t13 31.5q7 20 10 45t-2 39q-5 18 -16.5 27t-25.5 8q-19 -1 -36.5 -2t-46.5 -2h-33t-35 1t-32 3.5t-25 5.5q-14 5 -11.5 15.5t22.5 21.5q11 6 24.5 15t23.5 17q11 8 21.5 10.5t29.5 0.5q17 -2 36 -3t51 0q20 1 41.5 3t61.5 4q18 1 32 -5.5t22 -22.5q28 -58 4 -141
q7 5 15.5 11.5t16.5 13t14.5 11t9.5 6.5q6 5 18 7.5t23 2.5h71v121q0 12 -7 14q-6 2 -20 -8q-9 -7 -19 -7t-15 7q-6 8 -2.5 18t14.5 18zM877 575q18 13 29 7.5t11 -30.5v-434q0 -23 -12 -35q-9 -9 -23.5 -22t-34.5 -28q-13 -10 -25.5 -4.5t-12.5 24.5v398q0 12 -7 14
q-6 2 -20 -8q-9 -7 -19 -7t-15 7q-6 8 -2.5 18t14.5 18zM600 -59q14 10 38 24t53 19q19 3 31 -5q19 -14 25 -54q2 -17 -0.5 -37t-12.5 -45q-17 -41 -46 -77.5t-62 -61.5q-32 -24 -70.5 -41t-66.5 -22q-13 -2 -17.5 -0.5t-5.5 4.5q-2 5 2.5 10t16.5 15q5 4 15.5 11.5
t23.5 17.5t27 22t26 24q23 23 35.5 46t19.5 47q4 14 3.5 26.5t-3.5 23.5t-9.5 13t-12.5 2q-18 2 -22 10q-3 5 1 14t11 14zM397 -59q14 10 38 24t53 19q19 3 31 -5q19 -14 25 -54q2 -17 -0.5 -37t-12.5 -45q-17 -41 -46 -77.5t-62 -61.5q-32 -24 -70.5 -41t-66.5 -22
q-13 -2 -17.5 -0.5t-5.5 4.5q-2 5 2.5 10t16.5 15q5 4 15.5 11.5t23.5 17.5t27 22t26 24q23 23 35.5 46t19.5 47q4 14 3.5 26.5t-3.5 23.5t-9.5 13t-12.5 2q-18 2 -22 10q-3 5 1 14t11 14zM799 -180q11 7 25 -4q11 -8 23 -15.5t26 -21.5q14 -13 22.5 -31.5t3.5 -39.5
q-6 -31 -62 -59q-9 -5 -16 -0.5t-6 13.5q1 8 -6 34q-12 37 -37 54q-11 7 -17 11t-12 9t-5.5 12.5t6.5 12.5q6 4 14 7t13 5q9 3 16 6t12 7z" />
    <glyph glyph-name="uniACA1" unicode="&#xaca1;" horiz-adv-x="950" 
d="M677 535q18 13 29 7.5t11 -30.5v-394q0 -23 -12 -35q-9 -9 -23.5 -22t-34.5 -28q-13 -10 -25.5 -4.5t-12.5 24.5v152h-159q-16 0 -20 1q-8 -19 -23 -41.5t-33.5 -44t-38 -39.5t-36.5 -28q-14 -8 -26.5 -9t-16.5 4q-5 8 -1.5 19.5t9.5 19.5q11 16 19.5 28.5t15.5 25t13 26
t13 31.5q7 20 10 45t-2 39q-5 18 -16.5 27t-25.5 8q-19 -1 -36.5 -2t-46.5 -2h-33t-35 1t-32 3.5t-25 5.5q-14 5 -11.5 15.5t22.5 21.5q11 6 24.5 15t23.5 17q11 8 21.5 10.5t29.5 0.5q17 -2 36 -3t51 0q20 1 41.5 3t61.5 4q18 1 32 -5.5t22 -22.5q28 -58 4 -141
q7 5 15.5 11.5t16.5 13t14.5 11t9.5 6.5q6 5 18 7.5t23 2.5h71v121q0 12 -7 14q-6 2 -20 -8q-9 -7 -19 -7t-15 7q-6 8 -2.5 18t14.5 18zM531 -101q36 37 83 60t87 24q40 2 74.5 -18t58.5 -52q27 -37 24 -84t-34 -84q-59 -72 -147 -95q-21 -6 -45.5 -4t-47.5 11t-43.5 24
t-35.5 36t-19.5 45t-0.5 48t16 47t30 42zM877 575q18 13 29 7.5t11 -30.5v-424q0 -23 -12 -35q-9 -9 -23.5 -22t-34.5 -28q-13 -10 -25.5 -4.5t-12.5 24.5v388q0 12 -7 14q-6 2 -20 -8q-9 -7 -19 -7t-15 7q-6 8 -2.5 18t14.5 18zM728 -129q-10 12 -26.5 24t-35 18t-37.5 5
t-34 -14q-14 -12 -16.5 -30t2 -37.5t14 -37.5t20.5 -30q15 -16 33.5 -27t37 -15.5t35 -2t27.5 13.5q11 10 14.5 26t0.5 34.5t-12 37t-23 35.5z" />
    <glyph glyph-name="uniACA8" unicode="&#xaca8;" 
d="M485 306q5 3 14.5 10.5t20 15.5t19 14.5t11.5 8.5q6 5 18 7.5t23 2.5h51v167q0 12 -7 14q-6 2 -20 -8q-9 -7 -19 -7t-15 7q-6 8 -2.5 18t14.5 18l130 93q18 13 29 7.5t11 -30.5v-598q0 -23 -12 -35q-9 -9 -30 -27.5t-41 -33.5q-13 -10 -25.5 -4.5t-12.5 24.5v150h-139
q-14 0 -18.5 1t-9.5 6t-1.5 9t11.5 10q5 3 14.5 10.5t20 15.5t19 14.5t11.5 8.5q6 5 18 7.5t23 2.5h51v75h-139q-14 0 -18.5 1t-9.5 6t-1.5 9t11.5 10zM417 389q34 -70 -5 -169q-8 -19 -23 -42t-34 -45t-39 -41t-37 -29q-14 -8 -26.5 -9t-16.5 4q-5 8 -1.5 19.5t9.5 19.5
q11 16 19.5 28.5t15.5 25t13 26t13 31.5q7 20 10 45t-2 39q-5 18 -16.5 27t-25.5 8q-19 -1 -36.5 -2t-46.5 -2h-33t-35 1t-32 3.5t-25 5.5q-14 5 -11.5 15.5t22.5 21.5q11 6 24.5 15t23.5 17q11 8 21.5 10.5t29.5 0.5q17 -2 36 -3t51 0q20 1 41.5 3t61.5 4q18 1 32 -5.5
t22 -22.5z" />
    <glyph glyph-name="uniACA9" unicode="&#xaca9;" 
d="M723 535q18 13 29 7.5t11 -30.5v-394q0 -23 -12 -35q-9 -9 -30 -27.5t-41 -33.5q-13 -10 -25.5 -4.5t-12.5 24.5v78h-162q-14 0 -18.5 1t-9.5 6t-1.5 9t11.5 10q5 3 14.5 10.5t20 15.5t19 14.5t11.5 8.5q6 5 18 7.5t23 2.5h74v75h-162q-14 0 -18.5 1t-9.5 6t-1.5 9
t11.5 10q5 3 14.5 10.5t20 15.5t19 14.5t11.5 8.5q6 5 18 7.5t23 2.5h74v35q0 12 -7 14q-6 2 -20 -8q-9 -7 -19 -7t-15 7q-6 8 -2.5 18t14.5 18zM351 -21q9 6 20 7.5t26 -0.5q19 -2 45.5 -2t47.5 1q13 0 33.5 1.5t43.5 2.5t47 1t44 -1q30 -2 48.5 -14t28.5 -30t11 -41.5
t-5 -48.5q-6 -26 -21 -54.5t-33 -54.5t-36.5 -46.5t-31.5 -28.5q-14 -8 -20.5 -7.5t-8.5 5.5t-0.5 12t4.5 13q3 5 8.5 17.5t11.5 30t10.5 39.5t5.5 45q1 29 -12 47t-36 21q-13 2 -35 2.5t-47 0t-49 -1t-40 -0.5q-15 0 -33 0.5t-35.5 1.5t-32.5 3t-24 5q-12 4 -11.5 14
t20.5 24zM407 389q34 -70 -5 -169q-8 -19 -23 -42t-34 -45t-39 -41t-37 -29q-14 -8 -26.5 -9t-16.5 4q-5 8 -1.5 19.5t9.5 19.5q11 16 19.5 28.5t15.5 25t13 26t13 31.5q7 20 10 45t-2 39q-5 18 -16.5 27t-25.5 8q-19 -1 -36.5 -2t-46.5 -2h-33t-35 1t-32 3.5t-25 5.5
q-14 5 -11.5 15.5t22.5 21.5q11 6 24.5 15t23.5 17q11 8 21.5 10.5t29.5 0.5q17 -2 36 -3t51 0q20 1 41.5 3t61.5 4q18 1 32 -5.5t22 -22.5z" />
    <glyph glyph-name="uniACAA" unicode="&#xacaa;" 
d="M196 -63q11 6 24.5 15t23.5 17q11 8 20 10.5t28 1.5q28 -1 63 -0.5t58 1.5q18 1 29 -3t22 -15q2 -2 3.5 -4t3.5 -5l19 14q11 8 20 10.5t28 1.5q28 -1 63 -0.5t58 1.5q18 1 42 -1.5t39 -16.5q20 -17 22.5 -49t-5.5 -69q-5 -20 -12 -42t-19.5 -45t-30.5 -45.5t-44 -43.5
q-11 -8 -21 -11t-14 0q-5 5 -4 15.5t5 17.5q14 28 22.5 58.5t10.5 59.5q2 27 0.5 43.5t-10.5 25.5q-6 6 -17 10t-23 5.5t-24 1.5h-21q-32 -2 -68 0q0 -23 -6 -50q-5 -20 -12 -42t-19.5 -45t-30.5 -45.5t-44 -43.5q-11 -8 -21 -11t-14 0q-5 5 -4 15.5t5 17.5q28 57 34 118
q2 19 -0.5 39t-10.5 30q-10 12 -23 15t-32 2q-15 -1 -34 -1t-37 0.5t-32.5 1.5t-20.5 3q-14 4 -11.5 15t22.5 22zM723 535q18 13 29 7.5t11 -30.5v-394q0 -23 -12 -35q-9 -9 -30 -27.5t-41 -33.5q-13 -10 -25.5 -4.5t-12.5 24.5v78h-162q-14 0 -18.5 1t-9.5 6t-1.5 9
t11.5 10q5 3 14.5 10.5t20 15.5t19 14.5t11.5 8.5q6 5 18 7.5t23 2.5h74v75h-162q-14 0 -18.5 1t-9.5 6t-1.5 9t11.5 10q5 3 14.5 10.5t20 15.5t19 14.5t11.5 8.5q6 5 18 7.5t23 2.5h74v35q0 12 -7 14q-6 2 -20 -8q-9 -7 -19 -7t-15 7q-6 8 -2.5 18t14.5 18zM407 389
q34 -70 -5 -169q-8 -19 -23 -42t-34 -45t-39 -41t-37 -29q-14 -8 -26.5 -9t-16.5 4q-5 8 -1.5 19.5t9.5 19.5q11 16 19.5 28.5t15.5 25t13 26t13 31.5q7 20 10 45t-2 39q-5 18 -16.5 27t-25.5 8q-19 -1 -36.5 -2t-46.5 -2h-33t-35 1t-32 3.5t-25 5.5q-14 5 -11.5 15.5
t22.5 21.5q11 6 24.5 15t23.5 17q11 8 21.5 10.5t29.5 0.5q17 -2 36 -3t51 0q20 1 41.5 3t61.5 4q18 1 32 -5.5t22 -22.5z" />
    <glyph glyph-name="uniACAC" unicode="&#xacac;" 
d="M723 535q18 13 29 7.5t11 -30.5v-466q0 -23 -12 -35q-9 -9 -30 -27.5t-41 -33.5q-13 -10 -25.5 -4.5t-12.5 24.5v150h-162q-14 0 -18.5 1t-9.5 6t-1.5 9t11.5 10q5 3 14.5 10.5t20 15.5t19 14.5t11.5 8.5q6 5 18 7.5t23 2.5h74v75h-162q-14 0 -18.5 1t-9.5 6t-1.5 9
t11.5 10q5 3 14.5 10.5t20 15.5t19 14.5t11.5 8.5q6 5 18 7.5t23 2.5h74v35q0 12 -7 14q-6 2 -20 -8q-9 -7 -19 -7t-15 7q-6 8 -2.5 18t14.5 18zM407 389q34 -70 -5 -169q-8 -19 -23 -42t-34 -45t-39 -41t-37 -29q-14 -8 -26.5 -9t-16.5 4q-5 8 -1.5 19.5t9.5 19.5
q11 16 19.5 28.5t15.5 25t13 26t13 31.5q7 20 10 45t-2 39q-5 18 -16.5 27t-25.5 8q-19 -1 -36.5 -2t-46.5 -2h-33t-35 1t-32 3.5t-25 5.5q-14 5 -11.5 15.5t22.5 21.5q11 6 24.5 15t23.5 17q11 8 21.5 10.5t29.5 0.5q17 -2 36 -3t51 0q20 1 41.5 3t61.5 4q18 1 32 -5.5
t22 -22.5zM291 -107q14 14 32.5 27t52.5 23q21 6 34 -3q15 -9 30 -37q27 -51 59.5 -81.5t63.5 -41.5q43 -15 92 -11.5t96 38.5q8 6 14 6t9 -3q11 -11 -6 -28q-32 -31 -66.5 -52.5t-69.5 -33.5t-69.5 -13.5t-64.5 7.5q-51 15 -89 47t-60 74q-13 25 -21 32.5t-21 6.5
q-9 -1 -16.5 1t-10.5 7q-4 7 -0.5 17t11.5 18z" />
    </font>
</defs>
</svg>
